solid CASELIPO
facet normal -8.846953670738514e-16 -1.0 0.0
  outer loop
    vertex 114.24444026805845 126.290745591515 24.999999999999943
    vertex 63.244440268058526 126.29074559151505 1.0000000000000155
    vertex 114.24444026805845 126.290745591515 1.0000000000000155
  endloop
endfacet
facet normal -8.846953670738514e-16 -1.0 0.0
  outer loop
    vertex 63.244440268058526 126.29074559151505 1.0000000000000155
    vertex 114.24444026805845 126.290745591515 24.999999999999943
    vertex 63.244440268058526 126.29074559151505 24.999999999999943
  endloop
endfacet
facet normal 1.7693907341477029e-15 1.0 -0.0
  outer loop
    vertex 63.244440268058526 91.29074559151486 24.999999999999943
    vertex 114.24444026805845 91.29074559151476 1.0000000000000155
    vertex 63.244440268058526 91.29074559151486 1.0000000000000155
  endloop
endfacet
facet normal 1.7693907341477029e-15 1.0 -0.0
  outer loop
    vertex 114.24444026805845 91.29074559151476 1.0000000000000155
    vertex 63.244440268058526 91.29074559151486 24.999999999999943
    vertex 114.24444026805845 91.29074559151476 24.999999999999943
  endloop
endfacet
facet normal 0.0 -1.0 0.0
  outer loop
    vertex 116.24444026805845 114.79074559151505 17.000000000000004
    vertex 114.24444026805854 114.79074559151505 9.000000000000032
    vertex 116.24444026805845 114.79074559151505 9.000000000000032
  endloop
endfacet
facet normal 0.0 -1.0 0.0
  outer loop
    vertex 114.24444026805854 114.79074559151505 9.000000000000032
    vertex 116.24444026805845 114.79074559151505 17.000000000000004
    vertex 114.24444026805854 114.79074559151505 17.000000000000004
  endloop
endfacet
facet normal 0.0 0.0 -1.0
  outer loop
    vertex 116.24444026805845 114.79074559151505 17.000000000000004
    vertex 114.24444026805854 102.79074559151476 17.000000000000004
    vertex 114.24444026805854 114.79074559151505 17.000000000000004
  endloop
endfacet
facet normal 0.0 0.0 -1.0
  outer loop
    vertex 114.24444026805854 102.79074559151476 17.000000000000004
    vertex 116.24444026805845 114.79074559151505 17.000000000000004
    vertex 116.24444026805845 102.79074559151476 17.000000000000004
  endloop
endfacet
facet normal 1.0 -0.0 -0.0
  outer loop
    vertex 115.2444402680585 112.35187759207155 7.47693929780603
    vertex 115.2444402680585 105.35187759207128 7.47693929780603
    vertex 115.2444402680585 109.17816217053239 5.042287285077011
  endloop
endfacet
facet normal -0.0 0.5368352585263184 0.8436870896268243
  outer loop
    vertex 116.24444026805845 105.35187759207128 7.47693929780603
    vertex 115.2444402680585 109.17816217053239 5.042287285077011
    vertex 115.2444402680585 105.35187759207128 7.47693929780603
  endloop
endfacet
facet normal -0.0 0.5368352585263184 0.8436870896268243
  outer loop
    vertex 115.2444402680585 109.17816217053239 5.042287285077011
    vertex 116.24444026805845 105.35187759207128 7.47693929780603
    vertex 116.24444026805845 109.17816217053239 5.042287285077011
  endloop
endfacet
facet normal -1.0 0.0 0.0
  outer loop
    vertex 62.244440268058526 104.88550835365399 8.516573968580415
    vertex 62.244440268058526 108.22525719489245 8.225409675428738
    vertex 62.244440268058526 111.25555113606444 5.614410129259307
  endloop
endfacet
facet normal -1.0 0.0 0.0
  outer loop
    vertex 62.244440268058526 108.22525719489245 8.225409675428738
    vertex 62.244440268058526 104.88550835365399 8.516573968580415
    vertex 62.244440268058526 107.67347926373367 9.624372779082464
  endloop
endfacet
facet normal -1.0 0.0 0.0
  outer loop
    vertex 62.244440268058526 112.3611694369345 8.225409675428738
    vertex 62.244440268058526 107.67347926373367 9.624372779082464
    vertex 62.244440268058526 105.68171074379565 11.867776033734618
  endloop
endfacet
facet normal -1.0 0.0 0.0
  outer loop
    vertex 62.244440268058526 107.67347926373367 9.624372779082464
    vertex 62.244440268058526 112.3611694369345 8.225409675428738
    vertex 62.244440268058526 108.22525719489245 8.225409675428738
  endloop
endfacet
facet normal -2.379808931427972e-15 -0.4787533847521555 -0.8779494271245667
  outer loop
    vertex 62.244440268058526 112.3611694369345 8.225409675428738
    vertex 61.24444026805853 105.68171074379565 11.867776033734618
    vertex 61.24444026805851 112.3611694369345 8.225409675428743
  endloop
endfacet
facet normal -2.379808931427972e-15 -0.4787533847521555 -0.8779494271245667
  outer loop
    vertex 61.24444026805853 105.68171074379565 11.867776033734618
    vertex 62.244440268058526 112.3611694369345 8.225409675428738
    vertex 62.244440268058526 105.68171074379565 11.867776033734618
  endloop
endfacet
facet normal 5.639932965095679e-15 -0.0 1.0
  outer loop
    vertex 62.244440268058526 108.22525719489245 8.225409675428738
    vertex 61.24444026805851 112.3611694369345 8.225409675428743
    vertex 61.24444026805851 108.22525719489245 8.225409675428743
  endloop
endfacet
facet normal 5.639932965095679e-15 -0.0 1.0
  outer loop
    vertex 61.24444026805851 112.3611694369345 8.225409675428743
    vertex 62.244440268058526 108.22525719489245 8.225409675428738
    vertex 62.244440268058526 112.3611694369345 8.225409675428738
  endloop
endfacet
facet normal -2.225623831325712e-15 -0.6527498865423462 -0.7575734852929807
  outer loop
    vertex 62.244440268058526 111.25555113606444 5.614410129259307
    vertex 61.24444026805851 108.22525719489245 8.225409675428743
    vertex 61.24444026805851 111.25555113606444 5.614410129259307
  endloop
endfacet
facet normal -2.225623831325712e-15 -0.6527498865423462 -0.7575734852929807
  outer loop
    vertex 61.24444026805851 108.22525719489245 8.225409675428743
    vertex 62.244440268058526 111.25555113606444 5.614410129259307
    vertex 62.244440268058526 108.22525719489245 8.225409675428738
  endloop
endfacet
facet normal 2.242749801882971e-17 0.4145948341887199 0.9100061117728978
  outer loop
    vertex 61.24444026805853 104.88550835365399 8.516573968580415
    vertex 62.244440268058526 111.25555113606444 5.614410129259307
    vertex 61.24444026805851 111.25555113606444 5.614410129259307
  endloop
endfacet
facet normal 2.242749801882971e-17 0.4145948341887199 0.9100061117728978
  outer loop
    vertex 62.244440268058526 111.25555113606444 5.614410129259307
    vertex 61.24444026805853 104.88550835365399 8.516573968580415
    vertex 62.244440268058526 104.88550835365399 8.516573968580415
  endloop
endfacet
facet normal 0.0 0.36926627016734426 -0.9293236366932126
  outer loop
    vertex 62.244440268058526 107.67347926373367 9.624372779082464
    vertex 61.24444026805853 104.88550835365399 8.516573968580415
    vertex 61.24444026805853 107.67347926373367 9.624372779082464
  endloop
endfacet
facet normal 0.0 0.36926627016734426 -0.9293236366932126
  outer loop
    vertex 61.24444026805853 104.88550835365399 8.516573968580415
    vertex 62.244440268058526 107.67347926373367 9.624372779082464
    vertex 62.244440268058526 104.88550835365399 8.516573968580415
  endloop
endfacet
facet normal -0.0 0.7478010848840527 0.6639228399793412
  outer loop
    vertex 61.24444026805853 105.68171074379565 11.867776033734618
    vertex 62.244440268058526 107.67347926373367 9.624372779082464
    vertex 61.24444026805853 107.67347926373367 9.624372779082464
  endloop
endfacet
facet normal -0.0 0.7478010848840527 0.6639228399793412
  outer loop
    vertex 62.244440268058526 107.67347926373367 9.624372779082464
    vertex 61.24444026805853 105.68171074379565 11.867776033734618
    vertex 62.244440268058526 105.68171074379565 11.867776033734618
  endloop
endfacet
facet normal 0.0 1.0 0.0
  outer loop
    vertex 61.74444026805853 79.00379643453944 1.000000000000011
    vertex 111.74444026805853 79.00379643453944 -0.9999999999999887
    vertex 61.74444026805853 79.00379643453944 -0.9999999999999887
  endloop
endfacet
facet normal 0.0 1.0 0.0
  outer loop
    vertex 111.74444026805853 79.00379643453944 -0.9999999999999887
    vertex 61.74444026805853 79.00379643453944 1.000000000000011
    vertex 111.74444026805853 79.00379643453944 1.000000000000011
  endloop
endfacet
facet normal -0.0 -1.0 -0.0
  outer loop
    vertex 111.74444026805853 45.00379643453943 1.000000000000011
    vertex 61.74444026805853 45.00379643453943 -0.9999999999999887
    vertex 111.74444026805853 45.00379643453943 -0.9999999999999887
  endloop
endfacet
facet normal -0.0 -1.0 -0.0
  outer loop
    vertex 61.74444026805853 45.00379643453943 -0.9999999999999887
    vertex 111.74444026805853 45.00379643453943 1.000000000000011
    vertex 61.74444026805853 45.00379643453943 1.000000000000011
  endloop
endfacet
facet normal 0.0 0.0 -1.0
  outer loop
    vertex 111.74444026805853 79.00379643453944 -0.9999999999999887
    vertex 61.74444026805853 67.50379643453944 -0.9999999999999887
    vertex 61.74444026805853 79.00379643453944 -0.9999999999999887
  endloop
endfacet
facet normal 0.0 0.0 -1.0
  outer loop
    vertex 61.74444026805853 67.50379643453944 -0.9999999999999887
    vertex 111.74444026805853 79.00379643453944 -0.9999999999999887
    vertex 61.74444026805853 56.50379643453944 -0.9999999999999887
  endloop
endfacet
facet normal 0.0 0.0 -1.0
  outer loop
    vertex 61.74444026805853 56.50379643453944 -0.9999999999999887
    vertex 111.74444026805853 79.00379643453944 -0.9999999999999887
    vertex 61.74444026805853 45.00379643453943 -0.9999999999999887
  endloop
endfacet
facet normal 0.0 0.0 -1.0
  outer loop
    vertex 61.74444026805853 45.00379643453943 -0.9999999999999887
    vertex 111.74444026805853 79.00379643453944 -0.9999999999999887
    vertex 111.74444026805853 45.00379643453943 -0.9999999999999887
  endloop
endfacet
facet normal 0.0 0.0 -1.0
  outer loop
    vertex 111.74444026805853 45.00379643453943 -0.9999999999999887
    vertex 111.74444026805853 79.00379643453944 -0.9999999999999887
    vertex 111.74444026805853 67.50379643453944 -0.9999999999999887
  endloop
endfacet
facet normal 0.0 0.0 -1.0
  outer loop
    vertex 111.74444026805853 45.00379643453943 -0.9999999999999887
    vertex 111.74444026805853 67.50379643453944 -0.9999999999999887
    vertex 111.74444026805853 56.50379643453944 -0.9999999999999887
  endloop
endfacet
facet normal 0.0 0.0 -1.0
  outer loop
    vertex 61.74444026805853 67.50379643453944 -0.9999999999999887
    vertex 59.74444026805853 56.50379643453944 -0.9999999999999887
    vertex 59.74444026805853 67.50379643453944 -0.9999999999999887
  endloop
endfacet
facet normal 0.0 0.0 -1.0
  outer loop
    vertex 59.74444026805853 56.50379643453944 -0.9999999999999887
    vertex 61.74444026805853 67.50379643453944 -0.9999999999999887
    vertex 61.74444026805853 56.50379643453944 -0.9999999999999887
  endloop
endfacet
facet normal -0.0 -0.0 1.0
  outer loop
    vertex 113.74444026805853 56.50379643453944 1.000000000000011
    vertex 111.74444026805853 67.50379643453944 1.000000000000011
    vertex 111.74444026805853 56.50379643453944 1.000000000000011
  endloop
endfacet
facet normal -0.0 -0.0 1.0
  outer loop
    vertex 111.74444026805853 67.50379643453944 1.000000000000011
    vertex 113.74444026805853 56.50379643453944 1.000000000000011
    vertex 113.74444026805853 67.50379643453944 1.000000000000011
  endloop
endfacet
facet normal -0.0 -0.0 1.0
  outer loop
    vertex 111.74444026805853 45.00379643453943 1.000000000000011
    vertex 61.74444026805853 56.50379643453944 1.000000000000011
    vertex 61.74444026805853 45.00379643453943 1.000000000000011
  endloop
endfacet
facet normal -0.0 -0.0 1.0
  outer loop
    vertex 61.74444026805853 56.50379643453944 1.000000000000011
    vertex 111.74444026805853 45.00379643453943 1.000000000000011
    vertex 61.74444026805853 67.50379643453944 1.000000000000011
  endloop
endfacet
facet normal -0.0 -0.0 1.0
  outer loop
    vertex 61.74444026805853 67.50379643453944 1.000000000000011
    vertex 111.74444026805853 45.00379643453943 1.000000000000011
    vertex 61.74444026805853 79.00379643453944 1.000000000000011
  endloop
endfacet
facet normal -0.0 -0.0 1.0
  outer loop
    vertex 61.74444026805853 79.00379643453944 1.000000000000011
    vertex 111.74444026805853 45.00379643453943 1.000000000000011
    vertex 111.74444026805853 79.00379643453944 1.000000000000011
  endloop
endfacet
facet normal -0.0 -0.0 1.0
  outer loop
    vertex 111.74444026805853 79.00379643453944 1.000000000000011
    vertex 111.74444026805853 45.00379643453943 1.000000000000011
    vertex 111.74444026805853 56.50379643453944 1.000000000000011
  endloop
endfacet
facet normal -0.0 -0.0 1.0
  outer loop
    vertex 111.74444026805853 79.00379643453944 1.000000000000011
    vertex 111.74444026805853 56.50379643453944 1.000000000000011
    vertex 111.74444026805853 67.50379643453944 1.000000000000011
  endloop
endfacet
facet normal -0.0 -0.0 1.0
  outer loop
    vertex 61.74444026805853 56.50379643453944 1.000000000000011
    vertex 59.74444026805853 67.50379643453944 1.000000000000011
    vertex 59.74444026805853 56.50379643453944 1.000000000000011
  endloop
endfacet
facet normal -0.0 -0.0 1.0
  outer loop
    vertex 59.74444026805853 67.50379643453944 1.000000000000011
    vertex 61.74444026805853 56.50379643453944 1.000000000000011
    vertex 61.74444026805853 67.50379643453944 1.000000000000011
  endloop
endfacet
facet normal -0.0 -0.0 1.0
  outer loop
    vertex 63.244440268058526 114.79074559151505 24.999999999999943
    vertex 61.24444026805853 128.29074559151505 24.999999999999943
    vertex 61.24444026805853 114.79074559151505 24.999999999999943
  endloop
endfacet
facet normal -0.0 -0.0 1.0
  outer loop
    vertex 61.24444026805853 128.29074559151505 24.999999999999943
    vertex 63.244440268058526 114.79074559151505 24.999999999999943
    vertex 63.244440268058526 126.29074559151505 24.999999999999943
  endloop
endfacet
facet normal -0.0 -0.0 1.0
  outer loop
    vertex 61.24444026805853 128.29074559151505 24.999999999999943
    vertex 63.244440268058526 126.29074559151505 24.999999999999943
    vertex 116.24444026805845 128.29074559151505 24.999999999999943
  endloop
endfacet
facet normal -0.0 -0.0 1.0
  outer loop
    vertex 116.24444026805845 128.29074559151505 24.999999999999943
    vertex 63.244440268058526 126.29074559151505 24.999999999999943
    vertex 114.24444026805845 126.290745591515 24.999999999999943
  endloop
endfacet
facet normal -0.0 -0.0 1.0
  outer loop
    vertex 116.24444026805845 128.29074559151505 24.999999999999943
    vertex 114.24444026805845 126.290745591515 24.999999999999943
    vertex 116.24444026805845 126.290745591515 24.999999999999943
  endloop
endfacet
facet normal 1.0 -0.0 -0.0
  outer loop
    vertex 63.244440268058526 91.29074559151486 1.0000000000000155
    vertex 63.244440268058526 102.29074559151505 14.027216070342527
    vertex 63.244440268058526 91.29074559151486 24.999999999999943
  endloop
endfacet
facet normal 1.0 -0.0 -0.0
  outer loop
    vertex 63.244440268058526 102.29074559151505 14.027216070342527
    vertex 63.244440268058526 91.29074559151486 1.0000000000000155
    vertex 63.244440268058526 126.29074559151505 1.0000000000000155
  endloop
endfacet
facet normal 1.0 -0.0 -0.0
  outer loop
    vertex 63.244440268058526 102.29074559151505 14.027216070342527
    vertex 63.244440268058526 126.29074559151505 1.0000000000000155
    vertex 63.244440268058526 114.29074559151503 14.027216070342527
  endloop
endfacet
facet normal 1.0 -0.0 -0.0
  outer loop
    vertex 63.244440268058526 114.29074559151503 14.027216070342527
    vertex 63.244440268058526 126.29074559151505 1.0000000000000155
    vertex 63.244440268058526 114.29074559151503 22.027216070342526
  endloop
endfacet
facet normal 1.0 -0.0 -0.0
  outer loop
    vertex 63.244440268058526 114.29074559151503 22.027216070342526
    vertex 63.244440268058526 126.29074559151505 1.0000000000000155
    vertex 63.244440268058526 114.79074559151505 22.999999999999968
  endloop
endfacet
facet normal 1.0 -0.0 -0.0
  outer loop
    vertex 63.244440268058526 114.79074559151505 22.999999999999968
    vertex 63.244440268058526 126.29074559151505 1.0000000000000155
    vertex 63.244440268058526 114.79074559151505 24.999999999999943
  endloop
endfacet
facet normal 1.0 -0.0 -0.0
  outer loop
    vertex 63.244440268058526 114.79074559151505 24.999999999999943
    vertex 63.244440268058526 126.29074559151505 1.0000000000000155
    vertex 63.244440268058526 126.29074559151505 24.999999999999943
  endloop
endfacet
facet normal 1.0 -0.0 -0.0
  outer loop
    vertex 63.244440268058526 114.29074559151503 22.027216070342526
    vertex 63.244440268058526 102.79074559151476 22.999999999999968
    vertex 63.244440268058526 102.29074559151505 22.027216070342526
  endloop
endfacet
facet normal 1.0 -0.0 -0.0
  outer loop
    vertex 63.244440268058526 102.79074559151476 22.999999999999968
    vertex 63.244440268058526 114.29074559151503 22.027216070342526
    vertex 63.244440268058526 114.79074559151505 22.999999999999968
  endloop
endfacet
facet normal 1.0 -0.0 -0.0
  outer loop
    vertex 63.244440268058526 91.29074559151486 24.999999999999943
    vertex 63.244440268058526 102.29074559151505 22.027216070342526
    vertex 63.244440268058526 102.79074559151476 24.999999999999943
  endloop
endfacet
facet normal 1.0 -0.0 -0.0
  outer loop
    vertex 63.244440268058526 102.29074559151505 22.027216070342526
    vertex 63.244440268058526 91.29074559151486 24.999999999999943
    vertex 63.244440268058526 102.29074559151505 14.027216070342527
  endloop
endfacet
facet normal 1.0 -0.0 -0.0
  outer loop
    vertex 63.244440268058526 102.79074559151476 24.999999999999943
    vertex 63.244440268058526 102.29074559151505 22.027216070342526
    vertex 63.244440268058526 102.79074559151476 22.999999999999968
  endloop
endfacet
facet normal -1.0 0.0 0.0
  outer loop
    vertex 61.74444026805853 79.00379643453944 1.000000000000011
    vertex 61.74444026805853 67.50379643453944 -0.9999999999999887
    vertex 61.74444026805853 67.50379643453944 1.000000000000011
  endloop
endfacet
facet normal -1.0 0.0 0.0
  outer loop
    vertex 61.74444026805853 67.50379643453944 -0.9999999999999887
    vertex 61.74444026805853 79.00379643453944 1.000000000000011
    vertex 61.74444026805853 79.00379643453944 -0.9999999999999887
  endloop
endfacet
facet normal -0.0 -0.0 1.0
  outer loop
    vertex 116.24444026805845 113.790745591515 24.999999999999943
    vertex 114.24444026805845 126.290745591515 24.999999999999943
    vertex 114.24444026805845 113.790745591515 24.999999999999943
  endloop
endfacet
facet normal -0.0 -0.0 1.0
  outer loop
    vertex 114.24444026805845 126.290745591515 24.999999999999943
    vertex 116.24444026805845 113.790745591515 24.999999999999943
    vertex 116.24444026805845 126.290745591515 24.999999999999943
  endloop
endfacet
facet normal -0.0 1.0 -0.0
  outer loop
    vertex 114.24444026805845 101.79074559151466 24.999999999999943
    vertex 116.24444026805845 101.79074559151466 22.99999999999996
    vertex 114.24444026805845 101.79074559151466 22.99999999999996
  endloop
endfacet
facet normal -0.0 1.0 -0.0
  outer loop
    vertex 116.24444026805845 101.79074559151466 22.99999999999996
    vertex 114.24444026805845 101.79074559151466 24.999999999999943
    vertex 116.24444026805845 101.79074559151466 24.999999999999943
  endloop
endfacet
facet normal -0.0 -0.0 1.0
  outer loop
    vertex 116.24444026805845 101.79074559151466 22.99999999999996
    vertex 114.24444026805845 113.790745591515 22.99999999999996
    vertex 114.24444026805845 101.79074559151466 22.99999999999996
  endloop
endfacet
facet normal -0.0 -0.0 1.0
  outer loop
    vertex 114.24444026805845 113.790745591515 22.99999999999996
    vertex 116.24444026805845 101.79074559151466 22.99999999999996
    vertex 116.24444026805845 113.790745591515 22.99999999999996
  endloop
endfacet
facet normal 0.0 -1.0 0.0
  outer loop
    vertex 116.24444026805845 113.790745591515 24.999999999999943
    vertex 114.24444026805845 113.790745591515 22.99999999999996
    vertex 116.24444026805845 113.790745591515 22.99999999999996
  endloop
endfacet
facet normal 0.0 -1.0 0.0
  outer loop
    vertex 114.24444026805845 113.790745591515 22.99999999999996
    vertex 116.24444026805845 113.790745591515 24.999999999999943
    vertex 114.24444026805845 113.790745591515 24.999999999999943
  endloop
endfacet
facet normal -0.0 -0.0 1.0
  outer loop
    vertex 116.24444026805845 89.29074559151479 24.999999999999943
    vertex 61.24444026805853 91.29074559151476 24.999999999999943
    vertex 61.24444026805853 89.29074559151479 24.999999999999943
  endloop
endfacet
facet normal -0.0 -0.0 1.0
  outer loop
    vertex 61.24444026805853 91.29074559151476 24.999999999999943
    vertex 116.24444026805845 89.29074559151479 24.999999999999943
    vertex 63.244440268058526 91.29074559151486 24.999999999999943
  endloop
endfacet
facet normal -0.0 -0.0 1.0
  outer loop
    vertex 63.244440268058526 91.29074559151486 24.999999999999943
    vertex 116.24444026805845 89.29074559151479 24.999999999999943
    vertex 114.24444026805845 91.29074559151476 24.999999999999943
  endloop
endfacet
facet normal -0.0 -0.0 1.0
  outer loop
    vertex 114.24444026805845 91.29074559151476 24.999999999999943
    vertex 116.24444026805845 89.29074559151479 24.999999999999943
    vertex 114.24444026805845 101.79074559151466 24.999999999999943
  endloop
endfacet
facet normal -0.0 -0.0 1.0
  outer loop
    vertex 114.24444026805845 101.79074559151466 24.999999999999943
    vertex 116.24444026805845 89.29074559151479 24.999999999999943
    vertex 116.24444026805845 101.79074559151466 24.999999999999943
  endloop
endfacet
facet normal 1.0 -0.0 -0.0
  outer loop
    vertex 111.74444026805853 79.00379643453944 -0.9999999999999887
    vertex 111.74444026805853 67.50379643453944 1.127986593019159e-14
    vertex 111.74444026805853 67.50379643453944 -0.9999999999999887
  endloop
endfacet
facet normal 1.0 -0.0 -0.0
  outer loop
    vertex 111.74444026805853 67.50379643453944 1.127986593019159e-14
    vertex 111.74444026805853 79.00379643453944 -0.9999999999999887
    vertex 111.74444026805853 67.50379643453944 1.000000000000011
  endloop
endfacet
facet normal 1.0 -0.0 -0.0
  outer loop
    vertex 111.74444026805853 67.50379643453944 1.000000000000011
    vertex 111.74444026805853 79.00379643453944 -0.9999999999999887
    vertex 111.74444026805853 79.00379643453944 1.000000000000011
  endloop
endfacet
facet normal -0.0 -0.0 1.0
  outer loop
    vertex 114.24444026805845 91.29074559151476 1.0000000000000155
    vertex 63.244440268058526 126.29074559151505 1.0000000000000155
    vertex 63.244440268058526 91.29074559151486 1.0000000000000155
  endloop
endfacet
facet normal -0.0 -0.0 1.0
  outer loop
    vertex 63.244440268058526 126.29074559151505 1.0000000000000155
    vertex 114.24444026805845 91.29074559151476 1.0000000000000155
    vertex 114.24444026805845 126.290745591515 1.0000000000000155
  endloop
endfacet
facet normal -0.0 -0.0 1.0
  outer loop
    vertex 116.24444026805845 102.79074559151476 9.000000000000032
    vertex 114.24444026805854 114.79074559151505 9.000000000000032
    vertex 114.24444026805854 102.79074559151476 9.000000000000032
  endloop
endfacet
facet normal -0.0 -0.0 1.0
  outer loop
    vertex 114.24444026805854 114.79074559151505 9.000000000000032
    vertex 116.24444026805845 102.79074559151476 9.000000000000032
    vertex 116.24444026805845 114.79074559151505 9.000000000000032
  endloop
endfacet
facet normal -0.0 -0.6086630031822385 0.793428855384765
  outer loop
    vertex 116.24444026805845 109.17816217053239 5.042287285077011
    vertex 115.2444402680585 112.35187759207155 7.47693929780603
    vertex 115.2444402680585 109.17816217053239 5.042287285077011
  endloop
endfacet
facet normal -0.0 -0.6086630031822385 0.793428855384765
  outer loop
    vertex 115.2444402680585 112.35187759207155 7.47693929780603
    vertex 116.24444026805845 109.17816217053239 5.042287285077011
    vertex 116.24444026805845 112.35187759207155 7.47693929780603
  endloop
endfacet
facet normal 0.0 0.0 -1.0
  outer loop
    vertex 116.24444026805845 112.35187759207155 7.47693929780603
    vertex 115.2444402680585 105.35187759207128 7.47693929780603
    vertex 115.2444402680585 112.35187759207155 7.47693929780603
  endloop
endfacet
facet normal 0.0 0.0 -1.0
  outer loop
    vertex 115.2444402680585 105.35187759207128 7.47693929780603
    vertex 116.24444026805845 112.35187759207155 7.47693929780603
    vertex 116.24444026805845 105.35187759207128 7.47693929780603
  endloop
endfacet
facet normal -0.0 1.0 -0.0
  outer loop
    vertex 114.24444026805854 102.79074559151476 17.000000000000004
    vertex 116.24444026805845 102.79074559151476 9.000000000000032
    vertex 114.24444026805854 102.79074559151476 9.000000000000032
  endloop
endfacet
facet normal -0.0 1.0 -0.0
  outer loop
    vertex 116.24444026805845 102.79074559151476 9.000000000000032
    vertex 114.24444026805854 102.79074559151476 17.000000000000004
    vertex 116.24444026805845 102.79074559151476 17.000000000000004
  endloop
endfacet
facet normal -1.0 0.0 0.0
  outer loop
    vertex 114.24444026805845 126.290745591515 24.999999999999943
    vertex 114.24444026805845 113.790745591515 22.99999999999996
    vertex 114.24444026805845 113.790745591515 24.999999999999943
  endloop
endfacet
facet normal -1.0 0.0 0.0
  outer loop
    vertex 114.24444026805845 113.790745591515 22.99999999999996
    vertex 114.24444026805845 126.290745591515 24.999999999999943
    vertex 114.24444026805854 114.79074559151505 17.000000000000004
  endloop
endfacet
facet normal -1.0 0.0 0.0
  outer loop
    vertex 114.24444026805854 114.79074559151505 17.000000000000004
    vertex 114.24444026805845 126.290745591515 24.999999999999943
    vertex 114.24444026805854 114.79074559151505 9.000000000000032
  endloop
endfacet
facet normal -1.0 0.0 0.0
  outer loop
    vertex 114.24444026805845 101.79074559151466 24.999999999999943
    vertex 114.24444026805845 91.29074559151476 1.0000000000000155
    vertex 114.24444026805845 91.29074559151476 24.999999999999943
  endloop
endfacet
facet normal -1.0 0.0 0.0
  outer loop
    vertex 114.24444026805845 91.29074559151476 1.0000000000000155
    vertex 114.24444026805845 101.79074559151466 24.999999999999943
    vertex 114.24444026805845 101.79074559151466 22.99999999999996
  endloop
endfacet
facet normal -1.0 0.0 0.0
  outer loop
    vertex 114.24444026805845 91.29074559151476 1.0000000000000155
    vertex 114.24444026805845 101.79074559151466 22.99999999999996
    vertex 114.24444026805854 102.79074559151476 9.000000000000032
  endloop
endfacet
facet normal -1.0 0.0 0.0
  outer loop
    vertex 114.24444026805845 91.29074559151476 1.0000000000000155
    vertex 114.24444026805854 102.79074559151476 9.000000000000032
    vertex 114.24444026805845 126.290745591515 1.0000000000000155
  endloop
endfacet
facet normal -1.0 0.0 0.0
  outer loop
    vertex 114.24444026805854 102.79074559151476 9.000000000000032
    vertex 114.24444026805845 101.79074559151466 22.99999999999996
    vertex 114.24444026805854 102.79074559151476 17.000000000000004
  endloop
endfacet
facet normal -1.0 0.0 0.0
  outer loop
    vertex 114.24444026805845 126.290745591515 1.0000000000000155
    vertex 114.24444026805854 102.79074559151476 9.000000000000032
    vertex 114.24444026805854 114.79074559151505 9.000000000000032
  endloop
endfacet
facet normal -1.0 0.0 0.0
  outer loop
    vertex 114.24444026805845 126.290745591515 1.0000000000000155
    vertex 114.24444026805854 114.79074559151505 9.000000000000032
    vertex 114.24444026805845 126.290745591515 24.999999999999943
  endloop
endfacet
facet normal -1.0 0.0 0.0
  outer loop
    vertex 114.24444026805845 113.790745591515 22.99999999999996
    vertex 114.24444026805854 102.79074559151476 17.000000000000004
    vertex 114.24444026805845 101.79074559151466 22.99999999999996
  endloop
endfacet
facet normal -1.0 0.0 0.0
  outer loop
    vertex 114.24444026805854 102.79074559151476 17.000000000000004
    vertex 114.24444026805845 113.790745591515 22.99999999999996
    vertex 114.24444026805854 114.79074559151505 17.000000000000004
  endloop
endfacet
facet normal 1.0 -0.0 -0.0
  outer loop
    vertex 116.24444026805845 89.29074559151479 -0.9999999999999887
    vertex 116.24444026805845 102.79074559151476 9.000000000000032
    vertex 116.24444026805845 89.29074559151479 24.999999999999943
  endloop
endfacet
facet normal 1.0 -0.0 -0.0
  outer loop
    vertex 116.24444026805845 102.79074559151476 9.000000000000032
    vertex 116.24444026805845 89.29074559151479 -0.9999999999999887
    vertex 116.24444026805845 109.17816217053239 5.042287285077011
  endloop
endfacet
facet normal 1.0 -0.0 -0.0
  outer loop
    vertex 116.24444026805845 109.17816217053239 5.042287285077011
    vertex 116.24444026805845 89.29074559151479 -0.9999999999999887
    vertex 116.24444026805845 128.29074559151505 -0.9999999999999887
  endloop
endfacet
facet normal 1.0 -0.0 -0.0
  outer loop
    vertex 116.24444026805845 89.29074559151479 24.999999999999943
    vertex 116.24444026805845 102.79074559151476 9.000000000000032
    vertex 116.24444026805845 101.79074559151466 22.99999999999996
  endloop
endfacet
facet normal 1.0 -0.0 -0.0
  outer loop
    vertex 116.24444026805845 102.79074559151476 9.000000000000032
    vertex 116.24444026805845 109.17816217053239 5.042287285077011
    vertex 116.24444026805845 105.35187759207128 7.47693929780603
  endloop
endfacet
facet normal 1.0 -0.0 -0.0
  outer loop
    vertex 116.24444026805845 109.17816217053239 5.042287285077011
    vertex 116.24444026805845 128.29074559151505 -0.9999999999999887
    vertex 116.24444026805845 112.35187759207155 7.47693929780603
  endloop
endfacet
facet normal 1.0 -0.0 -0.0
  outer loop
    vertex 116.24444026805845 112.35187759207155 7.47693929780603
    vertex 116.24444026805845 128.29074559151505 -0.9999999999999887
    vertex 116.24444026805845 114.79074559151505 9.000000000000032
  endloop
endfacet
facet normal 1.0 -0.0 -0.0
  outer loop
    vertex 116.24444026805845 114.79074559151505 9.000000000000032
    vertex 116.24444026805845 128.29074559151505 -0.9999999999999887
    vertex 116.24444026805845 114.79074559151505 17.000000000000004
  endloop
endfacet
facet normal 1.0 -0.0 -0.0
  outer loop
    vertex 116.24444026805845 114.79074559151505 17.000000000000004
    vertex 116.24444026805845 128.29074559151505 -0.9999999999999887
    vertex 116.24444026805845 126.290745591515 24.999999999999943
  endloop
endfacet
facet normal 1.0 -0.0 -0.0
  outer loop
    vertex 116.24444026805845 126.290745591515 24.999999999999943
    vertex 116.24444026805845 128.29074559151505 -0.9999999999999887
    vertex 116.24444026805845 128.29074559151505 24.999999999999943
  endloop
endfacet
facet normal 1.0 -0.0 -0.0
  outer loop
    vertex 116.24444026805845 101.79074559151466 22.99999999999996
    vertex 116.24444026805845 102.79074559151476 17.000000000000004
    vertex 116.24444026805845 113.790745591515 22.99999999999996
  endloop
endfacet
facet normal 1.0 -0.0 -0.0
  outer loop
    vertex 116.24444026805845 102.79074559151476 17.000000000000004
    vertex 116.24444026805845 101.79074559151466 22.99999999999996
    vertex 116.24444026805845 102.79074559151476 9.000000000000032
  endloop
endfacet
facet normal 1.0 -0.0 -0.0
  outer loop
    vertex 116.24444026805845 113.790745591515 22.99999999999996
    vertex 116.24444026805845 102.79074559151476 17.000000000000004
    vertex 116.24444026805845 114.79074559151505 17.000000000000004
  endloop
endfacet
facet normal 1.0 -0.0 -0.0
  outer loop
    vertex 116.24444026805845 113.790745591515 22.99999999999996
    vertex 116.24444026805845 114.79074559151505 17.000000000000004
    vertex 116.24444026805845 113.790745591515 24.999999999999943
  endloop
endfacet
facet normal 1.0 -0.0 -0.0
  outer loop
    vertex 116.24444026805845 113.790745591515 24.999999999999943
    vertex 116.24444026805845 114.79074559151505 17.000000000000004
    vertex 116.24444026805845 126.290745591515 24.999999999999943
  endloop
endfacet
facet normal 1.0 -0.0 -0.0
  outer loop
    vertex 116.24444026805845 105.35187759207128 7.47693929780603
    vertex 116.24444026805845 114.79074559151505 9.000000000000032
    vertex 116.24444026805845 102.79074559151476 9.000000000000032
  endloop
endfacet
facet normal 1.0 -0.0 -0.0
  outer loop
    vertex 116.24444026805845 114.79074559151505 9.000000000000032
    vertex 116.24444026805845 105.35187759207128 7.47693929780603
    vertex 116.24444026805845 112.35187759207155 7.47693929780603
  endloop
endfacet
facet normal 1.0 -0.0 -0.0
  outer loop
    vertex 116.24444026805845 101.79074559151466 24.999999999999943
    vertex 116.24444026805845 89.29074559151479 24.999999999999943
    vertex 116.24444026805845 101.79074559151466 22.99999999999996
  endloop
endfacet
facet normal -0.0 -0.0 1.0
  outer loop
    vertex 63.244440268058526 91.29074559151486 24.999999999999943
    vertex 61.24444026805853 102.79074559151476 24.999999999999943
    vertex 61.24444026805853 91.29074559151476 24.999999999999943
  endloop
endfacet
facet normal -0.0 -0.0 1.0
  outer loop
    vertex 61.24444026805853 102.79074559151476 24.999999999999943
    vertex 63.244440268058526 91.29074559151486 24.999999999999943
    vertex 63.244440268058526 102.79074559151476 24.999999999999943
  endloop
endfacet
facet normal 0.0 0.0 1.0
  outer loop
    vertex 63.244440268058526 102.79074559151476 22.999999999999968
    vertex 61.24444026805853 114.79074559151505 22.999999999999968
    vertex 61.24444026805853 102.79074559151476 22.999999999999968
  endloop
endfacet
facet normal 0.0 0.0 1.0
  outer loop
    vertex 61.24444026805853 114.79074559151505 22.999999999999968
    vertex 63.244440268058526 102.79074559151476 22.999999999999968
    vertex 63.244440268058526 114.79074559151505 22.999999999999968
  endloop
endfacet
facet normal -0.0 1.0 -0.0
  outer loop
    vertex 61.24444026805853 102.79074559151476 24.999999999999943
    vertex 63.244440268058526 102.79074559151476 22.999999999999968
    vertex 61.24444026805853 102.79074559151476 22.999999999999968
  endloop
endfacet
facet normal -0.0 1.0 -0.0
  outer loop
    vertex 63.244440268058526 102.79074559151476 22.999999999999968
    vertex 61.24444026805853 102.79074559151476 24.999999999999943
    vertex 63.244440268058526 102.79074559151476 24.999999999999943
  endloop
endfacet
facet normal 0.0 -1.0 0.0
  outer loop
    vertex 63.244440268058526 114.79074559151505 24.999999999999943
    vertex 61.24444026805853 114.79074559151505 22.999999999999968
    vertex 63.244440268058526 114.79074559151505 22.999999999999968
  endloop
endfacet
facet normal 0.0 -1.0 0.0
  outer loop
    vertex 61.24444026805853 114.79074559151505 22.999999999999968
    vertex 63.244440268058526 114.79074559151505 24.999999999999943
    vertex 61.24444026805853 114.79074559151505 24.999999999999943
  endloop
endfacet
facet normal 0.0 0.0 -1.0
  outer loop
    vertex 116.24444026805845 128.29074559151505 -0.9999999999999887
    vertex 61.24444026805853 89.29074559151479 -0.9999999999999887
    vertex 61.24444026805853 128.29074559151505 -0.9999999999999887
  endloop
endfacet
facet normal 0.0 0.0 -1.0
  outer loop
    vertex 61.24444026805853 89.29074559151479 -0.9999999999999887
    vertex 116.24444026805845 128.29074559151505 -0.9999999999999887
    vertex 116.24444026805845 89.29074559151479 -0.9999999999999887
  endloop
endfacet
facet normal -0.0 1.0 -0.0
  outer loop
    vertex 61.24444026805853 128.29074559151505 24.999999999999943
    vertex 116.24444026805845 128.29074559151505 -0.9999999999999887
    vertex 61.24444026805853 128.29074559151505 -0.9999999999999887
  endloop
endfacet
facet normal -0.0 1.0 -0.0
  outer loop
    vertex 116.24444026805845 128.29074559151505 -0.9999999999999887
    vertex 61.24444026805853 128.29074559151505 24.999999999999943
    vertex 116.24444026805845 128.29074559151505 24.999999999999943
  endloop
endfacet
facet normal 0.0 -1.0 0.0
  outer loop
    vertex 116.24444026805845 89.29074559151479 24.999999999999943
    vertex 61.24444026805853 89.29074559151479 -0.9999999999999887
    vertex 116.24444026805845 89.29074559151479 -0.9999999999999887
  endloop
endfacet
facet normal 0.0 -1.0 0.0
  outer loop
    vertex 61.24444026805853 89.29074559151479 -0.9999999999999887
    vertex 116.24444026805845 89.29074559151479 24.999999999999943
    vertex 61.24444026805853 89.29074559151479 24.999999999999943
  endloop
endfacet
facet normal -1.0 0.0 0.0
  outer loop
    vertex 61.24444026805851 112.3611694369345 8.225409675428743
    vertex 61.24444026805851 111.25555113606444 5.614410129259307
    vertex 61.24444026805851 108.22525719489245 8.225409675428743
  endloop
endfacet
facet normal -1.0 0.0 0.0
  outer loop
    vertex 61.24444026805853 102.29074559151505 14.027216070342527
    vertex 61.24444026805853 105.68171074379565 11.867776033734618
    vertex 61.24444026805853 104.88550835365399 8.516573968580415
  endloop
endfacet
facet normal -1.0 0.0 0.0
  outer loop
    vertex 61.24444026805853 105.68171074379565 11.867776033734618
    vertex 61.24444026805853 102.29074559151505 14.027216070342527
    vertex 61.24444026805853 114.29074559151503 14.027216070342527
  endloop
endfacet
facet normal -1.0 0.0 0.0
  outer loop
    vertex 61.24444026805853 105.68171074379565 11.867776033734618
    vertex 61.24444026805853 114.29074559151503 14.027216070342527
    vertex 61.24444026805851 112.3611694369345 8.225409675428743
  endloop
endfacet
facet normal -1.0 0.0 0.0
  outer loop
    vertex 61.24444026805853 102.79074559151476 24.999999999999943
    vertex 61.24444026805853 102.29074559151505 22.027216070342526
    vertex 61.24444026805853 91.29074559151476 24.999999999999943
  endloop
endfacet
facet normal -1.0 0.0 0.0
  outer loop
    vertex 61.24444026805853 102.29074559151505 22.027216070342526
    vertex 61.24444026805853 102.79074559151476 24.999999999999943
    vertex 61.24444026805853 102.79074559151476 22.999999999999968
  endloop
endfacet
facet normal -1.0 0.0 0.0
  outer loop
    vertex 61.24444026805853 102.29074559151505 22.027216070342526
    vertex 61.24444026805853 102.79074559151476 22.999999999999968
    vertex 61.24444026805853 114.29074559151503 22.027216070342526
  endloop
endfacet
facet normal -1.0 0.0 0.0
  outer loop
    vertex 61.24444026805853 114.29074559151503 22.027216070342526
    vertex 61.24444026805853 102.79074559151476 22.999999999999968
    vertex 61.24444026805853 114.79074559151505 22.999999999999968
  endloop
endfacet
facet normal -1.0 0.0 0.0
  outer loop
    vertex 61.24444026805853 114.29074559151503 22.027216070342526
    vertex 61.24444026805853 114.79074559151505 22.999999999999968
    vertex 61.24444026805853 114.29074559151503 14.027216070342527
  endloop
endfacet
facet normal -1.0 0.0 0.0
  outer loop
    vertex 61.24444026805853 128.29074559151505 24.999999999999943
    vertex 61.24444026805853 114.79074559151505 22.999999999999968
    vertex 61.24444026805853 114.79074559151505 24.999999999999943
  endloop
endfacet
facet normal -1.0 0.0 0.0
  outer loop
    vertex 61.24444026805853 91.29074559151476 24.999999999999943
    vertex 61.24444026805853 89.29074559151479 -0.9999999999999887
    vertex 61.24444026805853 89.29074559151479 24.999999999999943
  endloop
endfacet
facet normal -1.0 0.0 0.0
  outer loop
    vertex 61.24444026805853 89.29074559151479 -0.9999999999999887
    vertex 61.24444026805853 91.29074559151476 24.999999999999943
    vertex 61.24444026805853 104.88550835365399 8.516573968580415
  endloop
endfacet
facet normal -1.0 0.0 0.0
  outer loop
    vertex 61.24444026805853 89.29074559151479 -0.9999999999999887
    vertex 61.24444026805853 104.88550835365399 8.516573968580415
    vertex 61.24444026805851 111.25555113606444 5.614410129259307
  endloop
endfacet
facet normal -1.0 0.0 0.0
  outer loop
    vertex 61.24444026805853 89.29074559151479 -0.9999999999999887
    vertex 61.24444026805851 111.25555113606444 5.614410129259307
    vertex 61.24444026805853 128.29074559151505 -0.9999999999999887
  endloop
endfacet
facet normal -1.0 0.0 0.0
  outer loop
    vertex 61.24444026805853 104.88550835365399 8.516573968580415
    vertex 61.24444026805853 91.29074559151476 24.999999999999943
    vertex 61.24444026805853 102.29074559151505 14.027216070342527
  endloop
endfacet
facet normal -1.0 0.0 0.0
  outer loop
    vertex 61.24444026805853 102.29074559151505 14.027216070342527
    vertex 61.24444026805853 91.29074559151476 24.999999999999943
    vertex 61.24444026805853 102.29074559151505 22.027216070342526
  endloop
endfacet
facet normal -1.0 0.0 0.0
  outer loop
    vertex 61.24444026805853 128.29074559151505 -0.9999999999999887
    vertex 61.24444026805851 111.25555113606444 5.614410129259307
    vertex 61.24444026805851 112.3611694369345 8.225409675428743
  endloop
endfacet
facet normal -1.0 0.0 0.0
  outer loop
    vertex 61.24444026805853 128.29074559151505 -0.9999999999999887
    vertex 61.24444026805851 112.3611694369345 8.225409675428743
    vertex 61.24444026805853 114.29074559151503 14.027216070342527
  endloop
endfacet
facet normal -1.0 0.0 0.0
  outer loop
    vertex 61.24444026805853 128.29074559151505 -0.9999999999999887
    vertex 61.24444026805853 114.29074559151503 14.027216070342527
    vertex 61.24444026805853 114.79074559151505 22.999999999999968
  endloop
endfacet
facet normal -1.0 0.0 0.0
  outer loop
    vertex 61.24444026805853 128.29074559151505 -0.9999999999999887
    vertex 61.24444026805853 114.79074559151505 22.999999999999968
    vertex 61.24444026805853 128.29074559151505 24.999999999999943
  endloop
endfacet
facet normal -1.0 0.0 0.0
  outer loop
    vertex 61.24444026805853 107.67347926373367 9.624372779082464
    vertex 61.24444026805853 104.88550835365399 8.516573968580415
    vertex 61.24444026805853 105.68171074379565 11.867776033734618
  endloop
endfacet
facet normal -0.0 -0.0 1.0
  outer loop
    vertex 63.244440268058526 102.29074559151505 14.027216070342527
    vertex 61.24444026805853 114.29074559151503 14.027216070342527
    vertex 61.24444026805853 102.29074559151505 14.027216070342527
  endloop
endfacet
facet normal -0.0 -0.0 1.0
  outer loop
    vertex 61.24444026805853 114.29074559151503 14.027216070342527
    vertex 63.244440268058526 102.29074559151505 14.027216070342527
    vertex 63.244440268058526 114.29074559151503 14.027216070342527
  endloop
endfacet
facet normal 0.0 0.0 -1.0
  outer loop
    vertex 63.244440268058526 114.29074559151503 22.027216070342526
    vertex 61.24444026805853 102.29074559151505 22.027216070342526
    vertex 61.24444026805853 114.29074559151503 22.027216070342526
  endloop
endfacet
facet normal 0.0 0.0 -1.0
  outer loop
    vertex 61.24444026805853 102.29074559151505 22.027216070342526
    vertex 63.244440268058526 114.29074559151503 22.027216070342526
    vertex 63.244440268058526 102.29074559151505 22.027216070342526
  endloop
endfacet
facet normal -0.0 1.0 -0.0
  outer loop
    vertex 61.24444026805853 102.29074559151505 22.027216070342526
    vertex 63.244440268058526 102.29074559151505 14.027216070342527
    vertex 61.24444026805853 102.29074559151505 14.027216070342527
  endloop
endfacet
facet normal -0.0 1.0 -0.0
  outer loop
    vertex 63.244440268058526 102.29074559151505 14.027216070342527
    vertex 61.24444026805853 102.29074559151505 22.027216070342526
    vertex 63.244440268058526 102.29074559151505 22.027216070342526
  endloop
endfacet
facet normal 0.0 -1.0 0.0
  outer loop
    vertex 63.244440268058526 114.29074559151503 22.027216070342526
    vertex 61.24444026805853 114.29074559151503 14.027216070342527
    vertex 63.244440268058526 114.29074559151503 14.027216070342527
  endloop
endfacet
facet normal 0.0 -1.0 0.0
  outer loop
    vertex 61.24444026805853 114.29074559151503 14.027216070342527
    vertex 63.244440268058526 114.29074559151503 22.027216070342526
    vertex 61.24444026805853 114.29074559151503 22.027216070342526
  endloop
endfacet
facet normal 1.0 -0.0 -0.0
  outer loop
    vertex 111.74444026805853 56.50379643453944 -0.9999999999999887
    vertex 111.74444026805853 45.00379643453943 1.000000000000011
    vertex 111.74444026805853 45.00379643453943 -0.9999999999999887
  endloop
endfacet
facet normal 1.0 -0.0 -0.0
  outer loop
    vertex 111.74444026805853 45.00379643453943 1.000000000000011
    vertex 111.74444026805853 56.50379643453944 -0.9999999999999887
    vertex 111.74444026805853 56.50379643453944 1.000000000000011
  endloop
endfacet
facet normal 1.0 -0.0 -0.0
  outer loop
    vertex 111.74444026805853 56.50379643453944 1.000000000000011
    vertex 111.74444026805853 56.50379643453944 -0.9999999999999887
    vertex 111.74444026805853 56.50379643453944 1.127986593019159e-14
  endloop
endfacet
facet normal -1.0 0.0 0.0
  outer loop
    vertex 61.74444026805853 56.50379643453944 1.000000000000011
    vertex 61.74444026805853 45.00379643453943 -0.9999999999999887
    vertex 61.74444026805853 45.00379643453943 1.000000000000011
  endloop
endfacet
facet normal -1.0 0.0 0.0
  outer loop
    vertex 61.74444026805853 45.00379643453943 -0.9999999999999887
    vertex 61.74444026805853 56.50379643453944 1.000000000000011
    vertex 61.74444026805853 56.50379643453944 -0.9999999999999887
  endloop
endfacet
facet normal -1.0 0.0 0.0
  outer loop
    vertex 59.74444026805853 67.50379643453944 1.000000000000011
    vertex 59.74444026805853 56.50379643453944 -0.9999999999999887
    vertex 59.74444026805853 56.50379643453944 1.000000000000011
  endloop
endfacet
facet normal -1.0 0.0 0.0
  outer loop
    vertex 59.74444026805853 56.50379643453944 -0.9999999999999887
    vertex 59.74444026805853 67.50379643453944 1.000000000000011
    vertex 59.74444026805853 67.50379643453944 -0.9999999999999887
  endloop
endfacet
facet normal 0.0 1.0 0.0
  outer loop
    vertex 59.74444026805853 67.50379643453944 1.000000000000011
    vertex 61.74444026805853 67.50379643453944 -0.9999999999999887
    vertex 59.74444026805853 67.50379643453944 -0.9999999999999887
  endloop
endfacet
facet normal 0.0 1.0 0.0
  outer loop
    vertex 61.74444026805853 67.50379643453944 -0.9999999999999887
    vertex 59.74444026805853 67.50379643453944 1.000000000000011
    vertex 61.74444026805853 67.50379643453944 1.000000000000011
  endloop
endfacet
facet normal 0.0 -1.0 0.0
  outer loop
    vertex 61.74444026805853 56.50379643453944 1.000000000000011
    vertex 59.74444026805853 56.50379643453944 -0.9999999999999887
    vertex 61.74444026805853 56.50379643453944 -0.9999999999999887
  endloop
endfacet
facet normal 0.0 -1.0 0.0
  outer loop
    vertex 59.74444026805853 56.50379643453944 -0.9999999999999887
    vertex 61.74444026805853 56.50379643453944 1.000000000000011
    vertex 59.74444026805853 56.50379643453944 1.000000000000011
  endloop
endfacet
facet normal 1.0 -0.0 -0.0
  outer loop
    vertex 111.74444026805853 67.50379643453944 -0.9999999999999887
    vertex 111.74444026805853 56.50379643453944 1.127986593019159e-14
    vertex 111.74444026805853 56.50379643453944 -0.9999999999999887
  endloop
endfacet
facet normal 1.0 -0.0 -0.0
  outer loop
    vertex 111.74444026805853 56.50379643453944 1.127986593019159e-14
    vertex 111.74444026805853 67.50379643453944 -0.9999999999999887
    vertex 111.74444026805853 67.50379643453944 1.127986593019159e-14
  endloop
endfacet
facet normal 1.0 0.0 0.0
  outer loop
    vertex 113.74444026805853 67.50379643453944 1.127986593019159e-14
    vertex 113.74444026805853 56.50379643453944 1.000000000000011
    vertex 113.74444026805853 56.50379643453944 1.127986593019159e-14
  endloop
endfacet
facet normal 1.0 0.0 0.0
  outer loop
    vertex 113.74444026805853 56.50379643453944 1.000000000000011
    vertex 113.74444026805853 67.50379643453944 1.127986593019159e-14
    vertex 113.74444026805853 67.50379643453944 1.000000000000011
  endloop
endfacet
facet normal -0.0 -1.0 -0.0
  outer loop
    vertex 113.74444026805853 56.50379643453944 1.000000000000011
    vertex 111.74444026805853 56.50379643453944 1.127986593019159e-14
    vertex 113.74444026805853 56.50379643453944 1.127986593019159e-14
  endloop
endfacet
facet normal -0.0 -1.0 -0.0
  outer loop
    vertex 111.74444026805853 56.50379643453944 1.127986593019159e-14
    vertex 113.74444026805853 56.50379643453944 1.000000000000011
    vertex 111.74444026805853 56.50379643453944 1.000000000000011
  endloop
endfacet
facet normal 0.0 0.0 -1.0
  outer loop
    vertex 113.74444026805853 67.50379643453944 1.127986593019159e-14
    vertex 111.74444026805853 56.50379643453944 1.127986593019159e-14
    vertex 111.74444026805853 67.50379643453944 1.127986593019159e-14
  endloop
endfacet
facet normal 0.0 0.0 -1.0
  outer loop
    vertex 111.74444026805853 56.50379643453944 1.127986593019159e-14
    vertex 113.74444026805853 67.50379643453944 1.127986593019159e-14
    vertex 113.74444026805853 56.50379643453944 1.127986593019159e-14
  endloop
endfacet
facet normal 0.0 1.0 -0.0
  outer loop
    vertex 111.74444026805853 67.50379643453944 1.000000000000011
    vertex 113.74444026805853 67.50379643453944 1.127986593019159e-14
    vertex 111.74444026805853 67.50379643453944 1.127986593019159e-14
  endloop
endfacet
facet normal 0.0 1.0 -0.0
  outer loop
    vertex 113.74444026805853 67.50379643453944 1.127986593019159e-14
    vertex 111.74444026805853 67.50379643453944 1.000000000000011
    vertex 113.74444026805853 67.50379643453944 1.000000000000011
  endloop
endfacet
endsolid CASELIPO
