solid Untitled-5d484881
facet normal 1.4343968029309766e-15 1.0 2.1089048233568552e-14
  outer loop
    vertex 469.07391090930014 1467.7599396802134 3.0
    vertex 521.0739109093001 1467.7599396802134 0.0
    vertex 469.07391090930014 1467.7599396802134 0.0
  endloop
endfacet
facet normal 1.4343968029309766e-15 1.0 2.1089048233568552e-14
  outer loop
    vertex 521.0739109093001 1467.7599396802134 0.0
    vertex 469.07391090930014 1467.7599396802134 3.0
    vertex 521.0739109093001 1467.7599396802134 3.0
  endloop
endfacet
facet normal 1.4343968029309766e-15 1.0 2.1089048233568552e-14
  outer loop
    vertex 521.0739109093001 1467.7599396802134 3.0
    vertex 469.07391090930014 1467.7599396802134 3.0
    vertex 472.32391090930014 1467.7599396802134 3.0
  endloop
endfacet
facet normal 1.4343968029309766e-15 1.0 2.1089048233568552e-14
  outer loop
    vertex 521.0739109093001 1467.7599396802134 3.0
    vertex 472.32391090930014 1467.7599396802134 3.0
    vertex 478.8239109093001 1467.7599396802134 3.0
  endloop
endfacet
facet normal 1.4343968029309766e-15 1.0 2.1089048233568552e-14
  outer loop
    vertex 521.0739109093001 1467.7599396802134 3.0
    vertex 478.8239109093001 1467.7599396802134 3.0
    vertex 504.82391090930014 1467.7599396802132 3.0
  endloop
endfacet
facet normal 1.4343968029309766e-15 1.0 2.1089048233568552e-14
  outer loop
    vertex 521.0739109093001 1467.7599396802134 3.0
    vertex 504.82391090930014 1467.7599396802132 3.0
    vertex 511.3239109093001 1467.7599396802132 3.0
  endloop
endfacet
facet normal 0.0 -1.0 0.0
  outer loop
    vertex 521.0739109093001 1434.7599396802134 3.0
    vertex 469.07391090930014 1434.7599396802134 0.0
    vertex 521.0739109093001 1434.7599396802134 0.0
  endloop
endfacet
facet normal 0.0 -1.0 0.0
  outer loop
    vertex 469.07391090930014 1434.7599396802134 0.0
    vertex 521.0739109093001 1434.7599396802134 3.0
    vertex 469.07391090930014 1434.7599396802134 3.0
  endloop
endfacet
facet normal 0.0 -1.0 0.0
  outer loop
    vertex 469.07391090930014 1434.7599396802134 3.0
    vertex 521.0739109093001 1434.7599396802134 3.0
    vertex 511.3239109093001 1434.7599396802134 3.0
  endloop
endfacet
facet normal 0.0 -1.0 0.0
  outer loop
    vertex 469.07391090930014 1434.7599396802134 3.0
    vertex 511.3239109093001 1434.7599396802134 3.0
    vertex 504.82391090930014 1434.7599396802134 3.0
  endloop
endfacet
facet normal 0.0 -1.0 0.0
  outer loop
    vertex 469.07391090930014 1434.7599396802134 3.0
    vertex 504.82391090930014 1434.7599396802134 3.0
    vertex 478.8239109093001 1434.7599396802134 3.0
  endloop
endfacet
facet normal 0.0 -1.0 0.0
  outer loop
    vertex 469.07391090930014 1434.7599396802134 3.0
    vertex 478.8239109093001 1434.7599396802134 3.0
    vertex 472.32391090930014 1434.7599396802134 3.0
  endloop
endfacet
facet normal 0.0 0.0 -1.0
  outer loop
    vertex 521.0739109093001 1467.7599396802134 0.0
    vertex 469.07391090930014 1457.2599396802134 0.0
    vertex 469.07391090930014 1467.7599396802134 0.0
  endloop
endfacet
facet normal 0.0 0.0 -1.0
  outer loop
    vertex 469.07391090930014 1457.2599396802134 0.0
    vertex 521.0739109093001 1467.7599396802134 0.0
    vertex 469.07391090930014 1445.2599396802134 0.0
  endloop
endfacet
facet normal 0.0 0.0 -1.0
  outer loop
    vertex 469.07391090930014 1445.2599396802134 0.0
    vertex 521.0739109093001 1467.7599396802134 0.0
    vertex 469.07391090930014 1434.7599396802134 0.0
  endloop
endfacet
facet normal 0.0 0.0 -1.0
  outer loop
    vertex 469.07391090930014 1434.7599396802134 0.0
    vertex 521.0739109093001 1467.7599396802134 0.0
    vertex 521.0739109093001 1434.7599396802134 0.0
  endloop
endfacet
facet normal 1.0 -0.0 -0.0
  outer loop
    vertex 521.0739109093001 1467.7599396802134 0.0
    vertex 521.0739109093001 1434.7599396802134 3.0
    vertex 521.0739109093001 1434.7599396802134 0.0
  endloop
endfacet
facet normal 1.0 -0.0 -0.0
  outer loop
    vertex 521.0739109093001 1434.7599396802134 3.0
    vertex 521.0739109093001 1467.7599396802134 0.0
    vertex 521.0739109093001 1437.7599396802132 3.0
  endloop
endfacet
facet normal 1.0 -0.0 -0.0
  outer loop
    vertex 521.0739109093001 1437.7599396802132 3.0
    vertex 521.0739109093001 1467.7599396802134 0.0
    vertex 521.0739109093001 1464.7599396802134 3.0
  endloop
endfacet
facet normal 1.0 -0.0 -0.0
  outer loop
    vertex 521.0739109093001 1464.7599396802134 3.0
    vertex 521.0739109093001 1467.7599396802134 0.0
    vertex 521.0739109093001 1467.7599396802134 3.0
  endloop
endfacet
facet normal -0.0 -0.0 1.0
  outer loop
    vertex 518.0739109093001 1437.7599396802132 3.0
    vertex 511.3239109093001 1464.7599396802134 3.0
    vertex 511.3239109093001 1437.7599396802132 3.0
  endloop
endfacet
facet normal -0.0 -0.0 1.0
  outer loop
    vertex 511.3239109093001 1464.7599396802134 3.0
    vertex 518.0739109093001 1437.7599396802132 3.0
    vertex 518.0739109093001 1464.7599396802134 3.0
  endloop
endfacet
facet normal -0.0 -0.0 1.0
  outer loop
    vertex 504.82391090930014 1437.7599396802132 3.0
    vertex 478.8239109093001 1464.7599396802134 3.0
    vertex 478.8239109093001 1437.7599396802132 3.0
  endloop
endfacet
facet normal -0.0 -0.0 1.0
  outer loop
    vertex 478.8239109093001 1464.7599396802134 3.0
    vertex 504.82391090930014 1437.7599396802132 3.0
    vertex 504.82391090930014 1464.7599396802134 3.0
  endloop
endfacet
facet normal -0.0 -0.0 1.0
  outer loop
    vertex 504.82391090930014 1464.7599396802134 3.0
    vertex 504.82391090930014 1437.7599396802132 3.0
    vertex 511.3239109093001 1437.7599396802132 3.0
  endloop
endfacet
facet normal -0.0 -0.0 1.0
  outer loop
    vertex 504.82391090930014 1464.7599396802134 3.0
    vertex 511.3239109093001 1437.7599396802132 3.0
    vertex 504.82391090930014 1467.7599396802132 3.0
  endloop
endfacet
facet normal -0.0 -0.0 1.0
  outer loop
    vertex 504.82391090930014 1467.7599396802132 3.0
    vertex 511.3239109093001 1437.7599396802132 3.0
    vertex 511.3239109093001 1467.7599396802132 3.0
  endloop
endfacet
facet normal -0.0 -0.0 1.0
  outer loop
    vertex 511.3239109093001 1467.7599396802132 3.0
    vertex 511.3239109093001 1437.7599396802132 3.0
    vertex 511.3239109093001 1464.7599396802134 3.0
  endloop
endfacet
facet normal -0.0 -0.0 1.0
  outer loop
    vertex 472.32391090930014 1437.7599396802132 3.0
    vertex 469.07391090930014 1445.2599396802134 3.0
    vertex 469.07391090930014 1437.7599396802132 3.0
  endloop
endfacet
facet normal -0.0 -0.0 1.0
  outer loop
    vertex 469.07391090930014 1445.2599396802134 3.0
    vertex 472.32391090930014 1437.7599396802132 3.0
    vertex 469.07391090930014 1457.2599396802134 3.0
  endloop
endfacet
facet normal -0.0 -0.0 1.0
  outer loop
    vertex 469.07391090930014 1457.2599396802134 3.0
    vertex 472.32391090930014 1437.7599396802132 3.0
    vertex 469.07391090930014 1464.7599396802134 3.0
  endloop
endfacet
facet normal -0.0 -0.0 1.0
  outer loop
    vertex 469.07391090930014 1464.7599396802134 3.0
    vertex 472.32391090930014 1437.7599396802132 3.0
    vertex 472.32391090930014 1464.7599396802134 3.0
  endloop
endfacet
facet normal -0.0 -0.0 1.0
  outer loop
    vertex 472.32391090930014 1464.7599396802134 3.0
    vertex 472.32391090930014 1437.7599396802132 3.0
    vertex 478.8239109093001 1437.7599396802132 3.0
  endloop
endfacet
facet normal -0.0 -0.0 1.0
  outer loop
    vertex 472.32391090930014 1464.7599396802134 3.0
    vertex 478.8239109093001 1437.7599396802132 3.0
    vertex 472.32391090930014 1467.7599396802134 3.0
  endloop
endfacet
facet normal -0.0 -0.0 1.0
  outer loop
    vertex 472.32391090930014 1467.7599396802134 3.0
    vertex 478.8239109093001 1437.7599396802132 3.0
    vertex 478.8239109093001 1467.7599396802134 3.0
  endloop
endfacet
facet normal -0.0 -0.0 1.0
  outer loop
    vertex 478.8239109093001 1467.7599396802134 3.0
    vertex 478.8239109093001 1437.7599396802132 3.0
    vertex 478.8239109093001 1464.7599396802134 3.0
  endloop
endfacet
facet normal 1.5803166466294463e-15 1.0 -5.824438795441778e-15
  outer loop
    vertex 466.0739109093001 1467.7599396802134 12.999999999999998
    vertex 469.07391090930014 1467.7599396802134 3.0
    vertex 466.0739109093001 1467.7599396802134 3.0
  endloop
endfacet
facet normal 1.5803166466294463e-15 1.0 -5.824438795441778e-15
  outer loop
    vertex 469.07391090930014 1467.7599396802134 3.0
    vertex 466.0739109093001 1467.7599396802134 12.999999999999998
    vertex 472.32391090930014 1467.7599396802134 3.0
  endloop
endfacet
facet normal 1.5803166466294463e-15 1.0 -5.824438795441778e-15
  outer loop
    vertex 472.32391090930014 1467.7599396802134 3.0
    vertex 466.0739109093001 1467.7599396802134 12.999999999999998
    vertex 472.32391090930014 1467.7599396802134 4.999999999999999
  endloop
endfacet
facet normal 1.5803166466294463e-15 1.0 -5.824438795441778e-15
  outer loop
    vertex 472.32391090930014 1467.7599396802134 4.999999999999999
    vertex 466.0739109093001 1467.7599396802134 12.999999999999998
    vertex 478.8239109093001 1467.7599396802134 4.999999999999999
  endloop
endfacet
facet normal 1.5803166466294463e-15 1.0 -5.824438795441778e-15
  outer loop
    vertex 478.8239109093001 1467.7599396802134 4.999999999999999
    vertex 466.0739109093001 1467.7599396802134 12.999999999999998
    vertex 504.82391090930014 1467.7599396802132 4.999999999999999
  endloop
endfacet
facet normal 1.5803166466294463e-15 1.0 -5.824438795441778e-15
  outer loop
    vertex 504.82391090930014 1467.7599396802132 4.999999999999999
    vertex 466.0739109093001 1467.7599396802134 12.999999999999998
    vertex 511.3239109093001 1467.7599396802132 4.999999999999999
  endloop
endfacet
facet normal 1.5803166466294463e-15 1.0 -5.824438795441778e-15
  outer loop
    vertex 511.3239109093001 1467.7599396802132 4.999999999999999
    vertex 521.0739109093001 1467.7599396802134 3.0
    vertex 511.3239109093001 1467.7599396802132 3.0
  endloop
endfacet
facet normal 1.5803166466294463e-15 1.0 -5.824438795441778e-15
  outer loop
    vertex 521.0739109093001 1467.7599396802134 3.0
    vertex 511.3239109093001 1467.7599396802132 4.999999999999999
    vertex 521.0739109093001 1467.7599396802134 12.999999999999998
  endloop
endfacet
facet normal 1.5803166466294463e-15 1.0 -5.824438795441778e-15
  outer loop
    vertex 521.0739109093001 1467.7599396802134 12.999999999999998
    vertex 511.3239109093001 1467.7599396802132 4.999999999999999
    vertex 466.0739109093001 1467.7599396802134 12.999999999999998
  endloop
endfacet
facet normal 1.5803166466294463e-15 1.0 -5.824438795441778e-15
  outer loop
    vertex 478.8239109093001 1467.7599396802134 4.999999999999999
    vertex 504.82391090930014 1467.7599396802132 3.0
    vertex 478.8239109093001 1467.7599396802134 3.0
  endloop
endfacet
facet normal 1.5803166466294463e-15 1.0 -5.824438795441778e-15
  outer loop
    vertex 504.82391090930014 1467.7599396802132 3.0
    vertex 478.8239109093001 1467.7599396802134 4.999999999999999
    vertex 504.82391090930014 1467.7599396802132 4.999999999999999
  endloop
endfacet
facet normal 1.0272051343920792e-32 -1.0 -2.534720383856488e-30
  outer loop
    vertex 518.0739109093001 1464.7599396802134 12.999999999999998
    vertex 511.3239109093001 1464.7599396802134 3.0
    vertex 518.0739109093001 1464.7599396802134 3.0
  endloop
endfacet
facet normal 1.0272051343920792e-32 -1.0 -2.534720383856488e-30
  outer loop
    vertex 511.3239109093001 1464.7599396802134 3.0
    vertex 518.0739109093001 1464.7599396802134 12.999999999999998
    vertex 511.3239109093001 1464.7599396802134 4.999999999999999
  endloop
endfacet
facet normal 1.0272051343920792e-32 -1.0 -2.534720383856488e-30
  outer loop
    vertex 511.3239109093001 1464.7599396802134 4.999999999999999
    vertex 518.0739109093001 1464.7599396802134 12.999999999999998
    vertex 504.82391090930014 1464.7599396802134 4.999999999999999
  endloop
endfacet
facet normal 1.0272051343920792e-32 -1.0 -2.534720383856488e-30
  outer loop
    vertex 504.82391090930014 1464.7599396802134 4.999999999999999
    vertex 518.0739109093001 1464.7599396802134 12.999999999999998
    vertex 478.8239109093001 1464.7599396802134 4.999999999999999
  endloop
endfacet
facet normal 1.0272051343920792e-32 -1.0 -2.534720383856488e-30
  outer loop
    vertex 478.8239109093001 1464.7599396802134 4.999999999999999
    vertex 518.0739109093001 1464.7599396802134 12.999999999999998
    vertex 472.32391090930014 1464.7599396802134 4.999999999999999
  endloop
endfacet
facet normal 1.0272051343920792e-32 -1.0 -2.534720383856488e-30
  outer loop
    vertex 472.32391090930014 1464.7599396802134 4.999999999999999
    vertex 469.07391090930014 1464.7599396802134 3.0
    vertex 472.32391090930014 1464.7599396802134 3.0
  endloop
endfacet
facet normal 1.0272051343920792e-32 -1.0 -2.534720383856488e-30
  outer loop
    vertex 469.07391090930014 1464.7599396802134 3.0
    vertex 472.32391090930014 1464.7599396802134 4.999999999999999
    vertex 469.0739109093002 1464.7599396802134 12.999999999999998
  endloop
endfacet
facet normal 1.0272051343920792e-32 -1.0 -2.534720383856488e-30
  outer loop
    vertex 469.0739109093002 1464.7599396802134 12.999999999999998
    vertex 472.32391090930014 1464.7599396802134 4.999999999999999
    vertex 518.0739109093001 1464.7599396802134 12.999999999999998
  endloop
endfacet
facet normal 1.0272051343920792e-32 -1.0 -2.534720383856488e-30
  outer loop
    vertex 504.82391090930014 1464.7599396802134 4.999999999999999
    vertex 478.8239109093001 1464.7599396802134 3.0
    vertex 504.82391090930014 1464.7599396802134 3.0
  endloop
endfacet
facet normal 1.0272051343920792e-32 -1.0 -2.534720383856488e-30
  outer loop
    vertex 478.8239109093001 1464.7599396802134 3.0
    vertex 504.82391090930014 1464.7599396802134 4.999999999999999
    vertex 478.8239109093001 1464.7599396802134 4.999999999999999
  endloop
endfacet
facet normal 1.0 -0.0 -0.0
  outer loop
    vertex 521.0739109093001 1467.7599396802134 3.0
    vertex 521.0739109093001 1464.7599396802134 12.999999999999998
    vertex 521.0739109093001 1464.7599396802134 3.0
  endloop
endfacet
facet normal 1.0 -0.0 -0.0
  outer loop
    vertex 521.0739109093001 1464.7599396802134 12.999999999999998
    vertex 521.0739109093001 1467.7599396802134 3.0
    vertex 521.0739109093001 1467.7599396802134 12.999999999999998
  endloop
endfacet
facet normal -0.0 -0.0 1.0
  outer loop
    vertex 518.0739109093001 1464.7599396802134 3.0
    vertex 511.3239109093001 1467.7599396802132 3.0
    vertex 511.3239109093001 1464.7599396802134 3.0
  endloop
endfacet
facet normal -0.0 -0.0 1.0
  outer loop
    vertex 511.3239109093001 1467.7599396802132 3.0
    vertex 518.0739109093001 1464.7599396802134 3.0
    vertex 521.0739109093001 1467.7599396802134 3.0
  endloop
endfacet
facet normal -0.0 -0.0 1.0
  outer loop
    vertex 521.0739109093001 1467.7599396802134 3.0
    vertex 518.0739109093001 1464.7599396802134 3.0
    vertex 521.0739109093001 1464.7599396802134 3.0
  endloop
endfacet
facet normal -1.0 0.0 0.0
  outer loop
    vertex 466.0739109093001 1467.7599396802134 12.999999999999998
    vertex 466.0739109093001 1464.7599396802134 3.0
    vertex 466.0739109093001 1464.7599396802134 12.999999999999998
  endloop
endfacet
facet normal -1.0 0.0 0.0
  outer loop
    vertex 466.0739109093001 1464.7599396802134 3.0
    vertex 466.0739109093001 1467.7599396802134 12.999999999999998
    vertex 466.0739109093001 1467.7599396802134 3.0
  endloop
endfacet
facet normal -0.0 -0.0 1.0
  outer loop
    vertex 469.0739109093002 1464.7599396802134 12.999999999999998
    vertex 466.0739109093001 1467.7599396802134 12.999999999999998
    vertex 466.0739109093001 1464.7599396802134 12.999999999999998
  endloop
endfacet
facet normal -0.0 -0.0 1.0
  outer loop
    vertex 466.0739109093001 1467.7599396802134 12.999999999999998
    vertex 469.0739109093002 1464.7599396802134 12.999999999999998
    vertex 521.0739109093001 1467.7599396802134 12.999999999999998
  endloop
endfacet
facet normal -0.0 -0.0 1.0
  outer loop
    vertex 521.0739109093001 1467.7599396802134 12.999999999999998
    vertex 469.0739109093002 1464.7599396802134 12.999999999999998
    vertex 518.0739109093001 1464.7599396802134 12.999999999999998
  endloop
endfacet
facet normal -0.0 -0.0 1.0
  outer loop
    vertex 521.0739109093001 1467.7599396802134 12.999999999999998
    vertex 518.0739109093001 1464.7599396802134 12.999999999999998
    vertex 521.0739109093001 1464.7599396802134 12.999999999999998
  endloop
endfacet
facet normal -0.0 1.0 -0.0
  outer loop
    vertex 469.0739109093002 1437.7599396802132 12.999999999999998
    vertex 472.32391090930014 1437.7599396802132 3.0
    vertex 469.07391090930014 1437.7599396802132 3.0
  endloop
endfacet
facet normal -0.0 1.0 -0.0
  outer loop
    vertex 472.32391090930014 1437.7599396802132 3.0
    vertex 469.0739109093002 1437.7599396802132 12.999999999999998
    vertex 472.32391090930014 1437.7599396802132 4.999999999999999
  endloop
endfacet
facet normal -0.0 1.0 -0.0
  outer loop
    vertex 472.32391090930014 1437.7599396802132 4.999999999999999
    vertex 469.0739109093002 1437.7599396802132 12.999999999999998
    vertex 478.8239109093001 1437.7599396802132 4.999999999999999
  endloop
endfacet
facet normal -0.0 1.0 -0.0
  outer loop
    vertex 478.8239109093001 1437.7599396802132 4.999999999999999
    vertex 469.0739109093002 1437.7599396802132 12.999999999999998
    vertex 504.82391090930014 1437.7599396802132 4.999999999999999
  endloop
endfacet
facet normal -0.0 1.0 -0.0
  outer loop
    vertex 504.82391090930014 1437.7599396802132 4.999999999999999
    vertex 469.0739109093002 1437.7599396802132 12.999999999999998
    vertex 511.3239109093001 1437.7599396802132 4.999999999999999
  endloop
endfacet
facet normal -0.0 1.0 -0.0
  outer loop
    vertex 511.3239109093001 1437.7599396802132 4.999999999999999
    vertex 518.0739109093001 1437.7599396802132 3.0
    vertex 511.3239109093001 1437.7599396802132 3.0
  endloop
endfacet
facet normal -0.0 1.0 -0.0
  outer loop
    vertex 518.0739109093001 1437.7599396802132 3.0
    vertex 511.3239109093001 1437.7599396802132 4.999999999999999
    vertex 518.0739109093001 1437.7599396802132 12.999999999999998
  endloop
endfacet
facet normal -0.0 1.0 -0.0
  outer loop
    vertex 518.0739109093001 1437.7599396802132 12.999999999999998
    vertex 511.3239109093001 1437.7599396802132 4.999999999999999
    vertex 469.0739109093002 1437.7599396802132 12.999999999999998
  endloop
endfacet
facet normal -0.0 1.0 -0.0
  outer loop
    vertex 478.8239109093001 1437.7599396802132 4.999999999999999
    vertex 504.82391090930014 1437.7599396802132 3.0
    vertex 478.8239109093001 1437.7599396802132 3.0
  endloop
endfacet
facet normal -0.0 1.0 -0.0
  outer loop
    vertex 504.82391090930014 1437.7599396802132 3.0
    vertex 478.8239109093001 1437.7599396802132 4.999999999999999
    vertex 504.82391090930014 1437.7599396802132 4.999999999999999
  endloop
endfacet
facet normal 1.0 -0.0 -0.0
  outer loop
    vertex 521.0739109093001 1437.7599396802132 3.0
    vertex 521.0739109093001 1434.7599396802134 12.999999999999998
    vertex 521.0739109093001 1434.7599396802134 3.0
  endloop
endfacet
facet normal 1.0 -0.0 -0.0
  outer loop
    vertex 521.0739109093001 1434.7599396802134 12.999999999999998
    vertex 521.0739109093001 1437.7599396802132 3.0
    vertex 521.0739109093001 1437.7599396802132 12.999999999999998
  endloop
endfacet
facet normal -0.0 -0.0 1.0
  outer loop
    vertex 521.0739109093001 1434.7599396802134 12.999999999999998
    vertex 466.0739109093001 1437.7599396802132 12.999999999999998
    vertex 466.0739109093001 1434.7599396802134 12.999999999999998
  endloop
endfacet
facet normal -0.0 -0.0 1.0
  outer loop
    vertex 466.0739109093001 1437.7599396802132 12.999999999999998
    vertex 521.0739109093001 1434.7599396802134 12.999999999999998
    vertex 469.0739109093002 1437.7599396802132 12.999999999999998
  endloop
endfacet
facet normal -0.0 -0.0 1.0
  outer loop
    vertex 469.0739109093002 1437.7599396802132 12.999999999999998
    vertex 521.0739109093001 1434.7599396802134 12.999999999999998
    vertex 518.0739109093001 1437.7599396802132 12.999999999999998
  endloop
endfacet
facet normal -0.0 -0.0 1.0
  outer loop
    vertex 518.0739109093001 1437.7599396802132 12.999999999999998
    vertex 521.0739109093001 1434.7599396802134 12.999999999999998
    vertex 521.0739109093001 1437.7599396802132 12.999999999999998
  endloop
endfacet
facet normal 1.0 -0.0 -0.0
  outer loop
    vertex 521.0739109093001 1464.7599396802134 3.0
    vertex 521.0739109093001 1437.7599396802132 12.999999999999998
    vertex 521.0739109093001 1437.7599396802132 3.0
  endloop
endfacet
facet normal 1.0 -0.0 -0.0
  outer loop
    vertex 521.0739109093001 1437.7599396802132 12.999999999999998
    vertex 521.0739109093001 1464.7599396802134 3.0
    vertex 521.0739109093001 1464.7599396802134 12.999999999999998
  endloop
endfacet
facet normal -1.0 0.0 0.0
  outer loop
    vertex 518.0739109093001 1464.7599396802134 12.999999999999998
    vertex 518.0739109093001 1437.7599396802132 3.0
    vertex 518.0739109093001 1437.7599396802132 12.999999999999998
  endloop
endfacet
facet normal -1.0 0.0 0.0
  outer loop
    vertex 518.0739109093001 1437.7599396802132 3.0
    vertex 518.0739109093001 1464.7599396802134 12.999999999999998
    vertex 518.0739109093001 1464.7599396802134 3.0
  endloop
endfacet
facet normal -0.0 -0.0 1.0
  outer loop
    vertex 521.0739109093001 1437.7599396802132 12.999999999999998
    vertex 518.0739109093001 1464.7599396802134 12.999999999999998
    vertex 518.0739109093001 1437.7599396802132 12.999999999999998
  endloop
endfacet
facet normal -0.0 -0.0 1.0
  outer loop
    vertex 518.0739109093001 1464.7599396802134 12.999999999999998
    vertex 521.0739109093001 1437.7599396802132 12.999999999999998
    vertex 521.0739109093001 1464.7599396802134 12.999999999999998
  endloop
endfacet
facet normal -0.0 1.0 -0.0
  outer loop
    vertex 518.0739109093001 1437.7599396802132 12.999999999999998
    vertex 521.0739109093001 1437.7599396802132 3.0
    vertex 518.0739109093001 1437.7599396802132 3.0
  endloop
endfacet
facet normal -0.0 1.0 -0.0
  outer loop
    vertex 521.0739109093001 1437.7599396802132 3.0
    vertex 518.0739109093001 1437.7599396802132 12.999999999999998
    vertex 521.0739109093001 1437.7599396802132 12.999999999999998
  endloop
endfacet
facet normal -0.0 -0.0 1.0
  outer loop
    vertex 521.0739109093001 1437.7599396802132 3.0
    vertex 518.0739109093001 1464.7599396802134 3.0
    vertex 518.0739109093001 1437.7599396802132 3.0
  endloop
endfacet
facet normal -0.0 -0.0 1.0
  outer loop
    vertex 518.0739109093001 1464.7599396802134 3.0
    vertex 521.0739109093001 1437.7599396802132 3.0
    vertex 521.0739109093001 1464.7599396802134 3.0
  endloop
endfacet
facet normal 0.0 -1.0 0.0
  outer loop
    vertex 521.0739109093001 1464.7599396802134 12.999999999999998
    vertex 518.0739109093001 1464.7599396802134 3.0
    vertex 521.0739109093001 1464.7599396802134 3.0
  endloop
endfacet
facet normal 0.0 -1.0 0.0
  outer loop
    vertex 518.0739109093001 1464.7599396802134 3.0
    vertex 521.0739109093001 1464.7599396802134 12.999999999999998
    vertex 518.0739109093001 1464.7599396802134 12.999999999999998
  endloop
endfacet
facet normal -1.0 0.0 0.0
  outer loop
    vertex 469.07391090930014 1457.2599396802134 3.0
    vertex 469.07391090930014 1445.2599396802134 0.0
    vertex 469.07391090930014 1445.2599396802134 3.0
  endloop
endfacet
facet normal -1.0 0.0 0.0
  outer loop
    vertex 469.07391090930014 1445.2599396802134 0.0
    vertex 469.07391090930014 1457.2599396802134 3.0
    vertex 469.07391090930014 1457.2599396802134 0.0
  endloop
endfacet
facet normal -0.0 -0.0 1.0
  outer loop
    vertex 469.07391090930014 1434.7599396802134 3.0
    vertex 466.0739109093001 1437.7599396802132 3.0
    vertex 466.0739109093001 1434.7599396802134 3.0
  endloop
endfacet
facet normal -0.0 -0.0 1.0
  outer loop
    vertex 466.0739109093001 1437.7599396802132 3.0
    vertex 469.07391090930014 1434.7599396802134 3.0
    vertex 469.07391090930014 1437.7599396802132 3.0
  endloop
endfacet
facet normal -0.0 -0.0 1.0
  outer loop
    vertex 469.07391090930014 1464.7599396802134 3.0
    vertex 466.0739109093001 1467.7599396802134 3.0
    vertex 466.0739109093001 1464.7599396802134 3.0
  endloop
endfacet
facet normal -0.0 -0.0 1.0
  outer loop
    vertex 466.0739109093001 1467.7599396802134 3.0
    vertex 469.07391090930014 1464.7599396802134 3.0
    vertex 469.07391090930014 1467.7599396802134 3.0
  endloop
endfacet
facet normal -0.0 1.0 -0.0
  outer loop
    vertex 466.0739109093001 1467.7599396802134 3.0
    vertex 469.07391090930014 1467.7599396802134 0.0
    vertex 466.0739109093001 1467.7599396802134 0.0
  endloop
endfacet
facet normal -0.0 1.0 -0.0
  outer loop
    vertex 469.07391090930014 1467.7599396802134 0.0
    vertex 466.0739109093001 1467.7599396802134 3.0
    vertex 469.07391090930014 1467.7599396802134 3.0
  endloop
endfacet
facet normal 0.0 -1.0 0.0
  outer loop
    vertex 469.07391090930014 1434.7599396802134 3.0
    vertex 466.0739109093001 1434.7599396802134 0.0
    vertex 469.07391090930014 1434.7599396802134 0.0
  endloop
endfacet
facet normal 0.0 -1.0 0.0
  outer loop
    vertex 466.0739109093001 1434.7599396802134 0.0
    vertex 469.07391090930014 1434.7599396802134 3.0
    vertex 466.0739109093001 1434.7599396802134 3.0
  endloop
endfacet
facet normal 0.0 -1.0 0.0
  outer loop
    vertex 469.07391090930014 1457.2599396802134 3.0
    vertex 466.0739109093001 1457.2599396802134 0.0
    vertex 469.07391090930014 1457.2599396802134 0.0
  endloop
endfacet
facet normal 0.0 -1.0 0.0
  outer loop
    vertex 466.0739109093001 1457.2599396802134 0.0
    vertex 469.07391090930014 1457.2599396802134 3.0
    vertex 466.0739109093001 1457.2599396802134 3.0
  endloop
endfacet
facet normal -1.0 0.0 0.0
  outer loop
    vertex 466.0739109093001 1464.7599396802134 3.0
    vertex 466.0739109093001 1457.2599396802134 0.0
    vertex 466.0739109093001 1457.2599396802134 3.0
  endloop
endfacet
facet normal -1.0 0.0 0.0
  outer loop
    vertex 466.0739109093001 1457.2599396802134 0.0
    vertex 466.0739109093001 1464.7599396802134 3.0
    vertex 466.0739109093001 1467.7599396802134 0.0
  endloop
endfacet
facet normal -1.0 0.0 0.0
  outer loop
    vertex 466.0739109093001 1467.7599396802134 0.0
    vertex 466.0739109093001 1464.7599396802134 3.0
    vertex 466.0739109093001 1467.7599396802134 3.0
  endloop
endfacet
facet normal -0.0 -0.0 1.0
  outer loop
    vertex 469.07391090930014 1457.2599396802134 3.0
    vertex 466.0739109093001 1464.7599396802134 3.0
    vertex 466.0739109093001 1457.2599396802134 3.0
  endloop
endfacet
facet normal -0.0 -0.0 1.0
  outer loop
    vertex 466.0739109093001 1464.7599396802134 3.0
    vertex 469.07391090930014 1457.2599396802134 3.0
    vertex 469.07391090930014 1464.7599396802134 3.0
  endloop
endfacet
facet normal -1.0 0.0 0.0
  outer loop
    vertex 469.07391090930014 1464.7599396802134 3.0
    vertex 469.07391090930014 1457.2599396802134 0.0
    vertex 469.07391090930014 1457.2599396802134 3.0
  endloop
endfacet
facet normal -1.0 0.0 0.0
  outer loop
    vertex 469.07391090930014 1457.2599396802134 0.0
    vertex 469.07391090930014 1464.7599396802134 3.0
    vertex 469.07391090930014 1467.7599396802134 0.0
  endloop
endfacet
facet normal -1.0 0.0 0.0
  outer loop
    vertex 469.07391090930014 1467.7599396802134 0.0
    vertex 469.07391090930014 1464.7599396802134 3.0
    vertex 469.07391090930014 1467.7599396802134 3.0
  endloop
endfacet
facet normal 0.0 0.0 -1.0
  outer loop
    vertex 469.07391090930014 1467.7599396802134 0.0
    vertex 466.0739109093001 1457.2599396802134 0.0
    vertex 466.0739109093001 1467.7599396802134 0.0
  endloop
endfacet
facet normal 0.0 0.0 -1.0
  outer loop
    vertex 466.0739109093001 1457.2599396802134 0.0
    vertex 469.07391090930014 1467.7599396802134 0.0
    vertex 469.07391090930014 1457.2599396802134 0.0
  endloop
endfacet
facet normal -1.0 0.0 0.0
  outer loop
    vertex 466.0739109093001 1437.7599396802132 12.999999999999998
    vertex 466.0739109093001 1434.7599396802134 3.0
    vertex 466.0739109093001 1434.7599396802134 12.999999999999998
  endloop
endfacet
facet normal -1.0 0.0 0.0
  outer loop
    vertex 466.0739109093001 1434.7599396802134 3.0
    vertex 466.0739109093001 1437.7599396802132 12.999999999999998
    vertex 466.0739109093001 1437.7599396802132 3.0
  endloop
endfacet
facet normal -0.0 1.0 -0.0
  outer loop
    vertex 466.0739109093001 1445.2599396802134 3.0
    vertex 469.07391090930014 1445.2599396802134 0.0
    vertex 466.0739109093001 1445.2599396802134 0.0
  endloop
endfacet
facet normal -0.0 1.0 -0.0
  outer loop
    vertex 469.07391090930014 1445.2599396802134 0.0
    vertex 466.0739109093001 1445.2599396802134 3.0
    vertex 469.07391090930014 1445.2599396802134 3.0
  endloop
endfacet
facet normal -1.0 0.0 0.0
  outer loop
    vertex 466.0739109093001 1437.7599396802132 3.0
    vertex 466.0739109093001 1434.7599396802134 0.0
    vertex 466.0739109093001 1434.7599396802134 3.0
  endloop
endfacet
facet normal -1.0 0.0 0.0
  outer loop
    vertex 466.0739109093001 1434.7599396802134 0.0
    vertex 466.0739109093001 1437.7599396802132 3.0
    vertex 466.0739109093001 1445.2599396802134 0.0
  endloop
endfacet
facet normal -1.0 0.0 0.0
  outer loop
    vertex 466.0739109093001 1445.2599396802134 0.0
    vertex 466.0739109093001 1437.7599396802132 3.0
    vertex 466.0739109093001 1445.2599396802134 3.0
  endloop
endfacet
facet normal 0.0 0.0 -1.0
  outer loop
    vertex 469.07391090930014 1445.2599396802134 0.0
    vertex 466.0739109093001 1434.7599396802134 0.0
    vertex 466.0739109093001 1445.2599396802134 0.0
  endloop
endfacet
facet normal 0.0 0.0 -1.0
  outer loop
    vertex 466.0739109093001 1434.7599396802134 0.0
    vertex 469.07391090930014 1445.2599396802134 0.0
    vertex 469.07391090930014 1434.7599396802134 0.0
  endloop
endfacet
facet normal -1.0 0.0 0.0
  outer loop
    vertex 469.07391090930014 1437.7599396802132 3.0
    vertex 469.07391090930014 1434.7599396802134 0.0
    vertex 469.07391090930014 1434.7599396802134 3.0
  endloop
endfacet
facet normal -1.0 0.0 0.0
  outer loop
    vertex 469.07391090930014 1434.7599396802134 0.0
    vertex 469.07391090930014 1437.7599396802132 3.0
    vertex 469.07391090930014 1445.2599396802134 0.0
  endloop
endfacet
facet normal -1.0 0.0 0.0
  outer loop
    vertex 469.07391090930014 1445.2599396802134 0.0
    vertex 469.07391090930014 1437.7599396802132 3.0
    vertex 469.07391090930014 1445.2599396802134 3.0
  endloop
endfacet
facet normal -0.0 -0.0 1.0
  outer loop
    vertex 469.07391090930014 1437.7599396802132 3.0
    vertex 466.0739109093001 1445.2599396802134 3.0
    vertex 466.0739109093001 1437.7599396802132 3.0
  endloop
endfacet
facet normal -0.0 -0.0 1.0
  outer loop
    vertex 466.0739109093001 1445.2599396802134 3.0
    vertex 469.07391090930014 1437.7599396802132 3.0
    vertex 469.07391090930014 1445.2599396802134 3.0
  endloop
endfacet
facet normal -1.0 0.0 0.0
  outer loop
    vertex 466.0739109093001 1464.7599396802134 12.999999999999998
    vertex 466.0739109093001 1457.2599396802134 7.999999999999999
    vertex 466.0739109093001 1457.2599396802134 12.999999999999998
  endloop
endfacet
facet normal -1.0 0.0 0.0
  outer loop
    vertex 466.0739109093001 1457.2599396802134 7.999999999999999
    vertex 466.0739109093001 1464.7599396802134 12.999999999999998
    vertex 466.0739109093001 1457.2599396802134 3.0
  endloop
endfacet
facet normal -1.0 0.0 0.0
  outer loop
    vertex 466.0739109093001 1457.2599396802134 3.0
    vertex 466.0739109093001 1464.7599396802134 12.999999999999998
    vertex 466.0739109093001 1464.7599396802134 3.0
  endloop
endfacet
facet normal -1.0 0.0 0.0
  outer loop
    vertex 466.0739109093001 1445.2599396802134 12.999999999999998
    vertex 466.0739109093001 1437.7599396802132 3.0
    vertex 466.0739109093001 1437.7599396802132 12.999999999999998
  endloop
endfacet
facet normal -1.0 0.0 0.0
  outer loop
    vertex 466.0739109093001 1437.7599396802132 3.0
    vertex 466.0739109093001 1445.2599396802134 12.999999999999998
    vertex 466.0739109093001 1445.2599396802134 3.0
  endloop
endfacet
facet normal -1.0 0.0 0.0
  outer loop
    vertex 466.0739109093001 1445.2599396802134 3.0
    vertex 466.0739109093001 1445.2599396802134 12.999999999999998
    vertex 466.0739109093001 1445.2599396802134 7.999999999999999
  endloop
endfacet
facet normal 1.0 2.0053094987007484e-15 -9.023892744153274e-15
  outer loop
    vertex 469.07391090930014 1464.7599396802134 3.0
    vertex 469.0739109093002 1457.2599396802134 7.999999999999999
    vertex 469.07391090930014 1457.2599396802134 3.0
  endloop
endfacet
facet normal 1.0 2.0053094987007484e-15 -9.023892744153274e-15
  outer loop
    vertex 469.0739109093002 1457.2599396802134 7.999999999999999
    vertex 469.07391090930014 1464.7599396802134 3.0
    vertex 469.0739109093002 1457.2599396802134 12.999999999999998
  endloop
endfacet
facet normal 1.0 2.0053094987007484e-15 -9.023892744153274e-15
  outer loop
    vertex 469.0739109093002 1457.2599396802134 12.999999999999998
    vertex 469.07391090930014 1464.7599396802134 3.0
    vertex 469.0739109093002 1464.7599396802134 12.999999999999998
  endloop
endfacet
facet normal -0.0 -0.0 1.0
  outer loop
    vertex 469.0739109093002 1457.2599396802134 12.999999999999998
    vertex 466.0739109093001 1464.7599396802134 12.999999999999998
    vertex 466.0739109093001 1457.2599396802134 12.999999999999998
  endloop
endfacet
facet normal -0.0 -0.0 1.0
  outer loop
    vertex 466.0739109093001 1464.7599396802134 12.999999999999998
    vertex 469.0739109093002 1457.2599396802134 12.999999999999998
    vertex 469.0739109093002 1464.7599396802134 12.999999999999998
  endloop
endfacet
facet normal 0.0 -1.0 0.0
  outer loop
    vertex 469.0739109093002 1464.7599396802134 12.999999999999998
    vertex 466.0739109093001 1464.7599396802134 3.0
    vertex 469.07391090930014 1464.7599396802134 3.0
  endloop
endfacet
facet normal 0.0 -1.0 0.0
  outer loop
    vertex 466.0739109093001 1464.7599396802134 3.0
    vertex 469.0739109093002 1464.7599396802134 12.999999999999998
    vertex 466.0739109093001 1464.7599396802134 12.999999999999998
  endloop
endfacet
facet normal 0.0 -1.0 0.0
  outer loop
    vertex 469.0739109093002 1457.2599396802134 7.999999999999999
    vertex 466.0739109093001 1457.2599396802134 3.0
    vertex 469.07391090930014 1457.2599396802134 3.0
  endloop
endfacet
facet normal 0.0 -1.0 0.0
  outer loop
    vertex 466.0739109093001 1457.2599396802134 3.0
    vertex 469.0739109093002 1457.2599396802134 7.999999999999999
    vertex 466.0739109093001 1457.2599396802134 7.999999999999999
  endloop
endfacet
facet normal 1.0 -2.0053094987007007e-15 -9.023892744153274e-15
  outer loop
    vertex 469.07391090930014 1445.2599396802134 3.0
    vertex 469.0739109093002 1437.7599396802132 12.999999999999998
    vertex 469.07391090930014 1437.7599396802132 3.0
  endloop
endfacet
facet normal 1.0 -2.0053094987007007e-15 -9.023892744153274e-15
  outer loop
    vertex 469.0739109093002 1437.7599396802132 12.999999999999998
    vertex 469.07391090930014 1445.2599396802134 3.0
    vertex 469.0739109093002 1445.2599396802134 12.999999999999998
  endloop
endfacet
facet normal 1.0 -2.0053094987007007e-15 -9.023892744153274e-15
  outer loop
    vertex 469.0739109093002 1445.2599396802134 12.999999999999998
    vertex 469.07391090930014 1445.2599396802134 3.0
    vertex 469.0739109093002 1445.2599396802134 7.999999999999999
  endloop
endfacet
facet normal -0.0 -0.0 1.0
  outer loop
    vertex 469.0739109093002 1437.7599396802132 12.999999999999998
    vertex 466.0739109093001 1445.2599396802134 12.999999999999998
    vertex 466.0739109093001 1437.7599396802132 12.999999999999998
  endloop
endfacet
facet normal -0.0 -0.0 1.0
  outer loop
    vertex 466.0739109093001 1445.2599396802134 12.999999999999998
    vertex 469.0739109093002 1437.7599396802132 12.999999999999998
    vertex 469.0739109093002 1445.2599396802134 12.999999999999998
  endloop
endfacet
facet normal -0.0 1.0 -0.0
  outer loop
    vertex 466.0739109093001 1445.2599396802134 7.999999999999999
    vertex 469.07391090930014 1445.2599396802134 3.0
    vertex 466.0739109093001 1445.2599396802134 3.0
  endloop
endfacet
facet normal -0.0 1.0 -0.0
  outer loop
    vertex 469.07391090930014 1445.2599396802134 3.0
    vertex 466.0739109093001 1445.2599396802134 7.999999999999999
    vertex 469.0739109093002 1445.2599396802134 7.999999999999999
  endloop
endfacet
facet normal -0.0 1.0 -0.0
  outer loop
    vertex 466.0739109093001 1437.7599396802132 12.999999999999998
    vertex 469.07391090930014 1437.7599396802132 3.0
    vertex 466.0739109093001 1437.7599396802132 3.0
  endloop
endfacet
facet normal -0.0 1.0 -0.0
  outer loop
    vertex 469.07391090930014 1437.7599396802132 3.0
    vertex 466.0739109093001 1437.7599396802132 12.999999999999998
    vertex 469.0739109093002 1437.7599396802132 12.999999999999998
  endloop
endfacet
facet normal -1.0 0.0 0.0
  outer loop
    vertex 466.0739109093001 1457.2599396802134 12.999999999999998
    vertex 466.0739109093001 1445.2599396802134 7.999999999999999
    vertex 466.0739109093001 1445.2599396802134 12.999999999999998
  endloop
endfacet
facet normal -1.0 0.0 0.0
  outer loop
    vertex 466.0739109093001 1445.2599396802134 7.999999999999999
    vertex 466.0739109093001 1457.2599396802134 12.999999999999998
    vertex 466.0739109093001 1457.2599396802134 7.999999999999999
  endloop
endfacet
facet normal 1.0 -0.0 -0.0
  outer loop
    vertex 469.0739109093002 1457.2599396802134 7.999999999999999
    vertex 469.0739109093002 1445.2599396802134 12.999999999999998
    vertex 469.0739109093002 1445.2599396802134 7.999999999999999
  endloop
endfacet
facet normal 1.0 -0.0 -0.0
  outer loop
    vertex 469.0739109093002 1445.2599396802134 12.999999999999998
    vertex 469.0739109093002 1457.2599396802134 7.999999999999999
    vertex 469.0739109093002 1457.2599396802134 12.999999999999998
  endloop
endfacet
facet normal -0.0 -0.0 1.0
  outer loop
    vertex 469.0739109093002 1445.2599396802134 12.999999999999998
    vertex 466.0739109093001 1457.2599396802134 12.999999999999998
    vertex 466.0739109093001 1445.2599396802134 12.999999999999998
  endloop
endfacet
facet normal -0.0 -0.0 1.0
  outer loop
    vertex 466.0739109093001 1457.2599396802134 12.999999999999998
    vertex 469.0739109093002 1445.2599396802134 12.999999999999998
    vertex 469.0739109093002 1457.2599396802134 12.999999999999998
  endloop
endfacet
facet normal 0.0 -1.0 0.0
  outer loop
    vertex 469.0739109093002 1457.2599396802134 12.999999999999998
    vertex 466.0739109093001 1457.2599396802134 7.999999999999999
    vertex 469.0739109093002 1457.2599396802134 7.999999999999999
  endloop
endfacet
facet normal 0.0 -1.0 0.0
  outer loop
    vertex 466.0739109093001 1457.2599396802134 7.999999999999999
    vertex 469.0739109093002 1457.2599396802134 12.999999999999998
    vertex 466.0739109093001 1457.2599396802134 12.999999999999998
  endloop
endfacet
facet normal 0.0 0.0 -1.0
  outer loop
    vertex 469.0739109093002 1457.2599396802134 7.999999999999999
    vertex 466.0739109093001 1445.2599396802134 7.999999999999999
    vertex 466.0739109093001 1457.2599396802134 7.999999999999999
  endloop
endfacet
facet normal 0.0 0.0 -1.0
  outer loop
    vertex 466.0739109093001 1445.2599396802134 7.999999999999999
    vertex 469.0739109093002 1457.2599396802134 7.999999999999999
    vertex 469.0739109093002 1445.2599396802134 7.999999999999999
  endloop
endfacet
facet normal -0.0 1.0 -0.0
  outer loop
    vertex 466.0739109093001 1445.2599396802134 12.999999999999998
    vertex 469.0739109093002 1445.2599396802134 7.999999999999999
    vertex 466.0739109093001 1445.2599396802134 7.999999999999999
  endloop
endfacet
facet normal -0.0 1.0 -0.0
  outer loop
    vertex 469.0739109093002 1445.2599396802134 7.999999999999999
    vertex 466.0739109093001 1445.2599396802134 12.999999999999998
    vertex 469.0739109093002 1445.2599396802134 12.999999999999998
  endloop
endfacet
facet normal 0.0 -1.0 0.0
  outer loop
    vertex 521.0739109093001 1434.7599396802134 12.999999999999998
    vertex 511.3239109093001 1434.7599396802134 3.0
    vertex 521.0739109093001 1434.7599396802134 3.0
  endloop
endfacet
facet normal 0.0 -1.0 0.0
  outer loop
    vertex 511.3239109093001 1434.7599396802134 3.0
    vertex 521.0739109093001 1434.7599396802134 12.999999999999998
    vertex 511.3239109093001 1434.7599396802134 4.999999999999999
  endloop
endfacet
facet normal 0.0 -1.0 0.0
  outer loop
    vertex 511.3239109093001 1434.7599396802134 4.999999999999999
    vertex 521.0739109093001 1434.7599396802134 12.999999999999998
    vertex 504.82391090930014 1434.7599396802134 4.999999999999999
  endloop
endfacet
facet normal 0.0 -1.0 0.0
  outer loop
    vertex 504.82391090930014 1434.7599396802134 4.999999999999999
    vertex 521.0739109093001 1434.7599396802134 12.999999999999998
    vertex 478.8239109093001 1434.7599396802134 4.999999999999999
  endloop
endfacet
facet normal 0.0 -1.0 0.0
  outer loop
    vertex 478.8239109093001 1434.7599396802134 4.999999999999999
    vertex 521.0739109093001 1434.7599396802134 12.999999999999998
    vertex 472.32391090930014 1434.7599396802134 4.999999999999999
  endloop
endfacet
facet normal 0.0 -1.0 0.0
  outer loop
    vertex 472.32391090930014 1434.7599396802134 4.999999999999999
    vertex 469.07391090930014 1434.7599396802134 3.0
    vertex 472.32391090930014 1434.7599396802134 3.0
  endloop
endfacet
facet normal 0.0 -1.0 0.0
  outer loop
    vertex 469.07391090930014 1434.7599396802134 3.0
    vertex 472.32391090930014 1434.7599396802134 4.999999999999999
    vertex 466.0739109093001 1434.7599396802134 3.0
  endloop
endfacet
facet normal 0.0 -1.0 0.0
  outer loop
    vertex 466.0739109093001 1434.7599396802134 3.0
    vertex 472.32391090930014 1434.7599396802134 4.999999999999999
    vertex 466.0739109093001 1434.7599396802134 12.999999999999998
  endloop
endfacet
facet normal 0.0 -1.0 0.0
  outer loop
    vertex 466.0739109093001 1434.7599396802134 12.999999999999998
    vertex 472.32391090930014 1434.7599396802134 4.999999999999999
    vertex 521.0739109093001 1434.7599396802134 12.999999999999998
  endloop
endfacet
facet normal 0.0 -1.0 0.0
  outer loop
    vertex 504.82391090930014 1434.7599396802134 4.999999999999999
    vertex 478.8239109093001 1434.7599396802134 3.0
    vertex 504.82391090930014 1434.7599396802134 3.0
  endloop
endfacet
facet normal 0.0 -1.0 0.0
  outer loop
    vertex 478.8239109093001 1434.7599396802134 3.0
    vertex 504.82391090930014 1434.7599396802134 4.999999999999999
    vertex 478.8239109093001 1434.7599396802134 4.999999999999999
  endloop
endfacet
facet normal -0.0 -0.0 1.0
  outer loop
    vertex 472.32391090930014 1434.7599396802134 3.0
    vertex 469.07391090930014 1437.7599396802132 3.0
    vertex 469.07391090930014 1434.7599396802134 3.0
  endloop
endfacet
facet normal -0.0 -0.0 1.0
  outer loop
    vertex 469.07391090930014 1437.7599396802132 3.0
    vertex 472.32391090930014 1434.7599396802134 3.0
    vertex 472.32391090930014 1437.7599396802132 3.0
  endloop
endfacet
facet normal -1.0 0.0 0.0
  outer loop
    vertex 511.3239109093001 1437.7599396802132 4.999999999999999
    vertex 511.3239109093001 1434.7599396802134 3.0
    vertex 511.3239109093001 1434.7599396802134 4.999999999999999
  endloop
endfacet
facet normal -1.0 0.0 0.0
  outer loop
    vertex 511.3239109093001 1434.7599396802134 3.0
    vertex 511.3239109093001 1437.7599396802132 4.999999999999999
    vertex 511.3239109093001 1437.7599396802132 3.0
  endloop
endfacet
facet normal -0.0 -0.0 -1.0
  outer loop
    vertex 511.3239109093001 1437.7599396802132 4.999999999999999
    vertex 504.82391090930014 1434.7599396802134 4.999999999999999
    vertex 504.82391090930014 1437.7599396802132 4.999999999999999
  endloop
endfacet
facet normal -0.0 -0.0 -1.0
  outer loop
    vertex 504.82391090930014 1434.7599396802134 4.999999999999999
    vertex 511.3239109093001 1437.7599396802132 4.999999999999999
    vertex 511.3239109093001 1434.7599396802134 4.999999999999999
  endloop
endfacet
facet normal 1.0 -0.0 -0.0
  outer loop
    vertex 504.82391090930014 1437.7599396802132 3.0
    vertex 504.82391090930014 1434.7599396802134 4.999999999999999
    vertex 504.82391090930014 1434.7599396802134 3.0
  endloop
endfacet
facet normal 1.0 -0.0 -0.0
  outer loop
    vertex 504.82391090930014 1434.7599396802134 4.999999999999999
    vertex 504.82391090930014 1437.7599396802132 3.0
    vertex 504.82391090930014 1437.7599396802132 4.999999999999999
  endloop
endfacet
facet normal -0.0 -0.0 1.0
  outer loop
    vertex 511.3239109093001 1434.7599396802134 3.0
    vertex 504.82391090930014 1437.7599396802132 3.0
    vertex 504.82391090930014 1434.7599396802134 3.0
  endloop
endfacet
facet normal -0.0 -0.0 1.0
  outer loop
    vertex 504.82391090930014 1437.7599396802132 3.0
    vertex 511.3239109093001 1434.7599396802134 3.0
    vertex 511.3239109093001 1437.7599396802132 3.0
  endloop
endfacet
facet normal -0.0 -0.0 1.0
  outer loop
    vertex 521.0739109093001 1434.7599396802134 3.0
    vertex 511.3239109093001 1437.7599396802132 3.0
    vertex 511.3239109093001 1434.7599396802134 3.0
  endloop
endfacet
facet normal -0.0 -0.0 1.0
  outer loop
    vertex 511.3239109093001 1437.7599396802132 3.0
    vertex 521.0739109093001 1434.7599396802134 3.0
    vertex 518.0739109093001 1437.7599396802132 3.0
  endloop
endfacet
facet normal -0.0 -0.0 1.0
  outer loop
    vertex 518.0739109093001 1437.7599396802132 3.0
    vertex 521.0739109093001 1434.7599396802134 3.0
    vertex 521.0739109093001 1437.7599396802132 3.0
  endloop
endfacet
facet normal -1.0 0.0 0.0
  outer loop
    vertex 478.8239109093001 1437.7599396802132 4.999999999999999
    vertex 478.8239109093001 1434.7599396802134 3.0
    vertex 478.8239109093001 1434.7599396802134 4.999999999999999
  endloop
endfacet
facet normal -1.0 0.0 0.0
  outer loop
    vertex 478.8239109093001 1434.7599396802134 3.0
    vertex 478.8239109093001 1437.7599396802132 4.999999999999999
    vertex 478.8239109093001 1437.7599396802132 3.0
  endloop
endfacet
facet normal -0.0 -0.0 -1.0
  outer loop
    vertex 478.8239109093001 1437.7599396802132 4.999999999999999
    vertex 472.32391090930014 1434.7599396802134 4.999999999999999
    vertex 472.32391090930014 1437.7599396802132 4.999999999999999
  endloop
endfacet
facet normal -0.0 -0.0 -1.0
  outer loop
    vertex 472.32391090930014 1434.7599396802134 4.999999999999999
    vertex 478.8239109093001 1437.7599396802132 4.999999999999999
    vertex 478.8239109093001 1434.7599396802134 4.999999999999999
  endloop
endfacet
facet normal 1.0 -0.0 -0.0
  outer loop
    vertex 472.32391090930014 1437.7599396802132 3.0
    vertex 472.32391090930014 1434.7599396802134 4.999999999999999
    vertex 472.32391090930014 1434.7599396802134 3.0
  endloop
endfacet
facet normal 1.0 -0.0 -0.0
  outer loop
    vertex 472.32391090930014 1434.7599396802134 4.999999999999999
    vertex 472.32391090930014 1437.7599396802132 3.0
    vertex 472.32391090930014 1437.7599396802132 4.999999999999999
  endloop
endfacet
facet normal -0.0 -0.0 1.0
  outer loop
    vertex 504.82391090930014 1434.7599396802134 3.0
    vertex 478.8239109093001 1437.7599396802132 3.0
    vertex 478.8239109093001 1434.7599396802134 3.0
  endloop
endfacet
facet normal -0.0 -0.0 1.0
  outer loop
    vertex 478.8239109093001 1437.7599396802132 3.0
    vertex 504.82391090930014 1434.7599396802134 3.0
    vertex 504.82391090930014 1437.7599396802132 3.0
  endloop
endfacet
facet normal -0.0 -0.0 1.0
  outer loop
    vertex 478.8239109093001 1434.7599396802134 3.0
    vertex 472.32391090930014 1437.7599396802132 3.0
    vertex 472.32391090930014 1434.7599396802134 3.0
  endloop
endfacet
facet normal -0.0 -0.0 1.0
  outer loop
    vertex 472.32391090930014 1437.7599396802132 3.0
    vertex 478.8239109093001 1434.7599396802134 3.0
    vertex 478.8239109093001 1437.7599396802132 3.0
  endloop
endfacet
facet normal -1.0 0.0 0.0
  outer loop
    vertex 478.8239109093001 1467.7599396802134 4.999999999999999
    vertex 478.8239109093001 1464.7599396802134 3.0
    vertex 478.8239109093001 1464.7599396802134 4.999999999999999
  endloop
endfacet
facet normal -1.0 0.0 0.0
  outer loop
    vertex 478.8239109093001 1464.7599396802134 3.0
    vertex 478.8239109093001 1467.7599396802134 4.999999999999999
    vertex 478.8239109093001 1467.7599396802134 3.0
  endloop
endfacet
facet normal -0.0 -0.0 -1.0
  outer loop
    vertex 478.8239109093001 1467.7599396802134 4.999999999999999
    vertex 472.32391090930014 1464.7599396802134 4.999999999999999
    vertex 472.32391090930014 1467.7599396802134 4.999999999999999
  endloop
endfacet
facet normal -0.0 -0.0 -1.0
  outer loop
    vertex 472.32391090930014 1464.7599396802134 4.999999999999999
    vertex 478.8239109093001 1467.7599396802134 4.999999999999999
    vertex 478.8239109093001 1464.7599396802134 4.999999999999999
  endloop
endfacet
facet normal 1.0 -0.0 -0.0
  outer loop
    vertex 472.32391090930014 1467.7599396802134 3.0
    vertex 472.32391090930014 1464.7599396802134 4.999999999999999
    vertex 472.32391090930014 1464.7599396802134 3.0
  endloop
endfacet
facet normal 1.0 -0.0 -0.0
  outer loop
    vertex 472.32391090930014 1464.7599396802134 4.999999999999999
    vertex 472.32391090930014 1467.7599396802134 3.0
    vertex 472.32391090930014 1467.7599396802134 4.999999999999999
  endloop
endfacet
facet normal -0.0 -0.0 1.0
  outer loop
    vertex 472.32391090930014 1464.7599396802134 3.0
    vertex 469.07391090930014 1467.7599396802134 3.0
    vertex 469.07391090930014 1464.7599396802134 3.0
  endloop
endfacet
facet normal -0.0 -0.0 1.0
  outer loop
    vertex 469.07391090930014 1467.7599396802134 3.0
    vertex 472.32391090930014 1464.7599396802134 3.0
    vertex 472.32391090930014 1467.7599396802134 3.0
  endloop
endfacet
facet normal -1.0 0.0 0.0
  outer loop
    vertex 511.3239109093001 1467.7599396802132 4.999999999999999
    vertex 511.3239109093001 1464.7599396802134 3.0
    vertex 511.3239109093001 1464.7599396802134 4.999999999999999
  endloop
endfacet
facet normal -1.0 0.0 0.0
  outer loop
    vertex 511.3239109093001 1464.7599396802134 3.0
    vertex 511.3239109093001 1467.7599396802132 4.999999999999999
    vertex 511.3239109093001 1467.7599396802132 3.0
  endloop
endfacet
facet normal -0.0 -0.0 -1.0
  outer loop
    vertex 511.3239109093001 1467.7599396802132 4.999999999999999
    vertex 504.82391090930014 1464.7599396802134 4.999999999999999
    vertex 504.82391090930014 1467.7599396802132 4.999999999999999
  endloop
endfacet
facet normal -0.0 -0.0 -1.0
  outer loop
    vertex 504.82391090930014 1464.7599396802134 4.999999999999999
    vertex 511.3239109093001 1467.7599396802132 4.999999999999999
    vertex 511.3239109093001 1464.7599396802134 4.999999999999999
  endloop
endfacet
facet normal 1.0 -0.0 -0.0
  outer loop
    vertex 504.82391090930014 1467.7599396802132 3.0
    vertex 504.82391090930014 1464.7599396802134 4.999999999999999
    vertex 504.82391090930014 1464.7599396802134 3.0
  endloop
endfacet
facet normal 1.0 -0.0 -0.0
  outer loop
    vertex 504.82391090930014 1464.7599396802134 4.999999999999999
    vertex 504.82391090930014 1467.7599396802132 3.0
    vertex 504.82391090930014 1467.7599396802132 4.999999999999999
  endloop
endfacet
facet normal -0.0 -0.0 1.0
  outer loop
    vertex 504.82391090930014 1464.7599396802134 3.0
    vertex 478.8239109093001 1467.7599396802134 3.0
    vertex 478.8239109093001 1464.7599396802134 3.0
  endloop
endfacet
facet normal -0.0 -0.0 1.0
  outer loop
    vertex 478.8239109093001 1467.7599396802134 3.0
    vertex 504.82391090930014 1464.7599396802134 3.0
    vertex 504.82391090930014 1467.7599396802132 3.0
  endloop
endfacet
endsolid Untitled-5d484881
