solid CASELIPO
facet normal 0.0 0.0 -1.0
  outer loop
    vertex 105.1495063425407 264.7909407367558 -0.09951661514970911
    vertex 48.149506342540825 223.79094073675574 -0.09951661514970911
    vertex 48.149506342540825 264.7909407367558 -0.09951661514970911
  endloop
endfacet
facet normal 0.0 0.0 -1.0
  outer loop
    vertex 48.149506342540825 223.79094073675574 -0.09951661514970911
    vertex 105.1495063425407 264.7909407367558 -0.09951661514970911
    vertex 105.1495063425407 223.79094073675574 -0.09951661514970911
  endloop
endfacet
facet normal 0.0 -1.0 0.0
  outer loop
    vertex 105.1495063425407 223.79094073675574 24.900483384850286
    vertex 48.149506342540825 223.79094073675574 -0.09951661514970911
    vertex 105.1495063425407 223.79094073675574 -0.09951661514970911
  endloop
endfacet
facet normal 0.0 -1.0 0.0
  outer loop
    vertex 48.149506342540825 223.79094073675574 -0.09951661514970911
    vertex 105.1495063425407 223.79094073675574 24.900483384850286
    vertex 48.149506342540825 223.79094073675574 24.900483384850286
  endloop
endfacet
facet normal 0.0 -1.0 0.0
  outer loop
    vertex 48.149506342540825 223.79094073675574 24.900483384850286
    vertex 105.1495063425407 223.79094073675574 24.900483384850286
    vertex 103.1495063425406 223.79094073675574 24.900483384850286
  endloop
endfacet
facet normal -1.0 0.0 0.0
  outer loop
    vertex 48.149506342540825 250.29094073675574 8.900483384850292
    vertex 48.149506342540825 240.16179885352707 7.168082657227456
    vertex 48.149506342540825 238.29094073675577 8.900483384850292
  endloop
endfacet
facet normal -1.0 0.0 0.0
  outer loop
    vertex 48.149506342540825 240.16179885352707 7.168082657227456
    vertex 48.149506342540825 250.29094073675574 8.900483384850292
    vertex 48.149506342540825 248.16179885352707 7.168082657227456
  endloop
endfacet
facet normal -1.0 0.0 0.0
  outer loop
    vertex 48.149506342540825 223.79094073675574 24.900483384850286
    vertex 48.149506342540825 238.29094073675577 16.900483384850286
    vertex 48.149506342540825 223.79094073675574 -0.09951661514970911
  endloop
endfacet
facet normal -1.0 0.0 0.0
  outer loop
    vertex 48.149506342540825 238.29094073675577 16.900483384850286
    vertex 48.149506342540825 223.79094073675574 24.900483384850286
    vertex 48.149506342540825 264.7909407367558 24.900483384850286
  endloop
endfacet
facet normal -1.0 0.0 0.0
  outer loop
    vertex 48.149506342540825 238.29094073675577 16.900483384850286
    vertex 48.149506342540825 264.7909407367558 24.900483384850286
    vertex 48.149506342540825 250.29094073675574 16.900483384850286
  endloop
endfacet
facet normal -1.0 0.0 0.0
  outer loop
    vertex 48.149506342540825 250.29094073675574 16.900483384850286
    vertex 48.149506342540825 264.7909407367558 24.900483384850286
    vertex 48.149506342540825 250.29094073675574 8.900483384850292
  endloop
endfacet
facet normal -1.0 0.0 0.0
  outer loop
    vertex 48.149506342540825 223.79094073675574 -0.09951661514970911
    vertex 48.149506342540825 243.84254903088257 3.7839907359141787
    vertex 48.149506342540825 264.7909407367558 -0.09951661514970911
  endloop
endfacet
facet normal -1.0 0.0 0.0
  outer loop
    vertex 48.149506342540825 243.84254903088257 3.7839907359141787
    vertex 48.149506342540825 223.79094073675574 -0.09951661514970911
    vertex 48.149506342540825 240.16179885352707 7.168082657227456
  endloop
endfacet
facet normal -1.0 0.0 0.0
  outer loop
    vertex 48.149506342540825 240.16179885352707 7.168082657227456
    vertex 48.149506342540825 223.79094073675574 -0.09951661514970911
    vertex 48.149506342540825 238.29094073675577 8.900483384850292
  endloop
endfacet
facet normal -1.0 0.0 0.0
  outer loop
    vertex 48.149506342540825 238.29094073675577 8.900483384850292
    vertex 48.149506342540825 223.79094073675574 -0.09951661514970911
    vertex 48.149506342540825 238.29094073675577 16.900483384850286
  endloop
endfacet
facet normal -1.0 0.0 0.0
  outer loop
    vertex 48.149506342540825 264.7909407367558 -0.09951661514970911
    vertex 48.149506342540825 243.84254903088257 3.7839907359141787
    vertex 48.149506342540825 248.16179885352707 7.168082657227456
  endloop
endfacet
facet normal -1.0 0.0 0.0
  outer loop
    vertex 48.149506342540825 264.7909407367558 -0.09951661514970911
    vertex 48.149506342540825 248.16179885352707 7.168082657227456
    vertex 48.149506342540825 250.29094073675574 8.900483384850292
  endloop
endfacet
facet normal -1.0 0.0 0.0
  outer loop
    vertex 48.149506342540825 264.7909407367558 -0.09951661514970911
    vertex 48.149506342540825 250.29094073675574 8.900483384850292
    vertex 48.149506342540825 264.7909407367558 24.900483384850286
  endloop
endfacet
facet normal -0.0 1.0 -0.0
  outer loop
    vertex 48.149506342540825 264.7909407367558 24.900483384850286
    vertex 105.1495063425407 264.7909407367558 -0.09951661514970911
    vertex 48.149506342540825 264.7909407367558 -0.09951661514970911
  endloop
endfacet
facet normal -0.0 1.0 -0.0
  outer loop
    vertex 105.1495063425407 264.7909407367558 -0.09951661514970911
    vertex 48.149506342540825 264.7909407367558 24.900483384850286
    vertex 105.1495063425407 264.7909407367558 24.900483384850286
  endloop
endfacet
facet normal -0.0 1.0 -0.0
  outer loop
    vertex 105.1495063425407 264.7909407367558 24.900483384850286
    vertex 48.149506342540825 264.7909407367558 24.900483384850286
    vertex 50.14950634254082 264.7909407367558 24.900483384850286
  endloop
endfacet
facet normal 1.0 -0.0 -0.0
  outer loop
    vertex 105.1495063425407 246.94030628826198 10.061621522655486
    vertex 105.1495063425407 246.29939609549527 13.546091051700719
    vertex 105.1495063425407 244.3808694540617 11.239739923596087
  endloop
endfacet
facet normal 1.0 -0.0 -0.0
  outer loop
    vertex 105.1495063425407 223.79094073675574 -0.09951661514970911
    vertex 105.1495063425407 241.75142835485906 7.0490568690349
    vertex 105.1495063425407 223.79094073675574 24.900483384850286
  endloop
endfacet
facet normal 1.0 -0.0 -0.0
  outer loop
    vertex 105.1495063425407 241.75142835485906 7.0490568690349
    vertex 105.1495063425407 223.79094073675574 -0.09951661514970911
    vertex 105.1495063425407 264.7909407367558 -0.09951661514970911
  endloop
endfacet
facet normal 1.0 -0.0 -0.0
  outer loop
    vertex 105.1495063425407 223.79094073675574 24.900483384850286
    vertex 105.1495063425407 241.75142835485906 7.0490568690349
    vertex 105.1495063425407 238.29094073675577 14.900483384850292
  endloop
endfacet
facet normal 1.0 -0.0 -0.0
  outer loop
    vertex 105.1495063425407 238.29094073675577 14.900483384850292
    vertex 105.1495063425407 241.75142835485906 7.0490568690349
    vertex 105.1495063425407 241.40226168187237 10.063362677313801
  endloop
endfacet
facet normal 1.0 -0.0 -0.0
  outer loop
    vertex 105.1495063425407 241.75142835485906 7.0490568690349
    vertex 105.1495063425407 264.7909407367558 -0.09951661514970911
    vertex 105.1495063425407 246.94030628826198 10.061621522655486
  endloop
endfacet
facet normal 1.0 -0.0 -0.0
  outer loop
    vertex 105.1495063425407 246.94030628826198 10.061621522655486
    vertex 105.1495063425407 264.7909407367558 -0.09951661514970911
    vertex 105.1495063425407 250.29094073675574 14.900483384850292
  endloop
endfacet
facet normal 1.0 -0.0 -0.0
  outer loop
    vertex 105.1495063425407 250.29094073675574 14.900483384850292
    vertex 105.1495063425407 264.7909407367558 -0.09951661514970911
    vertex 105.1495063425407 250.29094073675574 22.90048338485029
  endloop
endfacet
facet normal 1.0 -0.0 -0.0
  outer loop
    vertex 105.1495063425407 223.79094073675574 24.900483384850286
    vertex 105.1495063425407 238.29094073675577 22.90048338485029
    vertex 105.1495063425407 264.7909407367558 24.900483384850286
  endloop
endfacet
facet normal 1.0 -0.0 -0.0
  outer loop
    vertex 105.1495063425407 238.29094073675577 22.90048338485029
    vertex 105.1495063425407 223.79094073675574 24.900483384850286
    vertex 105.1495063425407 238.29094073675577 14.900483384850292
  endloop
endfacet
facet normal 1.0 -0.0 -0.0
  outer loop
    vertex 105.1495063425407 264.7909407367558 24.900483384850286
    vertex 105.1495063425407 238.29094073675577 22.90048338485029
    vertex 105.1495063425407 244.29094073675577 22.90048338485029
  endloop
endfacet
facet normal 1.0 -0.0 -0.0
  outer loop
    vertex 105.1495063425407 264.7909407367558 24.900483384850286
    vertex 105.1495063425407 244.29094073675577 22.90048338485029
    vertex 105.1495063425407 250.29094073675574 22.90048338485029
  endloop
endfacet
facet normal 1.0 -0.0 -0.0
  outer loop
    vertex 105.1495063425407 264.7909407367558 24.900483384850286
    vertex 105.1495063425407 250.29094073675574 22.90048338485029
    vertex 105.1495063425407 264.7909407367558 -0.09951661514970911
  endloop
endfacet
facet normal 1.0 -0.0 -0.0
  outer loop
    vertex 105.1495063425407 241.40226168187237 10.063362677313801
    vertex 105.1495063425407 244.29094073675577 14.900483384850292
    vertex 105.1495063425407 238.29094073675577 14.900483384850292
  endloop
endfacet
facet normal 1.0 -0.0 -0.0
  outer loop
    vertex 105.1495063425407 244.29094073675577 14.900483384850292
    vertex 105.1495063425407 241.40226168187237 10.063362677313801
    vertex 105.1495063425407 246.29939609549527 13.546091051700719
  endloop
endfacet
facet normal 1.0 -0.0 -0.0
  outer loop
    vertex 105.1495063425407 244.29094073675577 14.900483384850292
    vertex 105.1495063425407 246.29939609549527 13.546091051700719
    vertex 105.1495063425407 250.29094073675574 14.900483384850292
  endloop
endfacet
facet normal 1.0 -0.0 -0.0
  outer loop
    vertex 105.1495063425407 250.29094073675574 14.900483384850292
    vertex 105.1495063425407 246.29939609549527 13.546091051700719
    vertex 105.1495063425407 246.94030628826198 10.061621522655486
  endloop
endfacet
facet normal 1.0 -0.0 -0.0
  outer loop
    vertex 105.1495063425407 244.3808694540617 10.063362677313801
    vertex 105.1495063425407 241.40226168187237 10.063362677313801
    vertex 105.1495063425407 241.75142835485906 7.0490568690349
  endloop
endfacet
facet normal -0.0 -0.0 1.0
  outer loop
    vertex 48.149506342540825 223.79094073675574 24.900483384850286
    vertex 50.14950634254082 225.79094073675572 24.900483384850286
    vertex 48.149506342540825 264.7909407367558 24.900483384850286
  endloop
endfacet
facet normal -0.0 -0.0 1.0
  outer loop
    vertex 50.14950634254082 225.79094073675572 24.900483384850286
    vertex 48.149506342540825 223.79094073675574 24.900483384850286
    vertex 103.1495063425406 223.79094073675574 24.900483384850286
  endloop
endfacet
facet normal -0.0 -0.0 1.0
  outer loop
    vertex 50.14950634254082 225.79094073675572 24.900483384850286
    vertex 103.1495063425406 223.79094073675574 24.900483384850286
    vertex 103.1495063425406 225.79094073675572 24.900483384850286
  endloop
endfacet
facet normal -0.0 -0.0 1.0
  outer loop
    vertex 50.14950634254082 225.79094073675572 24.900483384850286
    vertex 50.14950634254082 264.7909407367558 24.900483384850286
    vertex 48.149506342540825 264.7909407367558 24.900483384850286
  endloop
endfacet
facet normal -0.0 -0.0 1.0
  outer loop
    vertex 50.14950634254082 264.7909407367558 24.900483384850286
    vertex 50.14950634254082 225.79094073675572 24.900483384850286
    vertex 50.14950634254082 262.7909407367558 24.900483384850286
  endloop
endfacet
facet normal -0.0 -0.0 1.0
  outer loop
    vertex 103.1495063425406 225.79094073675572 1.9004833848502873
    vertex 50.14950634254082 262.7909407367558 1.9004833848502873
    vertex 50.14950634254082 225.79094073675572 1.9004833848502873
  endloop
endfacet
facet normal -0.0 -0.0 1.0
  outer loop
    vertex 50.14950634254082 262.7909407367558 1.9004833848502873
    vertex 103.1495063425406 225.79094073675572 1.9004833848502873
    vertex 103.1495063425407 262.7909407367558 1.9004833848502873
  endloop
endfacet
facet normal -0.0 -0.0 1.0
  outer loop
    vertex 105.1495063425407 223.79094073675574 24.900483384850286
    vertex 103.1495063425406 225.79094073675572 24.900483384850286
    vertex 103.1495063425406 223.79094073675574 24.900483384850286
  endloop
endfacet
facet normal -0.0 -0.0 1.0
  outer loop
    vertex 103.1495063425406 225.79094073675572 24.900483384850286
    vertex 105.1495063425407 223.79094073675574 24.900483384850286
    vertex 103.1495063425407 262.7909407367558 24.900483384850286
  endloop
endfacet
facet normal -0.0 -0.0 1.0
  outer loop
    vertex 103.1495063425407 262.7909407367558 24.900483384850286
    vertex 50.14950634254082 264.7909407367558 24.900483384850286
    vertex 50.14950634254082 262.7909407367558 24.900483384850286
  endloop
endfacet
facet normal -0.0 -0.0 1.0
  outer loop
    vertex 50.14950634254082 264.7909407367558 24.900483384850286
    vertex 103.1495063425407 262.7909407367558 24.900483384850286
    vertex 105.1495063425407 264.7909407367558 24.900483384850286
  endloop
endfacet
facet normal -0.0 -0.0 1.0
  outer loop
    vertex 105.1495063425407 264.7909407367558 24.900483384850286
    vertex 103.1495063425407 262.7909407367558 24.900483384850286
    vertex 105.1495063425407 223.79094073675574 24.900483384850286
  endloop
endfacet
facet normal 1.0 -0.0 -0.0
  outer loop
    vertex 50.14950634254082 225.79094073675572 1.9004833848502873
    vertex 50.14950634254082 238.29094073675577 8.900483384850292
    vertex 50.14950634254082 225.79094073675572 24.900483384850286
  endloop
endfacet
facet normal 1.0 -0.0 -0.0
  outer loop
    vertex 50.14950634254082 238.29094073675577 8.900483384850292
    vertex 50.14950634254082 225.79094073675572 1.9004833848502873
    vertex 50.14950634254082 262.7909407367558 1.9004833848502873
  endloop
endfacet
facet normal 1.0 -0.0 -0.0
  outer loop
    vertex 50.14950634254082 238.29094073675577 8.900483384850292
    vertex 50.14950634254082 262.7909407367558 1.9004833848502873
    vertex 50.14950634254082 250.29094073675574 8.900483384850292
  endloop
endfacet
facet normal 1.0 -0.0 -0.0
  outer loop
    vertex 50.14950634254082 250.29094073675574 8.900483384850292
    vertex 50.14950634254082 262.7909407367558 1.9004833848502873
    vertex 50.14950634254082 250.29094073675574 16.900483384850286
  endloop
endfacet
facet normal 1.0 -0.0 -0.0
  outer loop
    vertex 50.14950634254082 225.79094073675572 24.900483384850286
    vertex 50.14950634254082 238.29094073675577 16.900483384850286
    vertex 50.14950634254082 262.7909407367558 24.900483384850286
  endloop
endfacet
facet normal 1.0 -0.0 -0.0
  outer loop
    vertex 50.14950634254082 238.29094073675577 16.900483384850286
    vertex 50.14950634254082 225.79094073675572 24.900483384850286
    vertex 50.14950634254082 238.29094073675577 8.900483384850292
  endloop
endfacet
facet normal 1.0 -0.0 -0.0
  outer loop
    vertex 50.14950634254082 262.7909407367558 24.900483384850286
    vertex 50.14950634254082 238.29094073675577 16.900483384850286
    vertex 50.14950634254082 250.29094073675574 16.900483384850286
  endloop
endfacet
facet normal 1.0 -0.0 -0.0
  outer loop
    vertex 50.14950634254082 262.7909407367558 24.900483384850286
    vertex 50.14950634254082 250.29094073675574 16.900483384850286
    vertex 50.14950634254082 262.7909407367558 1.9004833848502873
  endloop
endfacet
facet normal -0.0 1.0 -0.0
  outer loop
    vertex 50.14950634254082 225.79094073675572 24.900483384850286
    vertex 103.1495063425406 225.79094073675572 1.9004833848502873
    vertex 50.14950634254082 225.79094073675572 1.9004833848502873
  endloop
endfacet
facet normal -0.0 1.0 -0.0
  outer loop
    vertex 103.1495063425406 225.79094073675572 1.9004833848502873
    vertex 50.14950634254082 225.79094073675572 24.900483384850286
    vertex 103.1495063425406 225.79094073675572 24.900483384850286
  endloop
endfacet
facet normal -1.0 2.4388899308522314e-15 0.0
  outer loop
    vertex 103.1495063425406 225.79094073675572 24.900483384850286
    vertex 103.1495063425407 238.29094073675577 22.90048338485029
    vertex 103.1495063425406 225.79094073675572 1.9004833848502873
  endloop
endfacet
facet normal -1.0 2.4388899308522314e-15 0.0
  outer loop
    vertex 103.1495063425407 238.29094073675577 22.90048338485029
    vertex 103.1495063425406 225.79094073675572 24.900483384850286
    vertex 103.1495063425407 262.7909407367558 24.900483384850286
  endloop
endfacet
facet normal -1.0 2.4388899308522314e-15 0.0
  outer loop
    vertex 103.1495063425407 238.29094073675577 22.90048338485029
    vertex 103.1495063425407 262.7909407367558 24.900483384850286
    vertex 103.1495063425407 244.29094073675577 22.90048338485029
  endloop
endfacet
facet normal -1.0 2.4388899308522314e-15 0.0
  outer loop
    vertex 103.1495063425407 244.29094073675577 22.90048338485029
    vertex 103.1495063425407 262.7909407367558 24.900483384850286
    vertex 103.1495063425407 250.29094073675574 22.90048338485029
  endloop
endfacet
facet normal -1.0 2.4388899308522314e-15 0.0
  outer loop
    vertex 103.1495063425407 250.29094073675574 22.90048338485029
    vertex 103.1495063425407 262.7909407367558 24.900483384850286
    vertex 103.1495063425407 250.29094073675574 14.900483384850292
  endloop
endfacet
facet normal -1.0 2.4388899308522314e-15 0.0
  outer loop
    vertex 103.1495063425406 225.79094073675572 1.9004833848502873
    vertex 103.1495063425407 238.29094073675577 14.900483384850292
    vertex 103.1495063425407 262.7909407367558 1.9004833848502873
  endloop
endfacet
facet normal -1.0 2.4388899308522314e-15 0.0
  outer loop
    vertex 103.1495063425407 238.29094073675577 14.900483384850292
    vertex 103.1495063425406 225.79094073675572 1.9004833848502873
    vertex 103.1495063425407 238.29094073675577 22.90048338485029
  endloop
endfacet
facet normal -1.0 2.4388899308522314e-15 0.0
  outer loop
    vertex 103.1495063425407 262.7909407367558 1.9004833848502873
    vertex 103.1495063425407 238.29094073675577 14.900483384850292
    vertex 103.1495063425407 244.29094073675577 14.900483384850292
  endloop
endfacet
facet normal -1.0 2.4388899308522314e-15 0.0
  outer loop
    vertex 103.1495063425407 262.7909407367558 1.9004833848502873
    vertex 103.1495063425407 244.29094073675577 14.900483384850292
    vertex 103.1495063425407 250.29094073675574 14.900483384850292
  endloop
endfacet
facet normal -1.0 2.4388899308522314e-15 0.0
  outer loop
    vertex 103.1495063425407 262.7909407367558 1.9004833848502873
    vertex 103.1495063425407 250.29094073675574 14.900483384850292
    vertex 103.1495063425407 262.7909407367558 24.900483384850286
  endloop
endfacet
facet normal 0.0 -1.0 0.0
  outer loop
    vertex 103.1495063425407 262.7909407367558 24.900483384850286
    vertex 50.14950634254082 262.7909407367558 1.9004833848502873
    vertex 103.1495063425407 262.7909407367558 1.9004833848502873
  endloop
endfacet
facet normal 0.0 -1.0 0.0
  outer loop
    vertex 50.14950634254082 262.7909407367558 1.9004833848502873
    vertex 103.1495063425407 262.7909407367558 24.900483384850286
    vertex 50.14950634254082 262.7909407367558 24.900483384850286
  endloop
endfacet
facet normal -0.0 -0.0 1.0
  outer loop
    vertex 105.1495063425407 238.29094073675577 14.900483384850292
    vertex 103.1495063425407 244.29094073675577 14.900483384850292
    vertex 103.1495063425407 238.29094073675577 14.900483384850292
  endloop
endfacet
facet normal -0.0 -0.0 1.0
  outer loop
    vertex 103.1495063425407 244.29094073675577 14.900483384850292
    vertex 105.1495063425407 238.29094073675577 14.900483384850292
    vertex 105.1495063425407 244.29094073675577 14.900483384850292
  endloop
endfacet
facet normal -0.0 -0.0 1.0
  outer loop
    vertex 105.1495063425407 244.29094073675577 14.900483384850292
    vertex 103.1495063425407 250.29094073675574 14.900483384850292
    vertex 103.1495063425407 244.29094073675577 14.900483384850292
  endloop
endfacet
facet normal -0.0 -0.0 1.0
  outer loop
    vertex 103.1495063425407 250.29094073675574 14.900483384850292
    vertex 105.1495063425407 244.29094073675577 14.900483384850292
    vertex 105.1495063425407 250.29094073675574 14.900483384850292
  endloop
endfacet
facet normal 0.0 -1.0 0.0
  outer loop
    vertex 105.1495063425407 250.29094073675574 22.90048338485029
    vertex 103.1495063425407 250.29094073675574 14.900483384850292
    vertex 105.1495063425407 250.29094073675574 14.900483384850292
  endloop
endfacet
facet normal 0.0 -1.0 0.0
  outer loop
    vertex 103.1495063425407 250.29094073675574 14.900483384850292
    vertex 105.1495063425407 250.29094073675574 22.90048338485029
    vertex 103.1495063425407 250.29094073675574 22.90048338485029
  endloop
endfacet
facet normal 0.0 0.0 -1.0
  outer loop
    vertex 105.1495063425407 250.29094073675574 22.90048338485029
    vertex 103.1495063425407 244.29094073675577 22.90048338485029
    vertex 103.1495063425407 250.29094073675574 22.90048338485029
  endloop
endfacet
facet normal 0.0 0.0 -1.0
  outer loop
    vertex 103.1495063425407 244.29094073675577 22.90048338485029
    vertex 105.1495063425407 250.29094073675574 22.90048338485029
    vertex 105.1495063425407 244.29094073675577 22.90048338485029
  endloop
endfacet
facet normal 0.0 0.0 -1.0
  outer loop
    vertex 105.1495063425407 244.29094073675577 22.90048338485029
    vertex 103.1495063425407 238.29094073675577 22.90048338485029
    vertex 103.1495063425407 244.29094073675577 22.90048338485029
  endloop
endfacet
facet normal 0.0 0.0 -1.0
  outer loop
    vertex 103.1495063425407 238.29094073675577 22.90048338485029
    vertex 105.1495063425407 244.29094073675577 22.90048338485029
    vertex 105.1495063425407 238.29094073675577 22.90048338485029
  endloop
endfacet
facet normal -0.0 1.0 -0.0
  outer loop
    vertex 103.1495063425407 238.29094073675577 22.90048338485029
    vertex 105.1495063425407 238.29094073675577 14.900483384850292
    vertex 103.1495063425407 238.29094073675577 14.900483384850292
  endloop
endfacet
facet normal -0.0 1.0 -0.0
  outer loop
    vertex 105.1495063425407 238.29094073675577 14.900483384850292
    vertex 103.1495063425407 238.29094073675577 22.90048338485029
    vertex 105.1495063425407 238.29094073675577 22.90048338485029
  endloop
endfacet
facet normal 1.0 -0.0 -0.0
  outer loop
    vertex 104.14950634254076 241.40226168187237 10.063362677313801
    vertex 104.14950634254076 244.3808694540617 11.239739923596087
    vertex 104.14950634254076 246.29939609549527 13.546091051700719
  endloop
endfacet
facet normal 1.0 -0.0 -0.0
  outer loop
    vertex 104.14950634254076 244.3808694540617 11.239739923596087
    vertex 104.14950634254076 241.40226168187237 10.063362677313801
    vertex 104.14950634254076 244.3808694540617 10.063362677313801
  endloop
endfacet
facet normal 1.0 -0.0 -0.0
  outer loop
    vertex 104.14950634254076 246.94030628826198 10.061621522655486
    vertex 104.14950634254076 244.3808694540617 10.063362677313801
    vertex 104.14950634254076 241.75142835485906 7.0490568690349
  endloop
endfacet
facet normal 1.0 -0.0 -0.0
  outer loop
    vertex 104.14950634254076 244.3808694540617 10.063362677313801
    vertex 104.14950634254076 246.94030628826198 10.061621522655486
    vertex 104.14950634254076 244.3808694540617 11.239739923596087
  endloop
endfacet
facet normal -5.184396491094239e-29 0.5795593383221557 -0.8149300420058062
  outer loop
    vertex 105.1495063425407 246.29939609549527 13.546091051700719
    vertex 104.14950634254076 241.40226168187237 10.063362677313801
    vertex 104.14950634254076 246.29939609549527 13.546091051700719
  endloop
endfacet
facet normal -5.184396491094239e-29 0.5795593383221557 -0.8149300420058062
  outer loop
    vertex 104.14950634254076 241.40226168187237 10.063362677313801
    vertex 105.1495063425407 246.29939609549527 13.546091051700719
    vertex 105.1495063425407 241.40226168187237 10.063362677313801
  endloop
endfacet
facet normal -0.0 -0.0 1.0
  outer loop
    vertex 105.1495063425407 241.40226168187237 10.063362677313801
    vertex 104.14950634254076 244.3808694540617 10.063362677313801
    vertex 104.14950634254076 241.40226168187237 10.063362677313801
  endloop
endfacet
facet normal -0.0 -0.0 1.0
  outer loop
    vertex 104.14950634254076 244.3808694540617 10.063362677313801
    vertex 105.1495063425407 241.40226168187237 10.063362677313801
    vertex 105.1495063425407 244.3808694540617 10.063362677313801
  endloop
endfacet
facet normal -0.0 0.7535764520697287 -0.6573602748006608
  outer loop
    vertex 104.14950634254076 244.3808694540617 10.063362677313801
    vertex 105.1495063425407 241.75142835485906 7.0490568690349
    vertex 104.14950634254076 241.75142835485906 7.0490568690349
  endloop
endfacet
facet normal -0.0 0.7535764520697287 -0.6573602748006608
  outer loop
    vertex 105.1495063425407 241.75142835485906 7.0490568690349
    vertex 104.14950634254076 244.3808694540617 10.063362677313801
    vertex 105.1495063425407 244.3808694540617 10.063362677313801
  endloop
endfacet
facet normal -0.0 -0.5020941089367644 0.8648129889004886
  outer loop
    vertex 105.1495063425407 241.75142835485906 7.0490568690349
    vertex 104.14950634254076 246.94030628826198 10.061621522655486
    vertex 104.14950634254076 241.75142835485906 7.0490568690349
  endloop
endfacet
facet normal -0.0 -0.5020941089367644 0.8648129889004886
  outer loop
    vertex 104.14950634254076 246.94030628826198 10.061621522655486
    vertex 105.1495063425407 241.75142835485906 7.0490568690349
    vertex 105.1495063425407 246.94030628826198 10.061621522655486
  endloop
endfacet
facet normal 0.0 -0.41813333707765793 -0.9083856628240573
  outer loop
    vertex 105.1495063425407 246.94030628826198 10.061621522655486
    vertex 104.14950634254076 244.3808694540617 11.239739923596087
    vertex 104.14950634254076 246.94030628826198 10.061621522655486
  endloop
endfacet
facet normal 0.0 -0.41813333707765793 -0.9083856628240573
  outer loop
    vertex 104.14950634254076 244.3808694540617 11.239739923596087
    vertex 105.1495063425407 246.94030628826198 10.061621522655486
    vertex 105.1495063425407 244.3808694540617 11.239739923596087
  endloop
endfacet
facet normal 0.0 -0.7687837093682139 0.6395088804778629
  outer loop
    vertex 105.1495063425407 246.29939609549527 13.546091051700719
    vertex 104.14950634254076 244.3808694540617 11.239739923596087
    vertex 105.1495063425407 244.3808694540617 11.239739923596087
  endloop
endfacet
facet normal 0.0 -0.7687837093682139 0.6395088804778629
  outer loop
    vertex 104.14950634254076 244.3808694540617 11.239739923596087
    vertex 105.1495063425407 246.29939609549527 13.546091051700719
    vertex 104.14950634254076 246.29939609549527 13.546091051700719
  endloop
endfacet
facet normal -0.0 1.0 -0.0
  outer loop
    vertex 48.149506342540825 238.29094073675577 16.900483384850286
    vertex 50.14950634254082 238.29094073675577 8.900483384850292
    vertex 48.149506342540825 238.29094073675577 8.900483384850292
  endloop
endfacet
facet normal -0.0 1.0 -0.0
  outer loop
    vertex 50.14950634254082 238.29094073675577 8.900483384850292
    vertex 48.149506342540825 238.29094073675577 16.900483384850286
    vertex 50.14950634254082 238.29094073675577 16.900483384850286
  endloop
endfacet
facet normal 0.0 0.0 -1.0
  outer loop
    vertex 50.14950634254082 250.29094073675574 16.900483384850286
    vertex 48.149506342540825 238.29094073675577 16.900483384850286
    vertex 48.149506342540825 250.29094073675574 16.900483384850286
  endloop
endfacet
facet normal 0.0 0.0 -1.0
  outer loop
    vertex 48.149506342540825 238.29094073675577 16.900483384850286
    vertex 50.14950634254082 250.29094073675574 16.900483384850286
    vertex 50.14950634254082 238.29094073675577 16.900483384850286
  endloop
endfacet
facet normal 0.0 -1.0 0.0
  outer loop
    vertex 50.14950634254082 250.29094073675574 16.900483384850286
    vertex 48.149506342540825 250.29094073675574 8.900483384850292
    vertex 50.14950634254082 250.29094073675574 8.900483384850292
  endloop
endfacet
facet normal 0.0 -1.0 0.0
  outer loop
    vertex 48.149506342540825 250.29094073675574 8.900483384850292
    vertex 50.14950634254082 250.29094073675574 16.900483384850286
    vertex 48.149506342540825 250.29094073675574 16.900483384850286
  endloop
endfacet
facet normal -0.0 -0.0 1.0
  outer loop
    vertex 50.14950634254082 238.29094073675577 8.900483384850292
    vertex 48.149506342540825 250.29094073675574 8.900483384850292
    vertex 48.149506342540825 238.29094073675577 8.900483384850292
  endloop
endfacet
facet normal -0.0 -0.0 1.0
  outer loop
    vertex 48.149506342540825 250.29094073675574 8.900483384850292
    vertex 50.14950634254082 238.29094073675577 8.900483384850292
    vertex 50.14950634254082 250.29094073675574 8.900483384850292
  endloop
endfacet
facet normal -1.0 0.0 0.0
  outer loop
    vertex 49.149506342540825 248.16179885352707 7.168082657227456
    vertex 49.149506342540825 243.84254903088257 3.7839907359141787
    vertex 49.149506342540825 240.16179885352707 7.168082657227456
  endloop
endfacet
facet normal -0.0 -0.6167387240599818 0.7871679276017703
  outer loop
    vertex 49.149506342540825 243.84254903088257 3.7839907359141787
    vertex 48.149506342540825 248.16179885352707 7.168082657227456
    vertex 48.149506342540825 243.84254903088257 3.7839907359141787
  endloop
endfacet
facet normal -0.0 -0.6167387240599818 0.7871679276017703
  outer loop
    vertex 48.149506342540825 248.16179885352707 7.168082657227456
    vertex 49.149506342540825 243.84254903088257 3.7839907359141787
    vertex 49.149506342540825 248.16179885352707 7.168082657227456
  endloop
endfacet
facet normal -0.0 0.6768183842626516 0.7361500354710946
  outer loop
    vertex 49.149506342540825 240.16179885352707 7.168082657227456
    vertex 48.149506342540825 243.84254903088257 3.7839907359141787
    vertex 48.149506342540825 240.16179885352707 7.168082657227456
  endloop
endfacet
facet normal -0.0 0.6768183842626516 0.7361500354710946
  outer loop
    vertex 48.149506342540825 243.84254903088257 3.7839907359141787
    vertex 49.149506342540825 240.16179885352707 7.168082657227456
    vertex 49.149506342540825 243.84254903088257 3.7839907359141787
  endloop
endfacet
facet normal 0.0 0.0 -1.0
  outer loop
    vertex 49.149506342540825 248.16179885352707 7.168082657227456
    vertex 48.149506342540825 240.16179885352707 7.168082657227456
    vertex 48.149506342540825 248.16179885352707 7.168082657227456
  endloop
endfacet
facet normal 0.0 0.0 -1.0
  outer loop
    vertex 48.149506342540825 240.16179885352707 7.168082657227456
    vertex 49.149506342540825 248.16179885352707 7.168082657227456
    vertex 49.149506342540825 240.16179885352707 7.168082657227456
  endloop
endfacet
facet normal 0.0 0.0 -1.0
  outer loop
    vertex 108.16277133979489 212.46320189066842 -2.116375638144729
    vertex 51.16277133979485 171.4632018906683 -2.116375638144729
    vertex 51.16277133979485 212.46320189066842 -2.116375638144729
  endloop
endfacet
facet normal 0.0 0.0 -1.0
  outer loop
    vertex 51.16277133979485 171.4632018906683 -2.116375638144729
    vertex 108.16277133979489 212.46320189066842 -2.116375638144729
    vertex 108.16277133979489 171.4632018906683 -2.116375638144729
  endloop
endfacet
facet normal -0.0 -0.0 1.0
  outer loop
    vertex 108.16277133979489 171.4632018906683 -0.11637563814473278
    vertex 51.16277133979485 212.46320189066842 -0.11637563814473278
    vertex 51.16277133979485 171.4632018906683 -0.11637563814473278
  endloop
endfacet
facet normal -0.0 -0.0 1.0
  outer loop
    vertex 51.16277133979485 212.46320189066842 -0.11637563814473278
    vertex 108.16277133979489 171.4632018906683 -0.11637563814473278
    vertex 108.16277133979489 212.46320189066842 -0.11637563814473278
  endloop
endfacet
facet normal -0.0 1.0 -0.0
  outer loop
    vertex 51.16277133979485 212.46320189066842 -0.11637563814473278
    vertex 108.16277133979489 212.46320189066842 -2.116375638144729
    vertex 51.16277133979485 212.46320189066842 -2.116375638144729
  endloop
endfacet
facet normal -0.0 1.0 -0.0
  outer loop
    vertex 108.16277133979489 212.46320189066842 -2.116375638144729
    vertex 51.16277133979485 212.46320189066842 -0.11637563814473278
    vertex 108.16277133979489 212.46320189066842 -0.11637563814473278
  endloop
endfacet
facet normal -1.0 0.0 0.0
  outer loop
    vertex 51.16277133979485 212.46320189066842 -0.11637563814473278
    vertex 51.16277133979485 171.4632018906683 -2.116375638144729
    vertex 51.16277133979485 171.4632018906683 -0.11637563814473278
  endloop
endfacet
facet normal -1.0 0.0 0.0
  outer loop
    vertex 51.16277133979485 171.4632018906683 -2.116375638144729
    vertex 51.16277133979485 212.46320189066842 -0.11637563814473278
    vertex 51.16277133979485 212.46320189066842 -2.116375638144729
  endloop
endfacet
facet normal 0.0 -1.0 0.0
  outer loop
    vertex 108.16277133979489 171.4632018906683 -0.11637563814473278
    vertex 51.16277133979485 171.4632018906683 -2.116375638144729
    vertex 108.16277133979489 171.4632018906683 -2.116375638144729
  endloop
endfacet
facet normal 0.0 -1.0 0.0
  outer loop
    vertex 51.16277133979485 171.4632018906683 -2.116375638144729
    vertex 108.16277133979489 171.4632018906683 -0.11637563814473278
    vertex 51.16277133979485 171.4632018906683 -0.11637563814473278
  endloop
endfacet
facet normal 1.0 -0.0 -0.0
  outer loop
    vertex 108.16277133979489 212.46320189066842 -2.116375638144729
    vertex 108.16277133979489 171.4632018906683 -0.11637563814473278
    vertex 108.16277133979489 171.4632018906683 -2.116375638144729
  endloop
endfacet
facet normal 1.0 -0.0 -0.0
  outer loop
    vertex 108.16277133979489 171.4632018906683 -0.11637563814473278
    vertex 108.16277133979489 212.46320189066842 -2.116375638144729
    vertex 108.16277133979489 212.46320189066842 -0.11637563814473278
  endloop
endfacet
endsolid CASELIPO
