solid CASELIPO
facet normal 0.0 0.0 -1.0
  outer loop
    vertex 110.71564668485671 123.59157487143987 0.0
    vertex 55.715646684856694 84.59157487143989 0.0
    vertex 55.715646684856694 123.59157487143987 0.0
  endloop
endfacet
facet normal 0.0 0.0 -1.0
  outer loop
    vertex 55.715646684856694 84.59157487143989 0.0
    vertex 110.71564668485671 123.59157487143987 0.0
    vertex 110.71564668485671 84.59157487143989 0.0
  endloop
endfacet
facet normal -2.0508847145802886e-16 -1.0 -0.0
  outer loop
    vertex 110.71564668485671 84.59157487143989 25.999999999999996
    vertex 55.715646684856694 84.59157487143989 0.0
    vertex 110.71564668485671 84.59157487143989 0.0
  endloop
endfacet
facet normal -2.0508847145802886e-16 -1.0 -0.0
  outer loop
    vertex 55.715646684856694 84.59157487143989 0.0
    vertex 110.71564668485671 84.59157487143989 25.999999999999996
    vertex 55.715646684856694 84.59157487143989 25.999999999999996
  endloop
endfacet
facet normal -0.0 1.0 0.0
  outer loop
    vertex 55.715646684856694 123.59157487143987 25.999999999999996
    vertex 110.71564668485671 123.59157487143987 0.0
    vertex 55.715646684856694 123.59157487143987 0.0
  endloop
endfacet
facet normal -0.0 1.0 0.0
  outer loop
    vertex 110.71564668485671 123.59157487143987 0.0
    vertex 55.715646684856694 123.59157487143987 25.999999999999996
    vertex 110.71564668485671 123.59157487143987 25.999999999999996
  endloop
endfacet
facet normal -0.0 -0.0 1.0
  outer loop
    vertex 108.71564668485671 86.59157487143987 1.9999999999999996
    vertex 57.71564668485669 121.59157487143989 1.9999999999999996
    vertex 57.71564668485669 86.59157487143995 1.9999999999999996
  endloop
endfacet
facet normal -0.0 -0.0 1.0
  outer loop
    vertex 57.71564668485669 121.59157487143989 1.9999999999999996
    vertex 108.71564668485671 86.59157487143987 1.9999999999999996
    vertex 108.71564668485671 121.59157487143982 1.9999999999999996
  endloop
endfacet
facet normal -0.0 -0.0 1.0
  outer loop
    vertex 57.71564668485669 86.59157487143995 25.999999999999996
    vertex 55.715646684856694 98.09157487143989 25.999999999999996
    vertex 55.715646684856694 86.59157487143987 25.999999999999996
  endloop
endfacet
facet normal -0.0 -0.0 1.0
  outer loop
    vertex 55.715646684856694 98.09157487143989 25.999999999999996
    vertex 57.71564668485669 86.59157487143995 25.999999999999996
    vertex 57.71564668485669 98.09157487143989 25.999999999999996
  endloop
endfacet
facet normal -1.327043050610775e-15 -1.0 1.4367155645469967e-31
  outer loop
    vertex 108.71564668485671 121.59157487143982 25.999999999999996
    vertex 57.71564668485669 121.59157487143989 1.9999999999999996
    vertex 108.71564668485671 121.59157487143982 1.9999999999999996
  endloop
endfacet
facet normal -1.327043050610775e-15 -1.0 1.4367155645469967e-31
  outer loop
    vertex 57.71564668485669 121.59157487143989 1.9999999999999996
    vertex 108.71564668485671 121.59157487143982 25.999999999999996
    vertex 57.71564668485669 121.59157487143989 25.999999999999996
  endloop
endfacet
facet normal 1.3270430506107748e-15 1.0 -1.4656842076435156e-46
  outer loop
    vertex 57.71564668485669 86.59157487143995 25.999999999999996
    vertex 108.71564668485671 86.59157487143987 1.9999999999999996
    vertex 57.71564668485669 86.59157487143995 1.9999999999999996
  endloop
endfacet
facet normal 1.3270430506107748e-15 1.0 -1.4656842076435156e-46
  outer loop
    vertex 108.71564668485671 86.59157487143987 1.9999999999999996
    vertex 57.71564668485669 86.59157487143995 25.999999999999996
    vertex 108.71564668485671 86.59157487143987 25.999999999999996
  endloop
endfacet
facet normal -0.0 -1.0 0.0
  outer loop
    vertex 110.71564668485671 110.09157487143989 14.0
    vertex 108.71564668485675 110.09157487143989 6.0
    vertex 110.71564668485671 110.09157487143989 6.0
  endloop
endfacet
facet normal -0.0 -1.0 0.0
  outer loop
    vertex 108.71564668485675 110.09157487143989 6.0
    vertex 110.71564668485671 110.09157487143989 14.0
    vertex 108.71564668485675 110.09157487143989 14.0
  endloop
endfacet
facet normal -0.0 -0.0 -1.0
  outer loop
    vertex 110.71564668485671 110.09157487143989 14.0
    vertex 108.71564668485675 98.09157487143989 14.0
    vertex 108.71564668485675 110.09157487143989 14.0
  endloop
endfacet
facet normal -0.0 -0.0 -1.0
  outer loop
    vertex 108.71564668485675 98.09157487143989 14.0
    vertex 110.71564668485671 110.09157487143989 14.0
    vertex 110.71564668485671 98.09157487143989 14.0
  endloop
endfacet
facet normal 0.0 1.0 0.0
  outer loop
    vertex 108.71564668485675 98.09157487143989 14.0
    vertex 110.71564668485671 98.09157487143989 6.0
    vertex 108.71564668485675 98.09157487143989 6.0
  endloop
endfacet
facet normal 0.0 1.0 0.0
  outer loop
    vertex 110.71564668485671 98.09157487143989 6.0
    vertex 108.71564668485675 98.09157487143989 14.0
    vertex 110.71564668485671 98.09157487143989 14.0
  endloop
endfacet
facet normal -0.0 -0.0 1.0
  outer loop
    vertex 110.71564668485671 98.09157487143989 6.0
    vertex 108.71564668485675 110.09157487143989 6.0
    vertex 108.71564668485675 98.09157487143989 6.0
  endloop
endfacet
facet normal -0.0 -0.0 1.0
  outer loop
    vertex 108.71564668485675 110.09157487143989 6.0
    vertex 110.71564668485671 98.09157487143989 6.0
    vertex 110.71564668485671 110.09157487143989 6.0
  endloop
endfacet
facet normal 1.0 0.0 0.0
  outer loop
    vertex 109.71564668485668 107.65270687199634 4.476939297806006
    vertex 109.71564668485668 100.65270687199634 4.476939297806006
    vertex 109.71564668485668 104.47899145045734 2.0422872850769926
  endloop
endfacet
facet normal 0.0 0.5368352585263299 0.8436870896268169
  outer loop
    vertex 110.71564668485671 100.65270687199634 4.476939297806006
    vertex 109.71564668485668 104.47899145045734 2.0422872850769926
    vertex 109.71564668485668 100.65270687199634 4.476939297806006
  endloop
endfacet
facet normal 0.0 0.5368352585263299 0.8436870896268169
  outer loop
    vertex 109.71564668485668 104.47899145045734 2.0422872850769926
    vertex 110.71564668485671 100.65270687199634 4.476939297806006
    vertex 110.71564668485671 104.47899145045734 2.0422872850769926
  endloop
endfacet
facet normal -0.0 -0.6086630031822539 0.7934288553847533
  outer loop
    vertex 110.71564668485671 104.47899145045734 2.0422872850769926
    vertex 109.71564668485668 107.65270687199634 4.476939297806006
    vertex 109.71564668485668 104.47899145045734 2.0422872850769926
  endloop
endfacet
facet normal -0.0 -0.6086630031822539 0.7934288553847533
  outer loop
    vertex 109.71564668485668 107.65270687199634 4.476939297806006
    vertex 110.71564668485671 104.47899145045734 2.0422872850769926
    vertex 110.71564668485671 107.65270687199634 4.476939297806006
  endloop
endfacet
facet normal -0.0 -0.0 -1.0
  outer loop
    vertex 110.71564668485671 107.65270687199634 4.476939297806006
    vertex 109.71564668485668 100.65270687199634 4.476939297806006
    vertex 109.71564668485668 107.65270687199634 4.476939297806006
  endloop
endfacet
facet normal -0.0 -0.0 -1.0
  outer loop
    vertex 109.71564668485668 100.65270687199634 4.476939297806006
    vertex 110.71564668485671 107.65270687199634 4.476939297806006
    vertex 110.71564668485671 100.65270687199634 4.476939297806006
  endloop
endfacet
facet normal -1.0 0.0 0.0
  outer loop
    vertex 108.71564668485671 121.59157487143982 25.999999999999996
    vertex 108.71564668485671 109.09157487143985 24.0
    vertex 108.71564668485671 109.09157487143985 25.999999999999996
  endloop
endfacet
facet normal -1.0 0.0 0.0
  outer loop
    vertex 108.71564668485671 109.09157487143985 24.0
    vertex 108.71564668485671 121.59157487143982 25.999999999999996
    vertex 108.71564668485675 110.09157487143989 14.0
  endloop
endfacet
facet normal -1.0 0.0 0.0
  outer loop
    vertex 108.71564668485675 110.09157487143989 14.0
    vertex 108.71564668485671 121.59157487143982 25.999999999999996
    vertex 108.71564668485675 110.09157487143989 6.0
  endloop
endfacet
facet normal -1.0 0.0 0.0
  outer loop
    vertex 108.71564668485671 97.09157487143985 25.999999999999996
    vertex 108.71564668485671 86.59157487143987 1.9999999999999996
    vertex 108.71564668485671 86.59157487143987 25.999999999999996
  endloop
endfacet
facet normal -1.0 0.0 0.0
  outer loop
    vertex 108.71564668485671 86.59157487143987 1.9999999999999996
    vertex 108.71564668485671 97.09157487143985 25.999999999999996
    vertex 108.71564668485671 97.09157487143985 24.0
  endloop
endfacet
facet normal -1.0 0.0 0.0
  outer loop
    vertex 108.71564668485671 86.59157487143987 1.9999999999999996
    vertex 108.71564668485671 97.09157487143985 24.0
    vertex 108.71564668485675 98.09157487143989 6.0
  endloop
endfacet
facet normal -1.0 0.0 0.0
  outer loop
    vertex 108.71564668485671 86.59157487143987 1.9999999999999996
    vertex 108.71564668485675 98.09157487143989 6.0
    vertex 108.71564668485671 121.59157487143982 1.9999999999999996
  endloop
endfacet
facet normal -1.0 0.0 0.0
  outer loop
    vertex 108.71564668485675 98.09157487143989 6.0
    vertex 108.71564668485671 97.09157487143985 24.0
    vertex 108.71564668485675 98.09157487143989 14.0
  endloop
endfacet
facet normal -1.0 0.0 0.0
  outer loop
    vertex 108.71564668485671 121.59157487143982 1.9999999999999996
    vertex 108.71564668485675 98.09157487143989 6.0
    vertex 108.71564668485675 110.09157487143989 6.0
  endloop
endfacet
facet normal -1.0 0.0 0.0
  outer loop
    vertex 108.71564668485671 121.59157487143982 1.9999999999999996
    vertex 108.71564668485675 110.09157487143989 6.0
    vertex 108.71564668485671 121.59157487143982 25.999999999999996
  endloop
endfacet
facet normal -1.0 0.0 0.0
  outer loop
    vertex 108.71564668485671 109.09157487143985 24.0
    vertex 108.71564668485675 98.09157487143989 14.0
    vertex 108.71564668485671 97.09157487143985 24.0
  endloop
endfacet
facet normal -1.0 0.0 0.0
  outer loop
    vertex 108.71564668485675 98.09157487143989 14.0
    vertex 108.71564668485671 109.09157487143985 24.0
    vertex 108.71564668485675 110.09157487143989 14.0
  endloop
endfacet
facet normal 4.323333870985699e-32 1.0 2.317780670587315e-16
  outer loop
    vertex 55.715646684856694 98.0915748714399 22.0
    vertex 57.71564668485669 98.09157487143989 14.0
    vertex 55.715646684856694 98.09157487143989 14.0
  endloop
endfacet
facet normal 4.323333870985699e-32 1.0 2.317780670587315e-16
  outer loop
    vertex 57.71564668485669 98.09157487143989 14.0
    vertex 55.715646684856694 98.0915748714399 22.0
    vertex 57.71564668485669 98.0915748714399 22.0
  endloop
endfacet
facet normal -0.0 -1.0 -0.0
  outer loop
    vertex 57.71564668485669 110.09157487143989 22.0
    vertex 55.715646684856694 110.09157487143989 14.0
    vertex 57.71564668485669 110.09157487143989 14.0
  endloop
endfacet
facet normal -0.0 -1.0 -0.0
  outer loop
    vertex 55.715646684856694 110.09157487143989 14.0
    vertex 57.71564668485669 110.09157487143989 22.0
    vertex 55.715646684856694 110.09157487143989 22.0
  endloop
endfacet
facet normal 0.0 0.0 1.0
  outer loop
    vertex 57.71564668485669 98.09157487143989 14.0
    vertex 55.715646684856694 110.09157487143989 14.0
    vertex 55.715646684856694 98.09157487143989 14.0
  endloop
endfacet
facet normal 0.0 0.0 1.0
  outer loop
    vertex 55.715646684856694 110.09157487143989 14.0
    vertex 57.71564668485669 98.09157487143989 14.0
    vertex 57.71564668485669 110.09157487143989 14.0
  endloop
endfacet
facet normal -1.0 -1.342581804706037e-15 9.071873318826644e-16
  outer loop
    vertex 56.71564668485669 100.90634508420962 9.28913820947368
    vertex 56.71564668485668 104.24609392544798 8.997973916322001
    vertex 56.71564668485668 107.27638786661987 6.3869743701525685
  endloop
endfacet
facet normal -1.0 -1.342581804706037e-15 9.071873318826644e-16
  outer loop
    vertex 56.71564668485668 104.24609392544798 8.997973916322001
    vertex 56.71564668485669 100.90634508420962 9.28913820947368
    vertex 56.71564668485669 103.69431599428924 10.396937019975732
  endloop
endfacet
facet normal -1.0 -1.342581804706037e-15 9.071873318826644e-16
  outer loop
    vertex 56.71564668485668 108.38200616748988 8.997973916322001
    vertex 56.71564668485669 103.69431599428924 10.396937019975732
    vertex 56.71564668485669 101.70254747435122 12.640340274627901
  endloop
endfacet
facet normal -1.0 -1.342581804706037e-15 9.071873318826644e-16
  outer loop
    vertex 56.71564668485669 103.69431599428924 10.396937019975732
    vertex 56.71564668485668 108.38200616748988 8.997973916322001
    vertex 56.71564668485668 104.24609392544798 8.997973916322001
  endloop
endfacet
facet normal -1.5369901501135175e-16 -0.47875338475216905 -0.8779494271245594
  outer loop
    vertex 56.71564668485668 108.38200616748988 8.997973916322001
    vertex 55.715646684856694 101.70254747435122 12.640340274627903
    vertex 55.71564668485668 108.38200616748988 8.997973916322003
  endloop
endfacet
facet normal -1.5369901501135175e-16 -0.47875338475216905 -0.8779494271245594
  outer loop
    vertex 55.715646684856694 101.70254747435122 12.640340274627903
    vertex 56.71564668485668 108.38200616748988 8.997973916322001
    vertex 56.71564668485669 101.70254747435122 12.640340274627901
  endloop
endfacet
facet normal 9.071873318826644e-16 0.0 1.0
  outer loop
    vertex 56.71564668485668 104.24609392544798 8.997973916322001
    vertex 55.71564668485668 108.38200616748988 8.997973916322003
    vertex 55.71564668485668 104.24609392544798 8.997973916322003
  endloop
endfacet
facet normal 9.071873318826644e-16 0.0 1.0
  outer loop
    vertex 55.71564668485668 108.38200616748988 8.997973916322003
    vertex 56.71564668485668 104.24609392544798 8.997973916322001
    vertex 56.71564668485668 108.38200616748988 8.997973916322001
  endloop
endfacet
facet normal 1.8910905186771731e-16 -0.6527498865423573 -0.7575734852929713
  outer loop
    vertex 56.71564668485668 107.27638786661987 6.3869743701525685
    vertex 55.71564668485668 104.24609392544798 8.997973916322003
    vertex 55.71564668485668 107.27638786661987 6.386974370152569
  endloop
endfacet
facet normal 1.8910905186771731e-16 -0.6527498865423573 -0.7575734852929713
  outer loop
    vertex 55.71564668485668 104.24609392544798 8.997973916322003
    vertex 56.71564668485668 107.27638786661987 6.3869743701525685
    vertex 56.71564668485668 104.24609392544798 8.997973916322001
  endloop
endfacet
facet normal 2.6891853582926346e-16 0.41459483418872994 0.9100061117728933
  outer loop
    vertex 55.715646684856694 100.90634508420962 9.289138209473682
    vertex 56.71564668485668 107.27638786661987 6.3869743701525685
    vertex 55.71564668485668 107.27638786661987 6.386974370152569
  endloop
endfacet
facet normal 2.6891853582926346e-16 0.41459483418872994 0.9100061117728933
  outer loop
    vertex 56.71564668485668 107.27638786661987 6.3869743701525685
    vertex 55.715646684856694 100.90634508420962 9.289138209473682
    vertex 56.71564668485669 100.90634508420962 9.28913820947368
  endloop
endfacet
facet normal -1.3388408058455565e-15 0.3692662701673507 -0.9293236366932099
  outer loop
    vertex 56.71564668485669 103.69431599428924 10.396937019975732
    vertex 55.715646684856694 100.90634508420962 9.289138209473682
    vertex 55.715646684856694 103.69431599428924 10.396937019975732
  endloop
endfacet
facet normal -1.3388408058455565e-15 0.3692662701673507 -0.9293236366932099
  outer loop
    vertex 55.715646684856694 100.90634508420962 9.289138209473682
    vertex 56.71564668485669 103.69431599428924 10.396937019975732
    vertex 56.71564668485669 100.90634508420962 9.28913820947368
  endloop
endfacet
facet normal -4.016817403279491e-16 0.7478010848840547 0.6639228399793388
  outer loop
    vertex 55.715646684856694 103.69431599428924 10.396937019975732
    vertex 56.71564668485669 101.70254747435122 12.640340274627901
    vertex 56.71564668485669 103.69431599428924 10.396937019975732
  endloop
endfacet
facet normal -4.016817403279491e-16 0.7478010848840547 0.6639228399793388
  outer loop
    vertex 56.71564668485669 101.70254747435122 12.640340274627901
    vertex 55.715646684856694 103.69431599428924 10.396937019975732
    vertex 55.715646684856694 101.70254747435122 12.640340274627903
  endloop
endfacet
facet normal -0.0 1.0 0.0
  outer loop
    vertex 61.24444026805853 79.50379643453944 1.000000000000011
    vertex 112.24444026805853 79.50379643453944 -0.9999999999999887
    vertex 61.24444026805853 79.50379643453944 -0.9999999999999887
  endloop
endfacet
facet normal -0.0 1.0 0.0
  outer loop
    vertex 112.24444026805853 79.50379643453944 -0.9999999999999887
    vertex 61.24444026805853 79.50379643453944 1.000000000000011
    vertex 112.24444026805853 79.50379643453944 1.000000000000011
  endloop
endfacet
facet normal -0.0 -1.0 -0.0
  outer loop
    vertex 112.24444026805853 44.50379643453943 1.000000000000011
    vertex 61.24444026805853 44.50379643453943 -0.9999999999999887
    vertex 112.24444026805853 44.50379643453943 -0.9999999999999887
  endloop
endfacet
facet normal -0.0 -1.0 -0.0
  outer loop
    vertex 61.24444026805853 44.50379643453943 -0.9999999999999887
    vertex 112.24444026805853 44.50379643453943 1.000000000000011
    vertex 61.24444026805853 44.50379643453943 1.000000000000011
  endloop
endfacet
facet normal 0.0 0.0 -1.0
  outer loop
    vertex 114.24444026805853 67.50379643453944 -0.9999999999999887
    vertex 112.24444026805853 56.50379643453944 -0.9999999999999887
    vertex 112.24444026805853 67.50379643453944 -0.9999999999999887
  endloop
endfacet
facet normal 0.0 0.0 -1.0
  outer loop
    vertex 112.24444026805853 56.50379643453944 -0.9999999999999887
    vertex 114.24444026805853 67.50379643453944 -0.9999999999999887
    vertex 114.24444026805853 56.50379643453944 -0.9999999999999887
  endloop
endfacet
facet normal 0.0 0.0 -1.0
  outer loop
    vertex 112.24444026805853 79.50379643453944 -0.9999999999999887
    vertex 61.24444026805853 67.50379643453944 -0.9999999999999887
    vertex 61.24444026805853 79.50379643453944 -0.9999999999999887
  endloop
endfacet
facet normal 0.0 0.0 -1.0
  outer loop
    vertex 61.24444026805853 67.50379643453944 -0.9999999999999887
    vertex 112.24444026805853 79.50379643453944 -0.9999999999999887
    vertex 61.24444026805853 56.50379643453944 -0.9999999999999887
  endloop
endfacet
facet normal 0.0 0.0 -1.0
  outer loop
    vertex 61.24444026805853 56.50379643453944 -0.9999999999999887
    vertex 112.24444026805853 79.50379643453944 -0.9999999999999887
    vertex 61.24444026805853 44.50379643453943 -0.9999999999999887
  endloop
endfacet
facet normal 0.0 0.0 -1.0
  outer loop
    vertex 61.24444026805853 44.50379643453943 -0.9999999999999887
    vertex 112.24444026805853 79.50379643453944 -0.9999999999999887
    vertex 112.24444026805853 44.50379643453943 -0.9999999999999887
  endloop
endfacet
facet normal 0.0 0.0 -1.0
  outer loop
    vertex 112.24444026805853 44.50379643453943 -0.9999999999999887
    vertex 112.24444026805853 79.50379643453944 -0.9999999999999887
    vertex 112.24444026805853 67.50379643453944 -0.9999999999999887
  endloop
endfacet
facet normal 0.0 0.0 -1.0
  outer loop
    vertex 112.24444026805853 44.50379643453943 -0.9999999999999887
    vertex 112.24444026805853 67.50379643453944 -0.9999999999999887
    vertex 112.24444026805853 56.50379643453944 -0.9999999999999887
  endloop
endfacet
facet normal 0.0 0.0 -1.0
  outer loop
    vertex 61.24444026805853 67.50379643453944 -0.9999999999999887
    vertex 59.24444026805853 56.50379643453944 -0.9999999999999887
    vertex 59.24444026805853 67.50379643453944 -0.9999999999999887
  endloop
endfacet
facet normal 0.0 0.0 -1.0
  outer loop
    vertex 59.24444026805853 56.50379643453944 -0.9999999999999887
    vertex 61.24444026805853 67.50379643453944 -0.9999999999999887
    vertex 61.24444026805853 56.50379643453944 -0.9999999999999887
  endloop
endfacet
facet normal 0.0 0.0 1.0
  outer loop
    vertex 114.24444026805853 56.50379643453944 1.000000000000011
    vertex 112.24444026805853 67.50379643453944 1.000000000000011
    vertex 112.24444026805853 56.50379643453944 1.000000000000011
  endloop
endfacet
facet normal 0.0 0.0 1.0
  outer loop
    vertex 112.24444026805853 67.50379643453944 1.000000000000011
    vertex 114.24444026805853 56.50379643453944 1.000000000000011
    vertex 114.24444026805853 67.50379643453944 1.000000000000011
  endloop
endfacet
facet normal 0.0 0.0 1.0
  outer loop
    vertex 112.24444026805853 44.50379643453943 1.000000000000011
    vertex 61.24444026805853 56.50379643453944 1.000000000000011
    vertex 61.24444026805853 44.50379643453943 1.000000000000011
  endloop
endfacet
facet normal 0.0 0.0 1.0
  outer loop
    vertex 61.24444026805853 56.50379643453944 1.000000000000011
    vertex 112.24444026805853 44.50379643453943 1.000000000000011
    vertex 61.24444026805853 67.50379643453944 1.000000000000011
  endloop
endfacet
facet normal 0.0 0.0 1.0
  outer loop
    vertex 61.24444026805853 67.50379643453944 1.000000000000011
    vertex 112.24444026805853 44.50379643453943 1.000000000000011
    vertex 61.24444026805853 79.50379643453944 1.000000000000011
  endloop
endfacet
facet normal 0.0 0.0 1.0
  outer loop
    vertex 61.24444026805853 79.50379643453944 1.000000000000011
    vertex 112.24444026805853 44.50379643453943 1.000000000000011
    vertex 112.24444026805853 79.50379643453944 1.000000000000011
  endloop
endfacet
facet normal 0.0 0.0 1.0
  outer loop
    vertex 112.24444026805853 79.50379643453944 1.000000000000011
    vertex 112.24444026805853 44.50379643453943 1.000000000000011
    vertex 112.24444026805853 56.50379643453944 1.000000000000011
  endloop
endfacet
facet normal 0.0 0.0 1.0
  outer loop
    vertex 112.24444026805853 79.50379643453944 1.000000000000011
    vertex 112.24444026805853 56.50379643453944 1.000000000000011
    vertex 112.24444026805853 67.50379643453944 1.000000000000011
  endloop
endfacet
facet normal 0.0 0.0 1.0
  outer loop
    vertex 61.24444026805853 56.50379643453944 1.000000000000011
    vertex 59.24444026805853 67.50379643453944 1.000000000000011
    vertex 59.24444026805853 56.50379643453944 1.000000000000011
  endloop
endfacet
facet normal 0.0 0.0 1.0
  outer loop
    vertex 59.24444026805853 67.50379643453944 1.000000000000011
    vertex 61.24444026805853 56.50379643453944 1.000000000000011
    vertex 61.24444026805853 67.50379643453944 1.000000000000011
  endloop
endfacet
facet normal -1.0 0.0 0.0
  outer loop
    vertex 55.71564668485668 108.38200616748988 8.997973916322003
    vertex 55.71564668485668 107.27638786661987 6.386974370152569
    vertex 55.71564668485668 104.24609392544798 8.997973916322003
  endloop
endfacet
facet normal -1.0 0.0 0.0
  outer loop
    vertex 55.715646684856694 98.09157487143989 14.0
    vertex 55.715646684856694 101.70254747435122 12.640340274627903
    vertex 55.715646684856694 100.90634508420962 9.289138209473682
  endloop
endfacet
facet normal -1.0 0.0 0.0
  outer loop
    vertex 55.715646684856694 101.70254747435122 12.640340274627903
    vertex 55.715646684856694 98.09157487143989 14.0
    vertex 55.715646684856694 110.09157487143989 14.0
  endloop
endfacet
facet normal -1.0 0.0 0.0
  outer loop
    vertex 55.715646684856694 101.70254747435122 12.640340274627903
    vertex 55.715646684856694 110.09157487143989 14.0
    vertex 55.71564668485668 108.38200616748988 8.997973916322003
  endloop
endfacet
facet normal -1.0 0.0 0.0
  outer loop
    vertex 55.715646684856694 123.59157487143987 25.999999999999996
    vertex 55.715646684856694 110.09157487143989 23.0
    vertex 55.715646684856694 110.09157487143989 25.999999999999996
  endloop
endfacet
facet normal -1.0 0.0 0.0
  outer loop
    vertex 55.715646684856694 110.09157487143989 23.0
    vertex 55.715646684856694 123.59157487143987 25.999999999999996
    vertex 55.715646684856694 110.09157487143989 22.0
  endloop
endfacet
facet normal -1.0 0.0 0.0
  outer loop
    vertex 55.715646684856694 110.09157487143989 22.0
    vertex 55.715646684856694 123.59157487143987 25.999999999999996
    vertex 55.715646684856694 110.09157487143989 14.0
  endloop
endfacet
facet normal -1.0 0.0 0.0
  outer loop
    vertex 55.715646684856694 86.59157487143987 25.999999999999996
    vertex 55.715646684856694 84.59157487143989 0.0
    vertex 55.715646684856694 84.59157487143989 25.999999999999996
  endloop
endfacet
facet normal -1.0 0.0 0.0
  outer loop
    vertex 55.715646684856694 84.59157487143989 0.0
    vertex 55.715646684856694 86.59157487143987 25.999999999999996
    vertex 55.715646684856694 100.90634508420962 9.289138209473682
  endloop
endfacet
facet normal -1.0 0.0 0.0
  outer loop
    vertex 55.715646684856694 84.59157487143989 0.0
    vertex 55.715646684856694 100.90634508420962 9.289138209473682
    vertex 55.71564668485668 107.27638786661987 6.386974370152569
  endloop
endfacet
facet normal -1.0 0.0 0.0
  outer loop
    vertex 55.715646684856694 84.59157487143989 0.0
    vertex 55.71564668485668 107.27638786661987 6.386974370152569
    vertex 55.715646684856694 123.59157487143987 0.0
  endloop
endfacet
facet normal -1.0 0.0 0.0
  outer loop
    vertex 55.715646684856694 100.90634508420962 9.289138209473682
    vertex 55.715646684856694 86.59157487143987 25.999999999999996
    vertex 55.715646684856694 98.09157487143989 14.0
  endloop
endfacet
facet normal -1.0 0.0 0.0
  outer loop
    vertex 55.715646684856694 98.09157487143989 14.0
    vertex 55.715646684856694 86.59157487143987 25.999999999999996
    vertex 55.715646684856694 98.09157487143989 23.0
  endloop
endfacet
facet normal -1.0 0.0 0.0
  outer loop
    vertex 55.715646684856694 98.09157487143989 23.0
    vertex 55.715646684856694 86.59157487143987 25.999999999999996
    vertex 55.715646684856694 98.09157487143989 25.999999999999996
  endloop
endfacet
facet normal -1.0 0.0 0.0
  outer loop
    vertex 55.715646684856694 123.59157487143987 0.0
    vertex 55.71564668485668 107.27638786661987 6.386974370152569
    vertex 55.71564668485668 108.38200616748988 8.997973916322003
  endloop
endfacet
facet normal -1.0 0.0 0.0
  outer loop
    vertex 55.715646684856694 123.59157487143987 0.0
    vertex 55.71564668485668 108.38200616748988 8.997973916322003
    vertex 55.715646684856694 110.09157487143989 14.0
  endloop
endfacet
facet normal -1.0 0.0 0.0
  outer loop
    vertex 55.715646684856694 123.59157487143987 0.0
    vertex 55.715646684856694 110.09157487143989 14.0
    vertex 55.715646684856694 123.59157487143987 25.999999999999996
  endloop
endfacet
facet normal -1.0 0.0 0.0
  outer loop
    vertex 55.715646684856694 98.09157487143989 23.0
    vertex 55.715646684856694 98.0915748714399 22.0
    vertex 55.715646684856694 98.09157487143989 14.0
  endloop
endfacet
facet normal -1.0 0.0 0.0
  outer loop
    vertex 55.715646684856694 98.0915748714399 22.0
    vertex 55.715646684856694 98.09157487143989 23.0
    vertex 55.715646684856694 110.09157487143989 23.0
  endloop
endfacet
facet normal -1.0 0.0 0.0
  outer loop
    vertex 55.715646684856694 98.0915748714399 22.0
    vertex 55.715646684856694 110.09157487143989 23.0
    vertex 55.715646684856694 110.09157487143989 22.0
  endloop
endfacet
facet normal -1.0 0.0 0.0
  outer loop
    vertex 55.715646684856694 103.69431599428924 10.396937019975732
    vertex 55.715646684856694 100.90634508420962 9.289138209473682
    vertex 55.715646684856694 101.70254747435122 12.640340274627903
  endloop
endfacet
facet normal -0.0 1.0 -0.0
  outer loop
    vertex 55.715646684856694 98.09157487143989 25.999999999999996
    vertex 57.71564668485669 98.09157487143989 23.0
    vertex 55.715646684856694 98.09157487143989 23.0
  endloop
endfacet
facet normal -0.0 1.0 -0.0
  outer loop
    vertex 57.71564668485669 98.09157487143989 23.0
    vertex 55.715646684856694 98.09157487143989 25.999999999999996
    vertex 57.71564668485669 98.09157487143989 25.999999999999996
  endloop
endfacet
facet normal 0.0 -1.0 0.0
  outer loop
    vertex 57.71564668485669 110.09157487143989 25.999999999999996
    vertex 55.715646684856694 110.09157487143989 23.0
    vertex 57.71564668485669 110.09157487143989 23.0
  endloop
endfacet
facet normal 0.0 -1.0 0.0
  outer loop
    vertex 55.715646684856694 110.09157487143989 23.0
    vertex 57.71564668485669 110.09157487143989 25.999999999999996
    vertex 55.715646684856694 110.09157487143989 25.999999999999996
  endloop
endfacet
facet normal -0.0 -0.0 1.0
  outer loop
    vertex 57.71564668485669 110.09157487143989 25.999999999999996
    vertex 55.715646684856694 123.59157487143987 25.999999999999996
    vertex 55.715646684856694 110.09157487143989 25.999999999999996
  endloop
endfacet
facet normal -0.0 -0.0 1.0
  outer loop
    vertex 55.715646684856694 123.59157487143987 25.999999999999996
    vertex 57.71564668485669 110.09157487143989 25.999999999999996
    vertex 57.71564668485669 121.59157487143989 25.999999999999996
  endloop
endfacet
facet normal -0.0 -0.0 1.0
  outer loop
    vertex 55.715646684856694 123.59157487143987 25.999999999999996
    vertex 57.71564668485669 121.59157487143989 25.999999999999996
    vertex 110.71564668485671 123.59157487143987 25.999999999999996
  endloop
endfacet
facet normal -0.0 -0.0 1.0
  outer loop
    vertex 110.71564668485671 123.59157487143987 25.999999999999996
    vertex 57.71564668485669 121.59157487143989 25.999999999999996
    vertex 108.71564668485671 121.59157487143982 25.999999999999996
  endloop
endfacet
facet normal -0.0 -0.0 1.0
  outer loop
    vertex 110.71564668485671 123.59157487143987 25.999999999999996
    vertex 108.71564668485671 121.59157487143982 25.999999999999996
    vertex 110.71564668485671 121.59157487143982 25.999999999999996
  endloop
endfacet
facet normal 1.0 -0.0 -0.0
  outer loop
    vertex 57.71564668485669 86.59157487143995 1.9999999999999996
    vertex 57.71564668485669 98.09157487143989 14.0
    vertex 57.71564668485669 86.59157487143995 25.999999999999996
  endloop
endfacet
facet normal 1.0 -0.0 -0.0
  outer loop
    vertex 57.71564668485669 98.09157487143989 14.0
    vertex 57.71564668485669 86.59157487143995 1.9999999999999996
    vertex 57.71564668485669 121.59157487143989 1.9999999999999996
  endloop
endfacet
facet normal 1.0 -0.0 -0.0
  outer loop
    vertex 57.71564668485669 86.59157487143995 25.999999999999996
    vertex 57.71564668485669 98.09157487143989 14.0
    vertex 57.71564668485669 98.09157487143989 23.0
  endloop
endfacet
facet normal 1.0 -0.0 -0.0
  outer loop
    vertex 57.71564668485669 98.09157487143989 14.0
    vertex 57.71564668485669 121.59157487143989 1.9999999999999996
    vertex 57.71564668485669 110.09157487143989 14.0
  endloop
endfacet
facet normal 1.0 -0.0 -0.0
  outer loop
    vertex 57.71564668485669 110.09157487143989 14.0
    vertex 57.71564668485669 121.59157487143989 1.9999999999999996
    vertex 57.71564668485669 110.09157487143989 22.0
  endloop
endfacet
facet normal 1.0 -0.0 -0.0
  outer loop
    vertex 57.71564668485669 110.09157487143989 22.0
    vertex 57.71564668485669 121.59157487143989 1.9999999999999996
    vertex 57.71564668485669 110.09157487143989 23.0
  endloop
endfacet
facet normal 1.0 -0.0 -0.0
  outer loop
    vertex 57.71564668485669 110.09157487143989 23.0
    vertex 57.71564668485669 121.59157487143989 1.9999999999999996
    vertex 57.71564668485669 110.09157487143989 25.999999999999996
  endloop
endfacet
facet normal 1.0 -0.0 -0.0
  outer loop
    vertex 57.71564668485669 110.09157487143989 25.999999999999996
    vertex 57.71564668485669 121.59157487143989 1.9999999999999996
    vertex 57.71564668485669 121.59157487143989 25.999999999999996
  endloop
endfacet
facet normal 1.0 -0.0 -0.0
  outer loop
    vertex 57.71564668485669 98.09157487143989 23.0
    vertex 57.71564668485669 98.0915748714399 22.0
    vertex 57.71564668485669 110.09157487143989 23.0
  endloop
endfacet
facet normal 1.0 -0.0 -0.0
  outer loop
    vertex 57.71564668485669 98.0915748714399 22.0
    vertex 57.71564668485669 98.09157487143989 23.0
    vertex 57.71564668485669 98.09157487143989 14.0
  endloop
endfacet
facet normal 1.0 -0.0 -0.0
  outer loop
    vertex 57.71564668485669 110.09157487143989 23.0
    vertex 57.71564668485669 98.0915748714399 22.0
    vertex 57.71564668485669 110.09157487143989 22.0
  endloop
endfacet
facet normal 1.0 -0.0 -0.0
  outer loop
    vertex 57.71564668485669 98.09157487143989 25.999999999999996
    vertex 57.71564668485669 86.59157487143995 25.999999999999996
    vertex 57.71564668485669 98.09157487143989 23.0
  endloop
endfacet
facet normal -1.0 0.0 0.0
  outer loop
    vertex 61.24444026805853 56.50379643453944 1.000000000000011
    vertex 61.24444026805853 44.50379643453943 -0.9999999999999887
    vertex 61.24444026805853 44.50379643453943 1.000000000000011
  endloop
endfacet
facet normal -1.0 0.0 0.0
  outer loop
    vertex 61.24444026805853 44.50379643453943 -0.9999999999999887
    vertex 61.24444026805853 56.50379643453944 1.000000000000011
    vertex 61.24444026805853 56.50379643453944 -0.9999999999999887
  endloop
endfacet
facet normal -1.0 0.0 0.0
  outer loop
    vertex 61.24444026805853 79.50379643453944 1.000000000000011
    vertex 61.24444026805853 67.50379643453944 -0.9999999999999887
    vertex 61.24444026805853 67.50379643453944 1.000000000000011
  endloop
endfacet
facet normal -1.0 0.0 0.0
  outer loop
    vertex 61.24444026805853 67.50379643453944 -0.9999999999999887
    vertex 61.24444026805853 79.50379643453944 1.000000000000011
    vertex 61.24444026805853 79.50379643453944 -0.9999999999999887
  endloop
endfacet
facet normal -1.0 0.0 0.0
  outer loop
    vertex 59.24444026805853 67.50379643453944 1.000000000000011
    vertex 59.24444026805853 56.50379643453944 -0.9999999999999887
    vertex 59.24444026805853 56.50379643453944 1.000000000000011
  endloop
endfacet
facet normal -1.0 0.0 0.0
  outer loop
    vertex 59.24444026805853 56.50379643453944 -0.9999999999999887
    vertex 59.24444026805853 67.50379643453944 1.000000000000011
    vertex 59.24444026805853 67.50379643453944 -0.9999999999999887
  endloop
endfacet
facet normal 0.0 1.0 0.0
  outer loop
    vertex 59.24444026805853 67.50379643453944 1.000000000000011
    vertex 61.24444026805853 67.50379643453944 -0.9999999999999887
    vertex 59.24444026805853 67.50379643453944 -0.9999999999999887
  endloop
endfacet
facet normal 0.0 1.0 0.0
  outer loop
    vertex 61.24444026805853 67.50379643453944 -0.9999999999999887
    vertex 59.24444026805853 67.50379643453944 1.000000000000011
    vertex 61.24444026805853 67.50379643453944 1.000000000000011
  endloop
endfacet
facet normal 0.0 -1.0 0.0
  outer loop
    vertex 61.24444026805853 56.50379643453944 1.000000000000011
    vertex 59.24444026805853 56.50379643453944 -0.9999999999999887
    vertex 61.24444026805853 56.50379643453944 -0.9999999999999887
  endloop
endfacet
facet normal 0.0 -1.0 0.0
  outer loop
    vertex 59.24444026805853 56.50379643453944 -0.9999999999999887
    vertex 61.24444026805853 56.50379643453944 1.000000000000011
    vertex 59.24444026805853 56.50379643453944 1.000000000000011
  endloop
endfacet
facet normal -0.0 -0.0 1.0
  outer loop
    vertex 110.71564668485671 109.09157487143985 25.999999999999996
    vertex 108.71564668485671 121.59157487143982 25.999999999999996
    vertex 108.71564668485671 109.09157487143985 25.999999999999996
  endloop
endfacet
facet normal -0.0 -0.0 1.0
  outer loop
    vertex 108.71564668485671 121.59157487143982 25.999999999999996
    vertex 110.71564668485671 109.09157487143985 25.999999999999996
    vertex 110.71564668485671 121.59157487143982 25.999999999999996
  endloop
endfacet
facet normal 0.0 0.0 -1.0
  outer loop
    vertex 57.71564668485669 110.09157487143989 22.0
    vertex 55.715646684856694 98.0915748714399 22.0
    vertex 55.715646684856694 110.09157487143989 22.0
  endloop
endfacet
facet normal 0.0 0.0 -1.0
  outer loop
    vertex 55.715646684856694 98.0915748714399 22.0
    vertex 57.71564668485669 110.09157487143989 22.0
    vertex 57.71564668485669 98.0915748714399 22.0
  endloop
endfacet
facet normal -0.0 -0.0 1.0
  outer loop
    vertex 57.71564668485669 98.09157487143989 23.0
    vertex 55.715646684856694 110.09157487143989 23.0
    vertex 55.715646684856694 98.09157487143989 23.0
  endloop
endfacet
facet normal -0.0 -0.0 1.0
  outer loop
    vertex 55.715646684856694 110.09157487143989 23.0
    vertex 57.71564668485669 98.09157487143989 23.0
    vertex 57.71564668485669 110.09157487143989 23.0
  endloop
endfacet
facet normal 1.0 -0.0 -0.0
  outer loop
    vertex 110.71564668485671 84.59157487143989 0.0
    vertex 110.71564668485671 98.09157487143989 6.0
    vertex 110.71564668485671 84.59157487143989 25.999999999999996
  endloop
endfacet
facet normal 1.0 -0.0 -0.0
  outer loop
    vertex 110.71564668485671 98.09157487143989 6.0
    vertex 110.71564668485671 84.59157487143989 0.0
    vertex 110.71564668485671 104.47899145045734 2.0422872850769926
  endloop
endfacet
facet normal 1.0 -0.0 -0.0
  outer loop
    vertex 110.71564668485671 104.47899145045734 2.0422872850769926
    vertex 110.71564668485671 84.59157487143989 0.0
    vertex 110.71564668485671 123.59157487143987 0.0
  endloop
endfacet
facet normal 1.0 -0.0 -0.0
  outer loop
    vertex 110.71564668485671 84.59157487143989 25.999999999999996
    vertex 110.71564668485671 98.09157487143989 6.0
    vertex 110.71564668485671 97.09157487143985 24.0
  endloop
endfacet
facet normal 1.0 -0.0 -0.0
  outer loop
    vertex 110.71564668485671 98.09157487143989 6.0
    vertex 110.71564668485671 104.47899145045734 2.0422872850769926
    vertex 110.71564668485671 100.65270687199634 4.476939297806006
  endloop
endfacet
facet normal 1.0 -0.0 -0.0
  outer loop
    vertex 110.71564668485671 104.47899145045734 2.0422872850769926
    vertex 110.71564668485671 123.59157487143987 0.0
    vertex 110.71564668485671 107.65270687199634 4.476939297806006
  endloop
endfacet
facet normal 1.0 -0.0 -0.0
  outer loop
    vertex 110.71564668485671 107.65270687199634 4.476939297806006
    vertex 110.71564668485671 123.59157487143987 0.0
    vertex 110.71564668485671 110.09157487143989 6.0
  endloop
endfacet
facet normal 1.0 -0.0 -0.0
  outer loop
    vertex 110.71564668485671 110.09157487143989 6.0
    vertex 110.71564668485671 123.59157487143987 0.0
    vertex 110.71564668485671 110.09157487143989 14.0
  endloop
endfacet
facet normal 1.0 -0.0 -0.0
  outer loop
    vertex 110.71564668485671 110.09157487143989 14.0
    vertex 110.71564668485671 123.59157487143987 0.0
    vertex 110.71564668485671 121.59157487143982 25.999999999999996
  endloop
endfacet
facet normal 1.0 -0.0 -0.0
  outer loop
    vertex 110.71564668485671 121.59157487143982 25.999999999999996
    vertex 110.71564668485671 123.59157487143987 0.0
    vertex 110.71564668485671 123.59157487143987 25.999999999999996
  endloop
endfacet
facet normal 1.0 -0.0 -0.0
  outer loop
    vertex 110.71564668485671 97.09157487143985 24.0
    vertex 110.71564668485671 98.09157487143989 14.0
    vertex 110.71564668485671 109.09157487143985 24.0
  endloop
endfacet
facet normal 1.0 -0.0 -0.0
  outer loop
    vertex 110.71564668485671 98.09157487143989 14.0
    vertex 110.71564668485671 97.09157487143985 24.0
    vertex 110.71564668485671 98.09157487143989 6.0
  endloop
endfacet
facet normal 1.0 -0.0 -0.0
  outer loop
    vertex 110.71564668485671 109.09157487143985 24.0
    vertex 110.71564668485671 98.09157487143989 14.0
    vertex 110.71564668485671 110.09157487143989 14.0
  endloop
endfacet
facet normal 1.0 -0.0 -0.0
  outer loop
    vertex 110.71564668485671 109.09157487143985 24.0
    vertex 110.71564668485671 110.09157487143989 14.0
    vertex 110.71564668485671 109.09157487143985 25.999999999999996
  endloop
endfacet
facet normal 1.0 -0.0 -0.0
  outer loop
    vertex 110.71564668485671 109.09157487143985 25.999999999999996
    vertex 110.71564668485671 110.09157487143989 14.0
    vertex 110.71564668485671 121.59157487143982 25.999999999999996
  endloop
endfacet
facet normal 1.0 -0.0 -0.0
  outer loop
    vertex 110.71564668485671 100.65270687199634 4.476939297806006
    vertex 110.71564668485671 110.09157487143989 6.0
    vertex 110.71564668485671 98.09157487143989 6.0
  endloop
endfacet
facet normal 1.0 -0.0 -0.0
  outer loop
    vertex 110.71564668485671 110.09157487143989 6.0
    vertex 110.71564668485671 100.65270687199634 4.476939297806006
    vertex 110.71564668485671 107.65270687199634 4.476939297806006
  endloop
endfacet
facet normal 1.0 -0.0 -0.0
  outer loop
    vertex 110.71564668485671 97.09157487143985 25.999999999999996
    vertex 110.71564668485671 84.59157487143989 25.999999999999996
    vertex 110.71564668485671 97.09157487143985 24.0
  endloop
endfacet
facet normal -0.0 1.0 -0.0
  outer loop
    vertex 108.71564668485671 97.09157487143985 25.999999999999996
    vertex 110.71564668485671 97.09157487143985 24.0
    vertex 108.71564668485671 97.09157487143985 24.0
  endloop
endfacet
facet normal -0.0 1.0 -0.0
  outer loop
    vertex 110.71564668485671 97.09157487143985 24.0
    vertex 108.71564668485671 97.09157487143985 25.999999999999996
    vertex 110.71564668485671 97.09157487143985 25.999999999999996
  endloop
endfacet
facet normal -0.0 -0.0 1.0
  outer loop
    vertex 110.71564668485671 97.09157487143985 24.0
    vertex 108.71564668485671 109.09157487143985 24.0
    vertex 108.71564668485671 97.09157487143985 24.0
  endloop
endfacet
facet normal -0.0 -0.0 1.0
  outer loop
    vertex 108.71564668485671 109.09157487143985 24.0
    vertex 110.71564668485671 97.09157487143985 24.0
    vertex 110.71564668485671 109.09157487143985 24.0
  endloop
endfacet
facet normal 0.0 -1.0 0.0
  outer loop
    vertex 110.71564668485671 109.09157487143985 25.999999999999996
    vertex 108.71564668485671 109.09157487143985 24.0
    vertex 110.71564668485671 109.09157487143985 24.0
  endloop
endfacet
facet normal 0.0 -1.0 0.0
  outer loop
    vertex 108.71564668485671 109.09157487143985 24.0
    vertex 110.71564668485671 109.09157487143985 25.999999999999996
    vertex 108.71564668485671 109.09157487143985 25.999999999999996
  endloop
endfacet
facet normal -0.0 -0.0 1.0
  outer loop
    vertex 110.71564668485671 84.59157487143989 25.999999999999996
    vertex 55.715646684856694 86.59157487143987 25.999999999999996
    vertex 55.715646684856694 84.59157487143989 25.999999999999996
  endloop
endfacet
facet normal -0.0 -0.0 1.0
  outer loop
    vertex 55.715646684856694 86.59157487143987 25.999999999999996
    vertex 110.71564668485671 84.59157487143989 25.999999999999996
    vertex 57.71564668485669 86.59157487143995 25.999999999999996
  endloop
endfacet
facet normal -0.0 -0.0 1.0
  outer loop
    vertex 57.71564668485669 86.59157487143995 25.999999999999996
    vertex 110.71564668485671 84.59157487143989 25.999999999999996
    vertex 108.71564668485671 86.59157487143987 25.999999999999996
  endloop
endfacet
facet normal -0.0 -0.0 1.0
  outer loop
    vertex 108.71564668485671 86.59157487143987 25.999999999999996
    vertex 110.71564668485671 84.59157487143989 25.999999999999996
    vertex 108.71564668485671 97.09157487143985 25.999999999999996
  endloop
endfacet
facet normal -0.0 -0.0 1.0
  outer loop
    vertex 108.71564668485671 97.09157487143985 25.999999999999996
    vertex 110.71564668485671 84.59157487143989 25.999999999999996
    vertex 110.71564668485671 97.09157487143985 25.999999999999996
  endloop
endfacet
facet normal 1.0 -0.0 -0.0
  outer loop
    vertex 112.24444026805853 79.50379643453944 -0.9999999999999887
    vertex 112.24444026805853 67.50379643453944 1.000000000000011
    vertex 112.24444026805853 67.50379643453944 -0.9999999999999887
  endloop
endfacet
facet normal 1.0 -0.0 -0.0
  outer loop
    vertex 112.24444026805853 67.50379643453944 1.000000000000011
    vertex 112.24444026805853 79.50379643453944 -0.9999999999999887
    vertex 112.24444026805853 79.50379643453944 1.000000000000011
  endloop
endfacet
facet normal 1.0 -0.0 -0.0
  outer loop
    vertex 112.24444026805853 56.50379643453944 -0.9999999999999887
    vertex 112.24444026805853 44.50379643453943 1.000000000000011
    vertex 112.24444026805853 44.50379643453943 -0.9999999999999887
  endloop
endfacet
facet normal 1.0 -0.0 -0.0
  outer loop
    vertex 112.24444026805853 44.50379643453943 1.000000000000011
    vertex 112.24444026805853 56.50379643453944 -0.9999999999999887
    vertex 112.24444026805853 56.50379643453944 1.000000000000011
  endloop
endfacet
facet normal 1.0 0.0 0.0
  outer loop
    vertex 114.24444026805853 67.50379643453944 -0.9999999999999887
    vertex 114.24444026805853 56.50379643453944 1.000000000000011
    vertex 114.24444026805853 56.50379643453944 -0.9999999999999887
  endloop
endfacet
facet normal 1.0 0.0 0.0
  outer loop
    vertex 114.24444026805853 56.50379643453944 1.000000000000011
    vertex 114.24444026805853 67.50379643453944 -0.9999999999999887
    vertex 114.24444026805853 67.50379643453944 1.000000000000011
  endloop
endfacet
facet normal -0.0 -1.0 -0.0
  outer loop
    vertex 114.24444026805853 56.50379643453944 1.000000000000011
    vertex 112.24444026805853 56.50379643453944 -0.9999999999999887
    vertex 114.24444026805853 56.50379643453944 -0.9999999999999887
  endloop
endfacet
facet normal -0.0 -1.0 -0.0
  outer loop
    vertex 112.24444026805853 56.50379643453944 -0.9999999999999887
    vertex 114.24444026805853 56.50379643453944 1.000000000000011
    vertex 112.24444026805853 56.50379643453944 1.000000000000011
  endloop
endfacet
facet normal 0.0 1.0 -0.0
  outer loop
    vertex 112.24444026805853 67.50379643453944 1.000000000000011
    vertex 114.24444026805853 67.50379643453944 -0.9999999999999887
    vertex 112.24444026805853 67.50379643453944 -0.9999999999999887
  endloop
endfacet
facet normal 0.0 1.0 -0.0
  outer loop
    vertex 114.24444026805853 67.50379643453944 -0.9999999999999887
    vertex 112.24444026805853 67.50379643453944 1.000000000000011
    vertex 114.24444026805853 67.50379643453944 1.000000000000011
  endloop
endfacet
endsolid CASELIPO
